<?xml version="1.0" standalone="no"?>
<!DOCTYPE svg PUBLIC "-//W3C//DTD SVG 1.1//EN" "http://www.w3.org/Graphics/SVG/1.1/DTD/svg11.dtd" >
<svg xmlns="http://www.w3.org/2000/svg" xmlns:xlink="http://www.w3.org/1999/xlink" version="1.1">
<metadata></metadata>
<defs>
<font id="hortensiaregular" horiz-adv-x="1046" >
<font-face units-per-em="2048" ascent="1638" descent="-410" />
<missing-glyph horiz-adv-x="972" />
<glyph horiz-adv-x="0" />
<glyph horiz-adv-x="682" />
<glyph unicode=" "  horiz-adv-x="972" />
<glyph unicode="&#x09;" horiz-adv-x="972" />
<glyph unicode="&#xa0;" horiz-adv-x="972" />
<glyph unicode="!" horiz-adv-x="671" d="M96 51q4 66 32 102.5t101 36.5q45 0 58.5 -24.5t9.5 -71.5q-4 -49 -34 -89t-93 -40q-43 0 -60.5 17.5t-13.5 68.5zM223 348q0 8 15.5 67.5t41 146.5t55.5 192.5t59.5 205t54 182.5t36.5 128q23 78 41.5 115.5t34.5 54.5q10 10 21.5 18t40.5 15q12 2 28.5 3t32.5 1 q14 0 14 -19q-18 -47 -34 -92q-14 -41 -30 -85t-28 -85q-12 -43 -21.5 -74.5t-18.5 -60.5t-18 -60.5t-24 -74.5q-68 -207 -118.5 -347.5t-79.5 -199.5q-33 -63 -68 -64q-35 0 -35 33z" />
<glyph unicode="&#x22;" horiz-adv-x="819" d="M240 1036q0 4 9 45t21.5 93.5t22.5 103.5t12 74q4 49 44 72.5t97 23.5q23 0 26 -7t3 -20q0 -10 -7 -32.5t-17.5 -52t-22.5 -61.5t-22 -58q-27 -66 -48.5 -110t-62.5 -67q-8 -4 -19.5 -11t-21.5 -7q-14 0 -14 14zM487 1022q0 14 11.5 59t27 98.5t28.5 101.5t17 71 q10 49 47.5 72.5t94.5 23.5q23 0 25.5 -7t2.5 -20q0 -10 -7 -32.5t-17 -51t-23.5 -59.5t-25.5 -57q-35 -78 -58.5 -118t-52.5 -69q-16 -16 -26.5 -20t-20.5 -4q-23 0 -23 12z" />
<glyph unicode="#" horiz-adv-x="1228" d="M-10 446q0 47 41 66q23 8 49 11t61 5h52q18 72 43.5 151t42.5 146h-117h-30.5t-22.5 -2q-37 0 -37 23q0 47 41 65q23 8 49 11.5t61 5.5h86q70 246 94 313q43 133 54 148q14 16 33.5 28.5t66.5 22.5q12 2 27.5 3t33.5 1q14 0 15 -19l-92 -262q-16 -43 -31.5 -100 t-38.5 -131q70 0 122 1t93 2t77 1h73q57 203 79 264q43 133 54 148q14 23 33.5 32t66.5 19q12 2 28.5 3t32.5 1q14 0 15 -19l-92 -262q-6 -18 -14.5 -42.5t-15.5 -49t-14.5 -48.5t-11.5 -40l101 4q41 4 41 -16q0 -18 -39 -45q-23 -16 -48.5 -26.5t-82.5 -12.5 q-20 -76 -42 -152t-44 -153l133 6q37 2 41 -23q0 -18 -39 -39q-37 -18 -125 -36q-4 0 -13.5 -1.5t-25.5 -1.5q-14 -53 -28.5 -111.5t-28.5 -121.5q-6 -41 -13 -82q-6 -43 -12 -68q-6 -23 -14 -40q-8 -18 -29.5 -45t-58.5 -50q-27 -16 -58 -22q-43 0 -45 28q0 10 5.5 36 t17.5 73q12 45 20 74.5t13 46.5q14 63 31.5 132t37.5 144q-27 -2 -55.5 -3t-61.5 -1q-51 -2 -86.5 -3t-62.5 -1t-49.5 -1t-48.5 -1q-10 -41 -21.5 -85t-21.5 -91q-4 -18 -6.5 -38.5t-6.5 -43.5q-6 -43 -12 -68q-6 -23 -14 -41t-26.5 -40.5t-61.5 -53.5q-14 -10 -28.5 -14 t-29.5 -8q-43 0 -45 28q0 10 5.5 36t17.5 73q12 45 20 74.5t13 46.5q12 51 25.5 106.5t29.5 114.5h-86h-30.5t-22.5 -2q-37 0 -37 22zM354 530q68 0 119 1t93 2.5t78 2.5t75 1q10 41 22.5 83t26.5 85q10 37 19.5 70.5t19.5 64.5q-94 0 -192.5 -4.5t-174.5 -6.5 q-20 -72 -39.5 -143.5t-42.5 -142.5q-2 -4 -2 -6t-2 -7z" />
<glyph unicode="$" horiz-adv-x="1017" d="M-27 141q0 55 35 90t94 52q16 -72 48 -128.5t110 -84.5q111 397 182 647q-61 55 -99 98t-59.5 81t-28.5 71.5t-7 68.5q0 154 109.5 250t291.5 125q12 33 29.5 60.5t46.5 46.5q10 6 26.5 4t34.5 0q10 0 15 -19q-2 -10 -6 -22q-4 -10 -9.5 -28t-9.5 -38q43 -2 83 -12 t71 -25.5t49 -31t18 -27.5q0 -33 -6 -62.5t-14 -44.5q-10 -16 -32.5 -42.5t-49.5 -26.5q0 59 -42 111.5t-103 68.5q-35 -121 -74 -255t-76 -263q84 -70 140.5 -122t89 -97t46 -87t13.5 -89q0 -76 -34 -157t-102.5 -147.5t-170 -109.5t-236.5 -43q-18 -59 -44 -98t-50 -39 q-16 0 -30.5 6t-14.5 22q0 41 10 76q6 18 12 35q-47 4 -92 20.5t-82 41t-59.5 56t-22.5 68.5zM373 45q43 -4 105.5 -1t120.5 31.5t99 92t41 180.5q0 33 -18.5 69t-46 72.5t-61 71.5t-66.5 64q-16 -53 -39 -129t-47.5 -157t-48 -160t-39.5 -134zM399 1118q0 -29 3.5 -51.5 t13.5 -45t29.5 -50t52.5 -64.5q31 106 52 176t35.5 116t24 75.5t15.5 58.5q-102 -10 -164 -66.5t-62 -148.5z" />
<glyph unicode="%" horiz-adv-x="1382" d="M121 1028q0 37 9 69.5t28.5 66.5t53.5 71t83 80q53 47 97 61.5t69 22.5q27 8 56.5 14t51.5 6q59 0 97.5 -50t38.5 -138q0 -66 -30 -133.5t-82 -122.5t-125 -90t-159 -35q-51 0 -87 15.5t-58.5 40t-32.5 56t-10 66.5zM197 8q0 16 30.5 61.5t59.5 90.5q6 8 54 87 t118.5 194.5t154.5 255t162 270.5t141.5 238.5t92.5 160.5q18 33 42.5 58.5t47 40t38 17.5t15.5 -5q0 -37 -26.5 -76t-57.5 -98q-74 -139 -159 -284t-172 -288t-173 -281.5t-159 -265.5q-16 -27 -23.5 -40t-14 -22t-14.5 -18.5t-22 -29.5q-31 -41 -67 -59.5t-56 -18.5 q-12 0 -12 12zM262 1090q0 -29 6 -57.5t19.5 -52.5t34 -39t49.5 -15t63.5 9t65 36.5t51 77t20.5 131.5q0 61 -22.5 100t-52.5 39q-6 0 -19.5 1t-27.5 1q-61 0 -97.5 -30.5t-57 -69.5t-26.5 -78t-6 -53zM637 199q0 72 34 151.5t134 165.5q68 57 132 74.5t128 17.5 q59 0 99 -58.5t40 -146.5q0 -66 -26.5 -134t-76.5 -123.5t-120 -90.5t-156 -35q-51 0 -87 15.5t-58.5 40t-32.5 56.5t-10 67zM778 260q0 -29 6.5 -57.5t19.5 -52t33.5 -39t49.5 -15.5t61.5 15.5t60 48.5t45 79.5t17.5 112.5q0 96 -26.5 134t-67.5 38q-68 0 -107 -25.5 t-59 -64.5t-26.5 -85t-6.5 -89z" />
<glyph unicode="&#x26;" horiz-adv-x="1472" d="M47 244q0 68 26.5 126t68.5 107t91.5 88t95.5 68t81.5 48t48.5 30q-4 27 -8 53q-4 23 -6.5 51.5t-2.5 56.5q0 115 47.5 220.5t118 185.5t155.5 128t161 48q100 0 133 -44t33 -107q0 -53 -30 -110.5t-76 -115t-102.5 -112t-110.5 -99.5t-98 -77.5t-67 -49.5 q14 -61 39 -131.5t53.5 -136t58 -121t54.5 -86.5q80 84 125 148.5t68 111.5q25 53 32 97q-23 0 -35 -1.5t-21 -1.5t-18.5 -1t-21.5 -1q-27 0 -41 -1t-14 26q0 23 15 38t41 23.5t56.5 12.5t61.5 4l143 4q27 0 57.5 2t57 3t46 2t26.5 1q27 0 32.5 1t5.5 -7q0 -37 -22.5 -56.5 t-75.5 -29.5q-31 -6 -77 -9t-74 -5q-14 -25 -45 -70t-74 -101.5t-98.5 -118t-116.5 -120.5q47 -59 112.5 -96t143.5 -37q68 0 116 13.5t81.5 31.5t57 37.5t40.5 34.5q8 6 15 7t15 1q7 0 7 -8q0 -6 -5.5 -18.5t-9.5 -16.5q-25 -23 -60.5 -53.5t-85.5 -58t-117 -46t-153 -18.5 q-59 0 -107 17.5t-84 41t-57.5 45t-27.5 29.5q-10 -6 -41 -28.5t-79 -47.5t-111.5 -45t-137.5 -20q-59 0 -114.5 10t-98.5 38.5t-69.5 80t-26.5 135.5zM188 311q0 -111 60.5 -181.5t157.5 -70.5q90 0 161.5 37t116.5 72q-45 68 -75.5 124t-54.5 110.5t-43 113.5t-42 133 q-33 -23 -81 -49.5t-92 -65t-76 -93t-32 -130.5zM578 913q0 -18 1 -39.5t5 -37.5q4 -23 8 -41q59 43 120.5 91t111.5 104.5t82 121.5t32 141q0 115 -84 115q-70 0 -122 -34t-86 -93t-51 -143t-17 -185z" />
<glyph unicode="'" horiz-adv-x="489" d="M145 1036q0 4 9.5 45t21.5 93.5t22.5 103.5t12.5 74q4 49 44 72.5t97 23.5q29 0 29 -7v-20q0 -10 -7 -32.5t-17.5 -52t-22.5 -61.5t-23 -58q-27 -66 -48 -110t-62 -67q-8 -4 -19.5 -11t-21.5 -7q-14 0 -15 14z" />
<glyph unicode="(" horiz-adv-x="643" d="M72 215q0 256 60.5 471t155.5 381t214 279.5t233 164.5l17 -26q-82 -68 -175.5 -160t-173 -227t-132 -322.5t-52.5 -443.5q0 -86 7 -150.5t20.5 -114t31 -86t35.5 -67.5q-2 -16 -8 -33q-4 -14 -10 -28.5t-16 -24.5q-6 -6 -8.5 -11t-5.5 -9.5t-11 -6.5t-25 -2 q-25 0 -53.5 33t-51 89t-37.5 132t-15 162z" />
<glyph unicode=")" horiz-adv-x="694" d="M-80 -174q82 68 175 160t173 227t132.5 322.5t52.5 443.5q0 86 -7.5 150.5t-20.5 113.5t-30.5 86t-36.5 68q2 16 9 33q4 14 10 28.5t16 24.5q6 6 8 11t5.5 9t11.5 6t24 2q25 0 53.5 -32.5t51 -89t38 -132t15.5 -161.5q0 -256 -60.5 -471t-155.5 -381t-214 -280t-233 -165 z" />
<glyph unicode="*" horiz-adv-x="755" d="M98 967q0 16 48.5 36.5t132.5 69.5q-68 55 -117 110.5t-49 90.5q0 14 8 32.5t20.5 35t28.5 27.5t35 11q20 0 30.5 -16t18.5 -33q18 -35 43 -63.5t53 -55.5q14 78 30.5 146.5t29.5 89.5q8 12 23.5 17t37.5 12q12 4 23.5 6t25.5 2q12 0 13.5 -9.5t-1.5 -17.5 q-12 -41 -24 -84q-10 -37 -22.5 -80t-24.5 -84q41 35 99 79t104 97q12 16 22 33t31 17q10 0 12 -5.5t2 -17.5q0 -43 -31.5 -83t-64.5 -68q-41 -37 -82 -70t-86 -68q70 -45 127 -74.5t80 -48.5q-4 -4 -14.5 -20t-22.5 -34.5t-25.5 -33t-25.5 -14.5q-23 0 -71 23.5t-101 54.5 q-6 -41 -25 -100q-12 -39 -23.5 -49.5t-33.5 -10.5q-23 0 -35 5t-21 12q10 61 19.5 102t19.5 88q-66 -37 -115.5 -59.5t-70.5 -22.5q-31 0 -31 25z" />
<glyph unicode="+" horiz-adv-x="921" d="M57 645q0 31 14.5 47.5t36 23.5t49 9t52.5 2h63q29 0 66 -1t76 -1q14 53 27.5 103.5t21.5 91.5q6 27 12 57.5t18.5 59t32 52t47.5 35.5q16 8 38 10.5t42 2.5q18 0 19 -31q0 -12 -7.5 -34.5t-25.5 -80.5q-14 -43 -23.5 -75.5t-17.5 -55.5q-10 -37 -19.5 -70.5t-17.5 -62.5 h47q27 0 67 2t79 3t67.5 2t34.5 1q27 0 34 -7t7 -15q0 -55 -106 -74q-23 -4 -94.5 -6t-161.5 -4q-10 -39 -19.5 -71t-18 -61.5t-15.5 -58t-13 -63.5q-4 -23 -18.5 -55.5t-65.5 -61.5q-27 -16 -55 -16q-47 0 -47 28q0 12 4 27.5t12 41.5t22.5 69t36.5 110q12 41 29 109 q-49 -2 -92 -2h-76h-72q-14 0 -29.5 -2t-28.5 -1t-22.5 6t-9.5 17z" />
<glyph unicode="," horiz-adv-x="477" d="M-44 -452q1 3 1 14q0 8 14.5 20t36 29.5t45 40t41.5 51.5q25 41 35 88t10 92q0 31 -5 52.5t-12 41t-12.5 41t-5.5 50.5q0 27 15.5 45t32.5 32q31 27 46 35t31 8q29 0 44.5 -28.5t15.5 -122.5q0 -106 -44 -196.5t-100.5 -156t-107.5 -102.5t-66 -37q-16 0 -15 3z" />
<glyph unicode="-" horiz-adv-x="620" d="M45 395q0 31 14.5 47.5t36 23.5t49 9t52.5 2h206q27 0 58 1t57.5 3t46 3t25.5 1q27 0 34 -7t7 -15q0 -12 -16.5 -24.5t-41 -21.5t-53 -17.5t-53.5 -12.5q-27 -4 -82 -6t-111 -4q-65 -2 -139 -2q-14 0 -29.5 -2t-29 -1t-22.5 6t-9 17z" />
<glyph unicode="." horiz-adv-x="501" d="M145 51q4 66 32 102.5t102 36.5q45 0 58 -24.5t9 -71.5q-4 -49 -33.5 -89t-93.5 -40q-43 0 -60.5 17.5t-13.5 68.5z" />
<glyph unicode="/" horiz-adv-x="727" d="M51 -190q0 12 32 91t84 200.5t119.5 274t139.5 311.5t142.5 312.5t128 276.5t97.5 204t50 95q12 6 29.5 11t29.5 5t14.5 -5t0.5 -13l-760 -1700q-14 -33 -43 -58.5t-45 -27.5q-10 0 -14.5 3t-4.5 20z" />
<glyph unicode="0" d="M27 295q0 109 28.5 231.5t84 247.5t136 245t185.5 222q92 92 155.5 128t116.5 40q16 4 35 10q14 4 29.5 8.5t25.5 8.5q18 4 29.5 5t30.5 1q47 0 80.5 -23.5t55 -66.5t32 -101.5t10.5 -126.5q0 -55 -15.5 -139t-45 -181t-73.5 -201.5t-100 -201.5q-133 -229 -276 -333.5 t-281 -104.5q-72 0 -118 26.5t-74.5 71.5t-39.5 105.5t-11 128.5zM195 334q0 -127 44 -192.5t138 -65.5q33 0 77 16.5t90 49t90 80.5t79 112q39 70 72.5 155.5t58 180t38 196t13.5 203.5q0 117 -29.5 181.5t-101.5 64.5q-133 0 -237.5 -98.5t-209.5 -303.5q-29 -57 -52 -141 t-38.5 -170t-23.5 -159.5t-8 -108.5z" />
<glyph unicode="1" d="M326 -25q0 23 15 76t40 154q23 98 60.5 240.5t84.5 299.5q18 68 41 143t45.5 147.5t43 139t36.5 115.5q2 8 -25.5 -4t-63.5 -28.5t-70.5 -32t-45.5 -15.5q-16 0 -19 6.5t-3 14.5q0 10 16.5 23.5t42 28.5t55 31.5t54.5 33.5q10 6 29.5 18t42 24.5t46 24.5t40.5 19 q10 4 33.5 6t64.5 4q14 0 14 -19q0 -2 -9 -28.5t-23.5 -65.5t-31 -84t-28.5 -84q-25 -76 -53.5 -170t-53 -183t-45 -161.5t-30.5 -105.5q-37 -129 -74 -289q-2 -6 -5 -26.5t-7 -46t-8.5 -49t-6.5 -36.5q-4 -12 -11 -29.5t-17 -29.5q-8 -12 -23.5 -27.5t-33 -30t-37 -23.5 t-35.5 -9q-43 0 -45 28z" />
<glyph unicode="2" d="M-23 18q0 23 47.5 80.5t115 127t141 141t129.5 127.5q45 45 113.5 114.5t133 156.5t111.5 185.5t47 200.5q0 70 -18.5 114t-47 69.5t-66.5 35.5t-77 10q-53 0 -109.5 -17t-102.5 -49t-74.5 -77t-28.5 -98q0 -35 -16.5 -36t-32.5 -1q-25 0 -33 12t-8 45q0 43 39 92 t104.5 92t152.5 71t183 28q27 0 77 -5t99 -30t86 -77t37 -146q0 -70 -27.5 -140.5t-75 -141.5t-110.5 -140t-135 -135q-102 -94 -194.5 -183.5t-162 -161t-110.5 -119.5t-41 -57q47 10 112.5 21.5t138 22t146.5 17.5t139 7q66 0 116 -2t67 -6q35 -6 41 -22.5t6 -39.5 t-24.5 -49t-59.5 -53q-18 8 -51 15.5t-72 12.5t-82 8t-82 3q-49 0 -114.5 -7t-124.5 -18q-70 -10 -142 -24q-27 -4 -56.5 -8t-57.5 -4q-27 0 -36.5 11t-9.5 27z" />
<glyph unicode="3" d="M-39 53q0 20 10.5 38t25.5 32t30.5 21.5t27.5 7.5q8 -10 17.5 -24.5t27 -29t48 -23.5t79.5 -9q106 0 199.5 37.5t162 108.5t107.5 171t39 223q0 49 -7 81t-21.5 52.5t-36 33.5t-47.5 28q-12 6 -31 10t-36 7t-28.5 7t-11.5 11q0 8 12.5 21t28.5 28.5t33.5 30t27.5 26.5 q37 39 81 85t86 89t76 79.5t50 61.5q-12 -2 -39.5 -4t-62.5 -4t-76 -4t-80 -2q-94 -4 -204 -4q-14 0 -32 -3t-33 -3t-26.5 4t-11.5 16q0 31 24.5 53.5t60.5 39t74 24.5t62 8h207q27 0 67 1t76.5 3t65.5 3t35 1q27 0 42 -6t15 -32q0 -4 -22.5 -31t-58.5 -67t-81 -86t-89 -92 t-83 -85t-63 -61q117 -27 171 -101.5t54 -214.5q0 -82 -37 -159.5t-91 -144t-112.5 -116t-101.5 -73.5q-76 -43 -137.5 -67.5t-114.5 -38t-99 -16.5t-89 -3q-29 0 -57.5 4t-51 12t-37 19.5t-14.5 25.5z" />
<glyph unicode="4" d="M39 500q0 16 23.5 44.5t39.5 47.5q59 66 129 158t160 219q43 61 81 127.5t66.5 129t46 115t23.5 86.5q8 8 22.5 18.5t31 17.5t33 8.5t32.5 -7.5q-10 -41 -32.5 -90t-51.5 -101t-59.5 -101.5t-53.5 -88.5q-45 -72 -104 -158.5t-113 -162.5q-63 -88 -131 -178q10 2 34 6 t55.5 8t67.5 9t71 9q33 4 69.5 6.5t71.5 6.5q37 4 78 6q29 94 58.5 195.5t56 185.5t46 141t27.5 66q8 8 12.5 14t9.5 10t14 9.5t26 11.5q10 4 23 8t54 6q14 0 15 -18q0 -4 -22.5 -55.5t-49.5 -129.5q-39 -117 -76 -231.5t-63 -206.5q35 0 54.5 -5t19.5 -32q0 -39 -15.5 -54 t-32.5 -15h-18t-20 2q-12 0 -25 2q-12 -49 -36.5 -117t-41.5 -135q-10 -41 -20.5 -90.5t-14.5 -77.5q-2 -12 -5 -40t-13 -42t-27.5 -27.5t-34.5 -21.5q-16 -8 -26 -14.5t-27 -6.5q-43 0 -45 29q0 23 18.5 83t41.5 142q12 43 20 72t18.5 59.5t23.5 71.5t34 111 q-41 -2 -97.5 -8.5t-121.5 -14.5q-43 -6 -85 -13l-81 -13.5t-71 -11.5t-52 -5q-16 0 -28.5 5t-12.5 26z" />
<glyph unicode="5" d="M-68 29q0 18 10.5 32.5t24 25.5t26.5 18.5t21 9.5q23 -31 44.5 -47.5t45 -24.5t49 -9t56.5 -1q94 0 185 44t162 115.5t115 161.5t44 183q0 49 -16.5 95t-48.5 82t-77 56.5t-102 20.5q-27 0 -44 -3.5t-36 -7.5q-16 -18 -36.5 -27.5t-35.5 -9.5q-41 0 -40 23q0 16 5 28.5 t9 28.5q4 12 12 40t19.5 66t23.5 82t25 89q29 102 63 227q-4 20 5.5 35.5t25.5 21.5q14 6 26.5 9.5t36.5 5.5q154 10 297.5 12t247.5 2q12 0 26.5 -5t14.5 -17t-18.5 -38t-40.5 -48q-43 -39 -70 -39q-16 0 -26.5 10t-38.5 10q-18 0 -68.5 5t-99.5 5q-35 0 -76 -2t-78 -4 q-43 -4 -88 -6l-102 -395q27 4 50 9t64 5q59 0 123 -12t116 -46t86 -92.5t34 -150.5q0 -129 -57.5 -231.5t-146.5 -180t-194.5 -128t-203.5 -74.5q-78 -16 -189 -21q-31 0 -58.5 3t-51.5 14q-49 18 -50 45z" />
<glyph unicode="6" horiz-adv-x="1120" d="M49 313q0 100 25.5 228.5t107.5 277.5q80 147 193.5 256t241.5 184.5t262.5 120.5t257.5 66q8 2 16 0q16 -4 16 -29q0 -12 -12 -20q-6 -4 -12 -4q-12 0 -75.5 -10.5t-151 -41t-188.5 -85t-189 -144.5q-86 -86 -148.5 -166t-103.5 -162t-60.5 -169t-19.5 -189 q0 -66 11 -128t39 -112.5t73 -81t110 -30.5q66 0 130.5 28.5t116.5 86t84 142.5t32 197q0 78 -23.5 129.5t-57.5 81t-73 41t-69 11.5q-20 0 -52 -3.5t-70 -14.5t-79 -32.5t-78 -58.5l-8 35q43 49 95 83t104.5 54t100.5 29.5t85 9.5q55 0 106.5 -16.5t89 -52.5t60 -91 t22.5 -131q0 -125 -64.5 -240.5t-159.5 -203.5t-201.5 -141.5t-192.5 -53.5q-154 0 -222.5 96.5t-68.5 253.5z" />
<glyph unicode="7" d="M152 41q0 106 114 299q74 123 160 246q29 41 66.5 89t78.5 103q53 72 105.5 144.5t95.5 138t71 118t34 83.5q-23 -4 -91.5 -8.5t-185.5 -8.5q-39 -2 -94 -2t-131 -4q-23 -2 -38 -3t-30 -1q-35 0 -35 18q0 20 18.5 45t59.5 43q76 37 144 37h73q31 0 67 -1t66 1 q86 2 143.5 3t100.5 5q12 2 23.5 2.5t17.5 0.5q25 0 27 -21q0 -94 -70 -213q-53 -88 -146.5 -191.5t-191.5 -228.5q-55 -72 -101 -134t-85 -118q-72 -109 -101 -186q-23 -70 -26 -158q0 -31 16 -41t17 -24q0 -23 -45 -60q-45 -35 -70 -34q-23 0 -40 13t-17 48z" />
<glyph unicode="8" horiz-adv-x="1120" d="M20 254q0 92 42 168t110 137.5t152 110.5t168 88q-23 12 -57 40.5t-64.5 67.5t-53 87t-22.5 104q0 98 43 166.5t109.5 112.5t147.5 64.5t159 24.5q150 8 243 -43.5t93 -164.5q0 -66 -24 -123.5t-60.5 -103.5t-81.5 -82t-88 -63.5t-77 -44t-50 -24.5q25 -20 63.5 -52 t75.5 -75t63.5 -95t26.5 -112q0 -123 -51 -217t-132 -156.5t-179.5 -94t-192.5 -31.5q-72 0 -137.5 18.5t-115.5 57t-80 97t-30 138.5zM184 303q0 -94 34 -149.5t82 -83t97 -34.5t80 -7q70 0 129.5 23.5t104.5 66.5t70.5 103.5t25.5 133.5q0 61 -34 121t-78 108t-87 82 t-61 44q-102 -43 -182 -103q-68 -51 -124.5 -126.5t-56.5 -178.5zM442 1147q0 -72 21.5 -123t53.5 -90t69 -66.5t65 -52.5q139 68 218 153t79 208q0 35 -11 68.5t-35.5 59t-63.5 41t-97 15.5q-55 0 -108 -14.5t-96 -41t-69 -66.5t-26 -91z" />
<glyph unicode="9" horiz-adv-x="1120" d="M6 6q0 12 12 21q6 4 13 4q12 0 78.5 14t156.5 50t193.5 94.5t189.5 148.5q117 121 185.5 229.5t103.5 225.5q-57 -66 -119.5 -109t-121 -67.5t-108.5 -35t-83 -10.5q-55 0 -106.5 16.5t-89.5 52.5t-60.5 90t-22.5 132q0 135 67.5 240.5t164 178.5t202 112t181.5 39 t131 -27t90 -71t51 -100t16 -114q0 -29 -2 -75t-12 -106t-32.5 -130t-63.5 -145q-88 -160 -206 -280t-250 -204t-267 -133t-258 -70q-8 -2 -16 0q-16 4 -17 29zM381 936q0 -78 23.5 -129t57.5 -81t72.5 -41t69.5 -11q37 0 75 7t80 27.5t89 57.5t106 96q16 88 17 176 q0 63 -12.5 122t-40 103t-70.5 69.5t-105 25.5q-41 0 -102 -23.5t-118.5 -75t-99.5 -131t-42 -192.5z" />
<glyph unicode=":" horiz-adv-x="477" d="M104 51q4 66 32 102.5t102 36.5q45 0 58 -24.5t9 -71.5q-4 -49 -33.5 -89t-93.5 -40q-43 0 -60.5 17.5t-13.5 68.5zM215 760q4 66 31.5 102.5t101.5 36.5q45 0 58.5 -24.5t9.5 -71.5q-4 -49 -34 -89t-93 -40q-43 0 -60.5 17.5t-13.5 68.5z" />
<glyph unicode=";" horiz-adv-x="477" d="M-44 -452q1 3 1 14q0 8 14.5 20t36 29.5t45 40t41.5 51.5q25 41 35 88t10 92q0 31 -5 52.5t-12 41t-12.5 41t-5.5 50.5q0 27 15.5 45t32.5 32q31 27 46 35t31 8q29 0 44.5 -28.5t15.5 -122.5q0 -106 -44 -196.5t-100.5 -156t-107.5 -102.5t-66 -37q-16 0 -15 3zM215 760 q4 66 32 102.5t102 36.5q45 0 58 -24.5t9 -71.5q-4 -49 -33.5 -89t-93.5 -40q-43 0 -60.5 17.5t-13.5 68.5z" />
<glyph unicode="&#x3c;" horiz-adv-x="1050" d="M100 631l789 571q10 6 17 10.5t22 4.5q20 0 20 -31q0 -18 -23.5 -33.5t-45.5 -32.5l-633 -465q102 -78 200 -153q84 -66 181.5 -135.5t179.5 -116.5q-16 -29 -28.5 -59.5t-45.5 -30.5q-8 0 -38.5 20.5t-77 53t-102.5 74.5t-114 87q-135 102 -301 236z" />
<glyph unicode="=" horiz-adv-x="921" d="M100 645q0 47 41 66q45 16 111 16h317q49 0 93.5 4t93.5 4q12 0 25.5 -5t15.5 -17q0 -55 -107 -74q-23 -4 -72 -6t-126 -4q-76 -2 -151 -1t-151 -3h-30.5t-22.5 -2q-37 0 -37 22zM145 358q0 47 41 66q45 16 111 16h248q70 0 111.5 4.5t74.5 4.5q12 0 25.5 -5.5 t15.5 -17.5q0 -18 -39 -39q-18 -10 -46 -18.5t-79 -18.5q-18 -4 -56 -6t-97 -2t-109.5 -1t-109.5 -3q-18 0 -30.5 -1t-23.5 -1q-37 0 -37 22z" />
<glyph unicode="&#x3e;" horiz-adv-x="1005" d="M100 190q0 18 23.5 34t46.5 32l633 465q-102 78 -201 153q-43 33 -89 67t-93 66.5t-93 63t-85 55.5q8 14 14 31t14.5 30t18.5 21.5t26 8.5q6 0 38 -20.5t78 -53.5t102.5 -76t113.5 -86q135 -104 301 -236l-788 -571q-10 -6 -17.5 -10t-21.5 -4q-20 0 -21 30z" />
<glyph unicode="?" horiz-adv-x="968" d="M137 51q4 66 32 102.5t101 36.5q45 0 58.5 -24.5t9.5 -71.5q-4 -49 -34 -89t-93 -40q-43 0 -60.5 17.5t-13.5 68.5zM182 1098q0 41 32 98t91.5 110.5t143 91.5t188.5 38q43 0 91 -6.5t87 -29t64.5 -69.5t25.5 -127q0 -68 -30.5 -134t-78.5 -133t-109 -131.5t-122 -125.5 q-104 -109 -144 -172.5t-40 -104.5q0 -12 -12.5 -26.5t-29.5 -26.5t-36.5 -20t-32.5 -8q-10 0 -12 6t-2 16q2 23 10 45.5t30.5 56t64.5 84t110 129.5q43 49 89 100.5t84 108t63.5 122t25.5 145.5q0 129 -40 184t-109 55q-61 0 -117.5 -17.5t-99.5 -53t-69 -92t-26 -134.5 q0 -35 -16 -36t-33 -1q-25 0 -33 12.5t-8 45.5z" />
<glyph unicode="@" horiz-adv-x="1818" d="M84 362q0 248 85 456t230.5 359.5t338 236.5t405.5 85q147 0 268 -40t208 -114.5t135 -179t48 -233.5q0 -127 -38 -246t-105.5 -222.5t-158.5 -186t-197 -138.5q-47 -25 -90.5 -37t-86.5 -12q-53 0 -72.5 45t-19.5 96q0 12 5 64.5t24 132.5q-111 -166 -207 -248t-164 -82 q-59 0 -89 42t-30 118q0 43 12.5 96.5t36 110.5t60.5 114.5t86 110.5q178 188 360 215q6 0 21.5 2t34 5t38 6.5t33.5 3.5q16 0 33 -5.5t17 -15.5q0 -16 -19 -35q-16 -12 -43 -12q-4 0 -19.5 1t-31.5 2t-31.5 2t-21.5 3q-41 0 -80 -18q-29 -12 -65 -39t-72.5 -65t-71.5 -88 t-59 -111q-55 -129 -56 -238q0 -100 45 -100q23 0 73 39t128 145q72 94 115 188q10 27 21 62t28 78q25 61 50.5 84.5t47.5 27.5q10 2 21.5 3t25.5 1q16 0 17 -14q0 -6 -7.5 -29.5t-18.5 -57.5t-23.5 -75t-24.5 -86q-8 -33 -18.5 -80t-19.5 -94t-15 -89t-6 -66 q0 -23 11 -43.5t38 -20.5q74 0 158.5 62.5t157.5 164t121 231.5t48 265t-44 239.5t-119 177.5t-174 109.5t-210 36.5q-184 0 -356 -79.5t-305 -230.5t-214 -365t-81 -482q0 -152 49 -276.5t134 -216t196.5 -141.5t236.5 -50q115 0 228.5 37t215 98.5t185.5 140t139 160.5 q18 23 37 27q20 0 23 -29q0 -18 -19 -39q-88 -102 -177 -185t-190.5 -140.5t-221 -88t-271.5 -30.5q-139 0 -263 52t-218 152.5t-149.5 248t-55.5 337.5z" />
<glyph unicode="A" horiz-adv-x="1132" d="M-6 34q0 69 78 253q35 78 69.5 149.5t71.5 136.5q-23 -8 -44.5 -16t-39.5 -8t-18 29q0 25 20 36q10 8 31.5 14.5t54.5 16.5l49 14q63 94 127 183.5t139 175.5q74 84 137.5 148.5t118.5 111.5q51 41 106.5 79t80.5 46q31 10 50 14t60 4q39 0 39 -32q0 -20 -1 -31t-1 -21 q0 -16 -22.5 -99t-67.5 -245q-31 -109 -48 -175t-26 -95l48 2q18 0 18 -8q0 -16 -20 -37q-16 -16 -62 -21q-43 -182 -68 -319q-10 -68 -15 -117t-7 -80q0 -33 -8 -49q-6 -10 -20.5 -28.5t-34 -37t-44 -31.5t-49.5 -13q-16 0 -25 11t-9 28q0 29 8 69.5t24 112.5q14 63 41 181 t58 265q-117 0 -240 -16.5t-219 -38.5q-25 -47 -45.5 -90t-36.5 -84q-14 -35 -30.5 -82t-30 -98.5t-22.5 -99.5t-9 -87q-16 -35 -53 -61.5t-62 -26.5q-21 -1 -35 11q-16 12 -16 56zM379 676q61 10 136 19.5t140 15.5q78 8 156 10q16 55 36.5 133t47.5 182q23 90 33 142.5 t12 68.5q0 16 -5 20.5t-28 4.5q-14 0 -46 -21.5t-75 -61.5t-95 -96.5t-107 -123.5q-117 -141 -205 -293z" />
<glyph unicode="B" horiz-adv-x="1048" d="M31 4q0 18 3 36.5t19 74.5l137 501q6 25 40 143t98 335q41 141 61 235h-15t-18 2q-14 2 -16 23q0 23 41 37q25 8 61.5 16t80.5 14t92.5 10.5t95.5 4.5q160 0 246.5 -55.5t86.5 -176.5q0 -129 -78 -220t-225 -165q98 -23 152.5 -88t56.5 -166v-5q0 -157 -119 -298 q-88 -102 -210.5 -162.5t-235.5 -85.5q-53 -10 -103.5 -15t-101.5 -7q-12 0 -29.5 -1t-35 -3t-32.5 -3t-22 -1q-10 0 -20 2t-10 18zM209 70q39 -4 94 -4t94 10q39 8 83 26.5t87 46t81 61.5t65 73q73 110 73 250q0 106 -70.5 159t-183.5 58q-18 0 -30.5 -1t-22.5 -1 q-37 0 -39 26q0 16 15 23q14 6 45 6h30q27 0 68 10q49 14 101.5 43t95.5 72t70.5 101t27.5 130q0 100 -56.5 156.5t-164.5 56.5q-35 0 -61.5 -2t-55.5 -8q-10 -29 -35.5 -119t-73.5 -268l-188 -705q-14 -51 -28.5 -106t-20.5 -94z" />
<glyph unicode="C" horiz-adv-x="1028" d="M68 315q0 33 4 79t13 100.5t23.5 112t34.5 112.5q80 221 198 378.5t269 254.5q135 86 250 86q33 0 63.5 -4t51.5 -21q10 -10 16 -34.5t6 -51.5q0 -45 -6 -85t-24 -64q-10 -14 -27.5 -27.5t-54.5 -26.5q-25 -8 -56 -8q-12 0 -14 14q10 29 19.5 63t9.5 73q0 57 -84 57 q-92 0 -188.5 -71.5t-173 -193.5t-126 -283t-49.5 -339q0 -172 76 -269t219 -97q53 0 121 24.5t133 61.5q31 18 43 18q14 0 12 -31q0 -16 -82 -69q-78 -51 -160.5 -83t-197.5 -32q-145 0 -232 94t-87 262z" />
<glyph unicode="D" horiz-adv-x="1271" d="M66 -12q0 27 14 89t35.5 142t48 169t49.5 171q29 100 57.5 199.5t54 188.5t47 162t34.5 120q6 25 11 48t3 36q-37 25 -37 51q0 37 149 68q94 18 201 18q250 0 379 -95t129 -308q0 -139 -36 -280.5t-106.5 -271.5t-175 -241t-241.5 -188q-188 -109 -365 -109q-55 0 -96 4 t-59 10q-6 -4 -19.5 -8t-31.5 -4q-45 0 -45 29zM262 72q23 -6 40 -9.5t35.5 -6.5t43.5 -4t61 -1q119 0 252 94q190 133 282.5 345t92.5 468q0 111 -23.5 190t-66.5 128t-103.5 72.5t-134.5 23.5q-88 0 -123 -14q-12 -33 -18 -48.5t-11 -31.5t-13.5 -43t-24.5 -80 q-45 -150 -90 -307.5t-92 -333.5q-47 -174 -72 -284.5t-35 -157.5z" />
<glyph unicode="E" horiz-adv-x="942" d="M55 -25q0 33 18.5 93.5t37.5 136.5q6 27 25.5 100.5t43 157.5t44 158.5t26.5 101.5h-25q-43 0 -43 22q0 37 25 54q23 10 67 14q20 68 37 116t30 90t26.5 85t29.5 100q4 18 12.5 50t12.5 55h-24.5t-28.5 2q-27 2 -29 22q0 18 41 37q20 10 44 16.5t52 12.5q57 10 103 12 q23 2 55.5 3t75.5 1q37 1 68 1h30h27q26 0 47 1q47 2 77.5 6t59.5 4q12 0 26.5 -5t14.5 -17q0 -18 -39 -39q-27 -14 -80 -28.5t-123 -14.5h-76q-18 0 -43.5 -2t-48.5 -4q-27 -2 -55 -4l-49 -170l-103 -328h93l186 7q37 2 41 -21q0 -18 -47 -37q-23 -10 -45.5 -15.5 t-61.5 -11.5q-31 -4 -78 -6t-112 -4q-27 -88 -49 -172q-20 -72 -42 -154t-36 -147q-8 -35 -11 -75t-16 -83q-2 -6 -4 -13t-4 -13l-6 -13h264l186 9q41 4 41 -23q0 -14 -40.5 -36.5t-122.5 -39.5q-18 -4 -58.5 -5t-101.5 -3h-117.5t-116.5 -4h-31.5t-31.5 -2l-12 -4 q-12 -4 -21 -4q-35 0 -35 30z" />
<glyph unicode="F" horiz-adv-x="788" d="M55 -25q0 18 7.5 51t16.5 67t18 64.5t14 47.5q10 35 21 76t27.5 99t37 138t49.5 193h-25q-43 0 -43 22q0 39 27 60q27 16 69 20l123 401q4 10 12.5 41t12.5 54h-24.5t-28.5 2q-27 2 -29 22q0 18 41 37q39 18 93 27.5t106 13.5q23 2 55.5 3t75.5 1q37 1 68 1h30h27 q26 0 47 1q47 2 79.5 6t57.5 4q12 0 26.5 -5t14.5 -17q0 -18 -39 -39q-27 -14 -80 -28.5t-123 -14.5h-76q-16 0 -41.5 -2t-48.5 -4q-29 -2 -57 -4q-10 -27 -18 -56q-8 -25 -16.5 -53t-14.5 -51q-16 -51 -33.5 -109.5t-34.5 -109.5q-18 -59 -35 -119h93l186 8q37 2 41 -22 q0 -18 -39 -39q-37 -18 -125 -37q-29 -4 -74 -6t-110 -4l-49 -172q-18 -66 -37 -135.5t-37 -153.5q-8 -35 -13.5 -79t-11.5 -71q-4 -18 -10 -34.5t-20 -32.5q-10 -12 -26.5 -27.5t-35 -29t-39 -23.5t-37.5 -10q-45 0 -45 28z" />
<glyph unicode="G" horiz-adv-x="1091" d="M68 315q0 127 33.5 258.5t94 256t140.5 234.5t173 191.5t194.5 131t201.5 51.5h33.5t32.5 -4q27 0 49 -21q22 -17 22 -80v-6q0 -43 -11 -80t-23 -55q-6 -14 -31 -31q-41 -29 -63.5 -37t-39.5 -8q-12 0 -14 14q10 29 19.5 67t9.5 69t-27.5 44t-56.5 13q-76 0 -147.5 -37 t-137 -101.5t-120 -150.5t-93.5 -184t-61.5 -204.5t-22.5 -209.5q0 -170 68.5 -268t226.5 -98q90 0 160 28.5t92 57.5l84 366q-39 -4 -84 -6t-113 -6q-78 -4 -112.5 -11t-50.5 1q0 25 49 59q45 29 114 41h174h181l-113 -405q-6 -18 -49 -58.5t-111.5 -79.5t-160 -68.5 t-191.5 -29.5q-145 0 -232 94t-87 262z" />
<glyph unicode="H" horiz-adv-x="1204" d="M55 -25q0 35 51 242q10 41 27 106.5t43 159.5q8 31 19.5 73t27.5 97l-133 -26q-18 0 -20 24q0 20 11 37t46 31q23 10 61.5 18t67.5 13l141 475q6 23 14.5 48t16.5 46q23 63 52.5 85.5t70.5 33.5q18 4 33.5 5t33.5 1q14 0 15 -19q0 -10 -21.5 -73.5t-64.5 -194.5 q-16 -47 -34.5 -104.5t-35 -111.5t-30 -98t-17.5 -65q23 2 76 5t117.5 6.5t131 6.5t113.5 7q25 84 50 164q23 68 45 141.5t41 126.5q27 78 50 114.5t38 45.5q49 27 88 30q20 2 39 0q6 0 10 -3t4 -15q0 -8 -11.5 -36t-26.5 -63.5t-31.5 -76.5t-28.5 -76q-18 -53 -38 -113.5 t-36 -111.5q-20 -61 -37 -119h20q10 0 18.5 1t18.5 1q8 0 16.5 -3t8.5 -13q0 -39 -37 -56q-23 -10 -43 -12q-12 -2 -25 -2q-18 -68 -32.5 -132.5t-28.5 -129.5q-4 -23 -15.5 -88.5t-21.5 -153.5q-2 -25 -3 -39t-3 -23t-4 -17.5t-6 -22.5q-6 -20 -15.5 -33.5t-25.5 -32.5 q-29 -29 -47.5 -43t-40.5 -14q-4 0 -10.5 1t-11.5 10t-8 29.5t-3 57.5q0 14 5 52t13.5 90.5t20.5 115t27 127.5q6 31 16 73t20 79l23 90q-47 -4 -109.5 -7t-125 -7t-119 -8.5t-93.5 -10.5q-10 -31 -24 -78t-29.5 -105t-32 -123t-30.5 -128q-6 -23 -11.5 -50.5t-9.5 -51.5 q-6 -29 -8 -58q-2 -20 -18 -41q-14 -18 -32 -36.5t-46 -41.5q-18 -16 -38 -24t-30 -8q-18 0 -28.5 6t-10.5 24z" />
<glyph unicode="I" horiz-adv-x="671" d="M55 -25q0 8 7.5 39t16.5 68t18 71.5t14 51.5q29 115 64.5 249t80.5 291q25 88 53.5 184.5t54 179.5t43 141.5t21.5 68.5q14 37 28.5 58.5t29 33.5t30.5 17.5t35 9.5q18 4 33.5 5t33.5 1q14 0 15 -19q0 -10 -24.5 -70.5t-67.5 -191.5q-16 -47 -37 -115.5t-44.5 -151.5 t-50 -173t-51.5 -180q-18 -66 -37.5 -141.5t-35.5 -147.5q-10 -45 -13.5 -77t-7.5 -54q-6 -39 -18 -60q-6 -10 -23.5 -29.5t-40 -39t-45 -33.5t-37.5 -14q-14 0 -29.5 3t-15.5 25z" />
<glyph unicode="J" horiz-adv-x="671" d="M-123 -117q0 18 18.5 30.5t48 39.5t67.5 81t77 156q23 61 62.5 196.5t105.5 358.5l141 480q18 61 35 99t34 60.5t37.5 35t47.5 18.5q18 4 38.5 5t37.5 1q14 0 14 -19q0 -10 -24.5 -71.5t-67.5 -190.5q-16 -47 -25.5 -75.5t-15.5 -50t-12.5 -43t-16.5 -52.5 q-10 -29 -29.5 -103.5t-54.5 -191.5q-45 -147 -78.5 -244.5t-61.5 -162t-53.5 -105.5t-54.5 -76q-23 -27 -57.5 -59.5t-71 -61t-69.5 -48t-51 -19.5q-20 0 -21 12z" />
<glyph unicode="K" horiz-adv-x="1089" d="M12 18q0 6 3 21.5t14 44.5q35 104 65.5 194.5t60 180.5t61.5 190.5t73 224.5q37 115 65.5 219.5t51.5 180.5q8 29 12 56.5t8 37.5q8 25 31.5 41t51.5 26.5t55.5 14.5t45.5 4t19 -18q0 -12 -56 -172l-155 -463q92 111 232.5 261t332.5 310q35 29 69.5 42t63.5 13 q62 0 62 -102q0 -12 -2 -28.5t-13 -41.5q-6 -16 -17 -32.5t-34 -28.5q-31 -18 -61 -23q4 12 6 25.5t2 30.5q0 29 -10.5 37t-36.5 8q-29 0 -95.5 -41t-146.5 -125q-57 -57 -113.5 -116.5t-95.5 -112.5q33 -98 64.5 -187.5t70.5 -185.5q29 -74 51.5 -127t43 -99.5t41 -89.5 t49.5 -94q18 -33 37.5 -54.5t35.5 -35.5q-10 -20 -37.5 -29.5t-58.5 -9.5q-55 0 -93 32t-77 109q-14 27 -24.5 52.5t-21.5 53.5t-24.5 62.5t-31.5 81.5q-16 37 -38 93.5t-45.5 117t-47 116.5t-41.5 93q-33 -104 -66 -207q-29 -88 -60.5 -188t-58.5 -186q-25 -82 -50 -126 t-48 -55q-29 -12 -48.5 -18t-39.5 -6q-31 0 -31 28z" />
<glyph unicode="L" horiz-adv-x="790" d="M55 -25q0 16 5.5 43t13.5 57.5t17 64.5t20 65l286 991q16 57 32.5 97t39.5 65q16 20 38.5 38.5t45.5 28.5q37 18 74 19q14 0 14 -19q0 -6 -10 -33.5t-24.5 -65.5t-30 -81t-27.5 -82q-25 -78 -53.5 -173t-54 -185t-46 -161.5t-28.5 -100.5q-29 -106 -47.5 -183t-31 -133.5 t-21.5 -96.5t-19 -73h268q41 0 68.5 1t47 3t36 3.5t34.5 1.5q14 0 27.5 -3.5t13.5 -19.5q0 -23 -36.5 -40t-126.5 -36q-18 -4 -58.5 -5t-101.5 -3q-59 0 -119.5 -1t-114.5 -3h-31.5t-31.5 -2q-6 -2 -14 -4q-16 -4 -25 -4q-29 0 -29 30z" />
<glyph unicode="M" horiz-adv-x="1732" d="M25 20q0 49 18 119t59 162q47 111 112 227.5t167 270.5q41 61 99.5 138t122 155.5t123.5 150.5t105 123q35 29 62 41t63 29q10 4 16.5 3t26.5 1q18 0 19 -21q0 -10 -6 -32.5t-16.5 -64.5t-26 -104.5t-35.5 -152.5q-25 -113 -51.5 -241t-48 -244.5t-38 -210t-22.5 -136.5 q18 20 47 61.5t60.5 86.5t61.5 87t46 67q96 139 163 237t117 172t88 133.5t77 120.5q45 74 71.5 114t42 61.5t25.5 28.5t24 17q27 16 64 22.5t63 6.5q18 0 23.5 -5.5t5.5 -15.5q0 -8 -4 -18t-13.5 -30.5t-22.5 -57.5t-32 -96q-23 -72 -41 -142.5t-38 -142.5t-42 -163 t-41.5 -177t-34 -156.5t-18.5 -99.5q-8 -49 -12 -87t-4 -60q0 -12 3 -25.5t3 -24.5q0 -27 -16 -51q-16 -23 -38 -45t-44.5 -39.5t-43 -28t-34.5 -10.5q-37 0 -37 39q0 29 2 54.5t8.5 61.5t15.5 87t25 131q10 51 31 144.5t46.5 200t52 212t46.5 182.5l-10 9q-37 -53 -89 -131 t-117.5 -173.5t-142.5 -207t-163 -234.5q-43 -61 -81 -118.5t-71.5 -106.5t-59 -85t-44.5 -52q-23 -23 -38 -29t-44 -6q-10 0 -19 12t-9 37q0 27 3 68t9 86q2 18 16.5 90.5t35 176t46 225.5t50 240t47 217t36.5 159q-33 -31 -82 -88.5t-104 -130t-111.5 -154.5t-101.5 -160 q-53 -90 -94 -185t-74 -196q-29 -88 -42 -158.5t-15 -123.5q-8 -10 -25.5 -31t-39 -40.5t-44 -33.5t-39.5 -14q-12 0 -20 19.5t-8 53.5z" />
<glyph unicode="N" horiz-adv-x="1169" d="M18 8q5 31 13 66q43 190 76.5 333.5t66.5 272.5t65.5 258t69.5 287q6 23 13.5 49t14.5 50t12 41t9 21q16 20 44 39t61 19q23 0 39 -4t26 -35q10 -33 12.5 -56.5t10.5 -56.5q6 -31 20.5 -97.5t36.5 -170.5q37 -172 60.5 -285.5t39 -188.5t24.5 -119t16.5 -72.5t12.5 -53 t15 -59.5q43 188 84 368q18 76 36.5 159t36 163t34 155.5t30.5 137.5q4 20 9.5 44.5t10.5 48.5t10 41t9 23q12 23 41 40.5t82 17.5q12 0 12 -19l-77 -262q-12 -39 -29.5 -105.5t-38 -149.5t-43 -177t-45.5 -188q-10 -43 -20.5 -93.5t-20.5 -93.5l-20 -102q-8 -49 -17 -88 q-6 -35 -13 -65.5t-11 -39.5q-4 -6 -18.5 -25.5t-33 -39t-38 -34.5t-33.5 -15q-25 0 -39.5 22.5t-30.5 69.5q-10 27 -24.5 89t-33 142t-38 169t-35.5 173q-29 143 -55.5 287t-53.5 285q-6 -18 -21 -73.5t-37.5 -139.5t-49.5 -193.5t-53 -234.5q-23 -109 -38.5 -192 t-25.5 -140q-12 -68 -20 -115q-4 -14 -7.5 -25.5t-7.5 -21.5t-12 -20.5t-22 -22.5q-10 -6 -33 -17.5t-49 -11.5q-14 0 -9 31z" />
<glyph unicode="O" horiz-adv-x="1357" d="M90 268q0 86 23.5 180.5t66.5 191.5t100.5 192.5t125.5 183.5q37 49 81.5 98t93 93t97.5 82t96 65q43 25 81 36t65 11q47 23 79.5 30t79.5 7q51 0 93 -23.5t73 -66.5t47.5 -102.5t16.5 -129.5v-5q0 -326 -248 -708q-66 -100 -141.5 -181t-158.5 -138t-171 -89t-174 -32 q-154 0 -239 75t-87 230zM279 334q0 -115 55 -186.5t188 -71.5q47 0 99.5 18.5t104.5 52t101.5 80.5t92.5 107q47 68 84.5 149.5t63.5 173t39 188.5t13 193q0 127 -46 197t-124 72h-11q-304 0 -523 -451q-61 -129 -99 -267t-38 -255z" />
<glyph unicode="P" horiz-adv-x="1073" d="M18 -12q0 10 2.5 23.5t8.5 35.5q18 68 41.5 156t52.5 186q29 102 50.5 177t43 148.5t48 162t63.5 217.5q20 66 35.5 126t25.5 109h-15t-18 2q-14 2 -16 23q0 23 41 37q23 8 70 16t97 14t96 10.5t67 4.5q174 0 256 -66.5t82 -226.5q0 -72 -33 -151t-92 -142 q-86 -92 -197 -142.5t-221 -50.5h-38t-30 5q-18 6 -18 34q0 27 45 27q10 0 23.5 -1t29.5 -1q63 0 131 21.5t123 67.5t90 117.5t35 170.5q0 135 -55.5 204.5t-169.5 69.5q-72 0 -117 -10l-5 -17.5t-9.5 -33t-30 -104t-64.5 -232.5q-41 -145 -71.5 -260t-52.5 -201 q-23 -86 -38.5 -146.5t-25.5 -97.5q-14 -57 -16.5 -89.5t-12.5 -71.5q0 -14 -18 -41q-10 -16 -30.5 -35t-42 -35t-42 -27.5t-33.5 -11.5q-43 0 -45 29z" />
<glyph unicode="Q" horiz-adv-x="1267" d="M59 274q0 104 34 228.5t95.5 250.5t148.5 246.5t195 221.5q39 37 82 68.5t86 55t84 37t76 13.5q35 14 73 25.5t99 11.5q92 0 143.5 -84t51.5 -230q0 -86 -13.5 -174t-42.5 -180q-35 -106 -86 -209.5t-115.5 -197t-140 -170.5t-155.5 -128q35 -43 63.5 -85t63.5 -83 q39 -47 71.5 -80.5t61.5 -56.5q-10 -18 -30.5 -29.5t-67.5 -11.5q-33 0 -73 24.5t-85 82.5q-29 37 -60.5 84t-64.5 94q-94 -35 -184 -35h-8q-301 0 -302 311zM231 334q0 -127 59 -198q57 -66 152 -66h11l47 2q-14 23 -24.5 33t-24.5 22q12 29 104 29q16 0 36.5 -10.5 t39.5 -28.5q123 55 211 191t149 333q33 104 49.5 202.5t16.5 194.5v13q0 135 -39 196q-41 64 -131 64q-84 0 -153.5 -33t-139.5 -94q-66 -57 -131.5 -151.5t-116.5 -209t-83 -240.5t-32 -249z" />
<glyph unicode="R" horiz-adv-x="1073" d="M18 -12q0 35 14.5 86t30.5 110q12 43 20.5 72t19 64.5t24.5 87t40 137.5t64.5 218t96.5 331q41 141 61 235h-15t-18 2q-14 2 -16 23q0 23 41 37q25 8 61.5 16t80.5 14t92.5 10.5t95.5 4.5q182 0 264 -65t82 -200q0 -72 -26.5 -141t-76.5 -129q-78 -90 -165 -134t-191 -67 q12 -41 34.5 -108.5t55.5 -142.5q49 -113 88 -192t70 -134t55.5 -91t42.5 -63q0 -8 -12 -17t-31 -9q-27 0 -51.5 6t-51 23.5t-54 49t-60.5 80.5q-16 23 -42 73t-55.5 114.5t-62 140.5t-59.5 152q-45 121 -45 147q0 16 11 21.5t34 5.5q18 0 27.5 -1t25.5 -1t53 4t81 18.5 t92.5 43t84.5 77.5q68 88 68 201q0 274 -225 274q-27 0 -58.5 -2t-58.5 -8l-5 -17.5t-9.5 -33t-30 -104t-64.5 -232.5q-39 -143 -69.5 -255t-53 -197t-39 -147.5t-26.5 -105.5q-2 -10 -5 -29.5t-7 -42t-8.5 -45t-6.5 -36.5q-4 -27 -20 -49q-10 -16 -28.5 -35t-39 -35 t-42 -27.5t-38.5 -11.5q-45 0 -45 29z" />
<glyph unicode="S" horiz-adv-x="1017" d="M-27 141v6q0 59 40 103q42 46 114 47q0 -53 11.5 -99t40 -80t79.5 -53.5t129 -19.5q94 0 160.5 28.5t109.5 72.5t62.5 97.5t19.5 104.5q0 53 -30.5 108.5t-92.5 106.5q-117 98 -189.5 165t-112.5 118t-53 95t-13 95q0 82 39 159t105.5 136.5t155.5 95t191 35.5 q109 0 176.5 -29.5t94.5 -68.5q6 -35 6 -57.5t-21 -51.5q-10 -16 -31.5 -33.5t-56.5 -33.5q-2 31 -12 64.5t-34.5 62t-66.5 47t-104 18.5q-55 0 -107.5 -16t-93 -50t-66.5 -84t-26 -116q0 -78 39 -138.5t95.5 -114.5t123 -104t121.5 -106q53 -53 84 -114.5t31 -114.5 q0 -104 -49 -190.5t-132 -149t-191.5 -97t-225.5 -34.5q-45 0 -100.5 11t-103.5 33.5t-81 59.5t-35 86z" />
<glyph unicode="T" horiz-adv-x="749" d="M68 1337q0 43 28 56q14 6 44 10t79 4q104 0 196.5 1t166 3t126 4t76.5 2l187 8q37 2 41 -22q0 -12 -21.5 -24.5t-58.5 -22.5q-14 -4 -25.5 -7t-25 -6.5t-32 -7.5t-44.5 -6q-23 -4 -51 -3h-21q-22 0 -49 -1l-68 -192q-12 -35 -29.5 -95.5t-43.5 -150.5q-49 -176 -99 -344 q-18 -66 -36.5 -136.5t-36.5 -152.5q-4 -18 -6.5 -38.5t-6.5 -43.5q-8 -53 -17 -83t-26 -52q-10 -14 -28.5 -29.5t-39 -29t-39 -22.5t-30.5 -9q-45 0 -45 28q0 18 15.5 82t37 144t44 162.5t36.5 142.5q8 33 25.5 93t38 133t43 149.5t42 142.5t33 112t17.5 58q6 18 9 32.5 t9 33.5q4 12 13.5 29.5t21.5 33.5l-262 -4q-10 0 -31.5 -1t-46 -1t-46 -1t-28.5 -1q-37 0 -36 22z" />
<glyph unicode="U" horiz-adv-x="1316" d="M47 55q0 23 14.5 79t44.5 153q51 158 87 270.5t63 198.5t48.5 156.5t43.5 144.5q18 59 34.5 127.5t27.5 105.5q12 45 32.5 79t61.5 50q18 8 42.5 11.5t47.5 3.5q16 0 16 -19q0 -27 -9 -78t-32 -123q-29 -86 -52 -160.5t-45.5 -144t-45.5 -137t-45 -137.5 q-23 -70 -44.5 -138.5t-36.5 -126t-24.5 -97.5t-9.5 -54q0 -23 15 -22q18 0 76.5 59t154.5 172q18 23 66.5 82t112 142t135 181.5t139.5 198.5q33 49 55 86t38.5 68t30 56.5t27.5 51.5q29 51 50.5 70.5t52.5 32.5q20 8 47.5 10t40.5 2q16 0 16 -18q0 -25 -26.5 -80.5 t-67.5 -171.5q-41 -117 -73 -222.5t-60 -203.5q-31 -115 -58.5 -236t-52.5 -254q-6 -31 -9 -61.5t-13 -65.5q-12 -35 -68 -76q-10 -8 -26.5 -13t-32.5 -5q-20 0 -25.5 12.5t-5.5 28.5q0 10 1 36.5t5 45.5q4 29 13.5 67.5t19.5 79.5q4 20 16 68.5t27.5 114t34 140.5t36 144.5 t33 128t25.5 93.5q-37 -49 -70 -93.5t-81 -106t-119.5 -150.5t-186.5 -230q-49 -61 -90 -110.5t-80 -94.5t-78 -85t-84 -83q-16 -16 -52 -34.5t-71 -18.5q-57 0 -57 100z" />
<glyph unicode="V" horiz-adv-x="1116" d="M102 -25q0 20 3.5 41t8.5 48.5t14 63.5t22 89q14 59 27 117.5t27.5 124t31 142.5t34.5 175q27 137 41.5 219t20.5 131.5t7 76t1 54.5q0 39 -31 39q-23 0 -41 -8t-28 -8q-16 0 -17 20q0 10 37 44t119 86q18 10 45 19t49 9q31 0 38 -21.5t7 -56.5q0 -45 -13 -142t-44 -271 q-25 -135 -52.5 -271.5t-54 -253t-47 -204.5t-31.5 -127q68 43 166 141q66 66 125.5 138.5t116.5 154.5q55 78 104.5 165t90.5 174t72.5 170t49.5 154q13 47 15 91q1 17 0 32q0 24 -2 41q4 10 23.5 25.5t44 31t53 26.5t51.5 11q29 0 28 -22q0 -20 -4 -45t-15 -58.5 t-29.5 -80t-47.5 -109.5q-14 -31 -41.5 -88t-63.5 -123t-75 -134.5t-76 -121.5q-102 -150 -197.5 -269.5t-179.5 -207.5t-150.5 -146.5t-109.5 -85.5q-23 -16 -43 -21t-53 -5q-12 0 -19.5 8t-7.5 18z" />
<glyph unicode="W" horiz-adv-x="1769" d="M135 8q0 10 5 49t16 111q10 70 25.5 146.5t29.5 168.5q16 98 29.5 188.5t27.5 194.5q25 205 25 314q0 39 -7 52t-28 13q-16 0 -23.5 -4t-35.5 -10q-14 0 -17 20q0 8 18.5 26.5t47 41t62.5 46.5t65 42q14 8 31.5 9t35.5 1q31 2 38 -20.5t7 -57.5q0 -45 -12 -127l-92 -624 q-10 -63 -22.5 -144.5t-24.5 -152.5q-14 -84 -29 -170q37 29 68 57.5t61.5 62t62 76.5t72.5 101q123 176 214.5 336.5t164.5 322.5q33 70 62.5 140.5t77.5 152.5q23 27 64.5 48.5t76.5 21.5q10 0 20.5 -3t10.5 -20q0 -18 -2.5 -44.5t-7.5 -67.5t-15 -101.5t-29 -146.5 q-6 -25 -17 -75t-24.5 -114.5t-30 -136.5t-30.5 -139q-16 -72 -30.5 -141.5t-28 -132t-24.5 -117t-19 -90.5q53 37 100 77.5t92 90t91 108.5t97 133q70 98 123.5 212t98.5 245q41 121 61.5 215t24.5 151q41 37 78.5 69t72.5 32q33 0 33 -35q0 -49 -11 -103.5t-46 -146.5 q-49 -131 -118 -261t-146.5 -250t-161.5 -228.5t-165 -195.5t-155 -151.5t-133 -97.5q-31 -16 -52.5 -21t-49.5 -5q-12 0 -19.5 8t-7.5 18q0 14 5 46t13.5 71t17.5 80t17 76q31 127 62.5 268t58.5 264q31 143 59 281l-12 4q-35 -76 -87 -174t-116.5 -204.5t-138.5 -215.5 t-149.5 -205t-150.5 -173t-144 -118q-29 -12 -43.5 -16t-38.5 -4q-29 0 -29 53z" />
<glyph unicode="X" horiz-adv-x="1042" d="M12 63q37 20 72 60q6 6 37 38t83 96.5t127 166.5t171 250q-88 295 -129 447.5t-41 181.5q0 23 4 35t10 24q16 31 47 65.5t66 34.5q6 0 12 -26.5t12 -63.5t12.5 -74.5t12.5 -60.5q14 -66 25.5 -117t23.5 -99t24.5 -98.5t30.5 -113.5q61 92 111.5 169t91.5 140 q74 119 122 207t83 119q12 10 43 20t51 4q0 -10 -17.5 -42.5t-46 -79t-64.5 -100.5t-70.5 -106.5t-65.5 -98.5t-51 -74q-33 -47 -74 -104.5t-88 -123.5q39 -117 76 -225t90 -240q12 -29 27.5 -59.5t33 -55t32.5 -42t26 -21.5q-29 -72 -62 -102.5t-78 -30.5q-16 0 -31.5 14.5 t-28.5 36t-24.5 48t-19.5 49.5q-23 61 -44.5 128.5t-40 133t-35.5 124t-30 105.5q-31 -49 -74.5 -116.5t-90 -138.5t-91.5 -136.5t-75 -110.5q-41 -59 -70 -89.5t-55 -30.5q-29 0 -44.5 27.5t-15.5 55.5z" />
<glyph unicode="Y" horiz-adv-x="976" d="M-57 16q0 14 16 15q16 0 45 -15.5t78 -15.5q121 0 211 46t176 138q35 37 73 96.5t79 149.5t85 212t91 282l-6 2q-25 -27 -66 -69t-92 -89t-111.5 -97t-124.5 -93q-27 -16 -76 -42t-102 -26q-29 0 -45 18.5t-16 51.5q0 16 5 43.5t15 58.5q29 86 50.5 154.5t39.5 121.5 q35 109 55.5 177.5t31 110.5t12.5 62.5t2 32.5q0 20 -7.5 21.5t-13.5 1.5t-17.5 -5t-22.5 -11.5t-21.5 -11.5t-14.5 -5q-10 0 -10 12q0 14 14.5 24.5t34.5 21.5q14 8 45 21t66 25.5t70.5 21.5t60.5 9q18 0 18 -24q0 -10 -6 -31.5t-14 -44.5q-35 -111 -63.5 -195t-55.5 -174 q-12 -37 -26.5 -87t-26.5 -96t-21.5 -83t-9.5 -47q0 -16 6 -19t21 -3q14 0 48 18t77 49t90 72t90 88q100 106 156 211q16 57 30.5 105t30.5 87q16 37 29.5 58.5t25.5 33.5q29 29 57.5 38.5t63.5 9.5q29 0 29 -33q0 -31 -13.5 -71t-33 -81t-41 -80t-35.5 -65 q-20 -76 -42 -161t-48 -163q-59 -178 -114.5 -318.5t-137.5 -246.5q-98 -123 -230.5 -189.5t-293.5 -66.5q-74 0 -122 16.5t-48 42.5z" />
<glyph unicode="Z" horiz-adv-x="1087" d="M51 -2q0 31 105 170q74 96 186.5 228t247.5 286q61 70 121.5 139.5t111.5 129t90 105.5t60 72q31 41 55.5 74t44.5 62q-29 4 -60.5 6t-66.5 2q-37 0 -137 -9.5t-295 -41.5q-78 -14 -120 -19.5t-48 -5.5q-29 0 -29 25q6 8 27 26.5t48.5 39t59 40t58.5 29.5q45 16 131 33 q41 6 93 9t106 3q90 0 181 -1t144 -7q54 -7 54 -27q0 -18 -17.5 -48t-41 -61.5t-49.5 -62.5t-42 -51q-51 -63 -93 -114.5t-84 -101.5t-88 -102.5t-104 -117.5q-61 -72 -156 -173.5t-212 -254.5q-45 -59 -78 -106.5t-57 -86.5q33 8 91 18.5t122.5 20.5t125 17.5t101.5 7.5 q89 0 153 2h24q52 0 101 -7q47 -6 48 -36q0 -16 -15.5 -54.5t-68.5 -72.5q-18 8 -48 15t-69 12t-82 8t-88 3q-41 0 -101.5 -5t-138.5 -19q-18 -4 -54 -10l-75 -12.5t-72.5 -10.5t-46.5 -4q-53 0 -53 39z" />
<glyph unicode="[" horiz-adv-x="794" d="M98 -408q0 23 10.5 53.5t24.5 75.5t21.5 75l11.5 46q14 57 37.5 156.5t50.5 213.5t51.5 225.5t42.5 191.5q23 104 51.5 213.5t55.5 201.5q29 109 59 211q10 41 22.5 71t22.5 56q41 92 127 93q16 0 28.5 -2.5t30.5 -4.5q31 0 67 2.5t66.5 3.5t53 2t29.5 1q27 0 33.5 -7.5 t6.5 -15.5q0 -12 -16 -24.5t-40.5 -21.5t-53.5 -17.5t-53 -12.5q-27 -4 -57.5 -6t-59.5 -4q-12 -33 -27.5 -78t-36.5 -104q-8 -25 -22 -75t-29.5 -109.5t-30 -120t-24.5 -105.5q-10 -51 -26.5 -120.5t-36 -149.5t-40 -166t-40 -167t-38 -153.5t-30.5 -128.5 q-18 -80 -30.5 -135t-30.5 -82h34q27 0 57.5 1t57.5 3.5t46.5 3.5t25.5 1q27 0 34 -7.5t7 -15.5q0 -12 -16.5 -24.5t-41 -21.5t-53.5 -17.5t-53 -12.5q-53 -10 -97 -9t-92 -3q-14 0 -29.5 -2t-28.5 -1t-22.5 6t-9.5 17z" />
<glyph unicode="\" horiz-adv-x="755" d="M86 1524q14 23 32.5 37t45.5 12q10 -14 41 -92t74 -198t93 -268.5t102 -302t101.5 -302t89.5 -266t64.5 -195.5t28.5 -92q0 -37 -45 -37q-16 0 -23.5 2t-23.5 31z" />
<glyph unicode="]" horiz-adv-x="786" d="M-88 -410q0 12 16.5 24.5t41 22t53 17.5t53.5 12q27 4 57.5 6t59.5 4q12 33 27.5 78t35.5 105q8 25 22.5 75t30 109t29.5 119.5t24 105.5q10 51 27 121t36 149.5t39.5 166t40 167t37 153.5t31.5 128q18 80 30.5 135t31.5 82h-35q-27 0 -57.5 -1t-57 -3t-46 -3t-25.5 -1 q-27 0 -34 7t-7 15q0 12 16.5 24.5t41 22t53 17.5t53.5 12q53 10 97 9t91 4q14 0 29.5 2t29 1t22.5 -6.5t9 -17.5q0 -23 -10.5 -53.5t-24.5 -75.5t-21 -74.5t-11 -46.5q-14 -57 -38 -156.5t-50.5 -213t-51 -225t-43.5 -191.5q-23 -104 -52.5 -214t-53.5 -202 q-31 -109 -60 -211q-10 -41 -22 -70.5t-23 -56.5q-41 -92 -127 -92q-16 0 -28.5 2t-30.5 4q-31 0 -66.5 -2t-66.5 -3t-53.5 -2t-28.5 -1q-27 0 -34 7t-7 15z" />
<glyph unicode="^" horiz-adv-x="888" d="M171 1053.5q-1 17.5 11 33.5l310 316l12 2q66 -57 125 -111q51 -47 105 -98t89 -90q2 -20 -19.5 -45t-39.5 -25q-10 0 -14.5 1t-12.5 10l-276 256l-240 -244q-2 -6 -6 -12q-6 -10 -20 -11q-23 0 -24 17.5z" />
<glyph unicode="_" horiz-adv-x="1153" d="M-14 -156h1190v-82h-1190v82z" />
<glyph unicode="`" horiz-adv-x="559" d="M270 1421q0 14 29 31.5t57 17.5q10 0 38 -44t65 -99q31 -47 65.5 -85t34.5 -50q0 -16 -21.5 -40t-50.5 -28q-16 6 -52 50.5t-91 121.5q-8 10 -20.5 28.5t-24.5 37t-20.5 35t-8.5 24.5z" />
<glyph unicode="a" horiz-adv-x="964" d="M53 143q0 133 59.5 262.5t159.5 235.5q98 104 203 167.5t219 92.5q41 10 87 14.5t63 4.5q25 0 42 -5.5t17 -17.5q0 -23 -20 -41q-10 -8 -25.5 -14t-34.5 -8q-16 0 -52 5t-64 5q-51 0 -95 -21q-45 -20 -90 -55t-87 -82t-79 -103.5t-63 -119.5q-33 -78 -46.5 -142.5 t-15.5 -127.5q0 -53 13.5 -72t34.5 -19q33 0 81 39t99 99.5t101 133t87 140.5q25 45 40 89t26 67q12 33 23.5 59.5t43.5 44.5q31 18 59.5 26.5t45.5 8.5q20 0 20 -18q-18 -47 -37 -101q-16 -45 -34.5 -99t-32.5 -108q-23 -86 -37 -172t-14 -131q0 -23 6 -43t16 -33l19 -24 q-2 -10 -19.5 -33.5t-40 -48.5t-48.5 -43t-44 -18q-27 0 -42 20t-15 82q0 43 5 93t11 95q8 53 16 105h-8q-141 -170 -238.5 -260t-174.5 -103q-68 0 -104 45t-36 129z" />
<glyph unicode="b" horiz-adv-x="966" d="M41 106q0 39 16 105q18 84 41 168q16 72 38 154.5t40 152.5q35 129 73 258t75.5 242.5t71.5 201t59 132.5q10 16 18 27.5t25 21.5q23 16 43 24.5t45 8.5q18 0 18 -21q0 -10 -9 -32.5t-21.5 -51.5t-27 -61.5t-22.5 -63.5q-66 -215 -115 -398t-90 -335q39 47 93.5 107.5 t115 112.5t124 88t118.5 36q31 0 56.5 -8t45 -32.5t30.5 -70t11 -118.5q0 -29 -11 -85.5t-32.5 -125t-55.5 -142t-79 -141.5q-96 -141 -202.5 -215t-223.5 -76q-98 0 -169.5 27.5t-98.5 109.5zM217 158q25 -66 71 -81.5t97 -15.5q55 0 110.5 43t116.5 154q31 55 53.5 118.5 t38 122t23.5 107.5t8 74q0 66 -13 108.5t-54 42.5q-14 0 -39 -6t-61 -28.5t-86 -68.5t-113 -128q-41 -51 -69 -109.5t-50 -136.5q-16 -59 -23.5 -113.5t-9.5 -82.5z" />
<glyph unicode="c" horiz-adv-x="745" d="M41 209v5q0 284 219 529q49 55 102.5 96.5t103.5 69t95 42t76 14.5q18 0 38.5 -3.5t38 -11.5t28 -23.5t10.5 -39.5q0 -72 -17 -137q-4 -20 -17 -48t-36 -47q-35 -29 -63.5 -38t-43.5 -9q-14 0 -16 13l16 45q14 37 19.5 70.5t7.5 80.5q0 43 -47 43q-66 0 -126 -49 t-107.5 -129t-75 -182.5t-27.5 -208.5q0 -111 45 -174q23 -31 55.5 -42.5t92.5 -11.5q41 0 76.5 15.5t70.5 36.5q20 14 35 15q10 0 19.5 -6.5t9.5 -29.5q0 -8 -27 -28.5t-74 -42t-110.5 -38t-137.5 -16.5q-100 0 -165.5 58.5t-67.5 181.5z" />
<glyph unicode="d" horiz-adv-x="964" d="M49 141q0 135 53.5 259t161.5 245q100 113 210 177.5t233 78.5l71 8q31 94 56 176q20 70 37.5 133.5t19.5 86.5q0 8 -5 15t-16 7q-10 0 -26 -4q-8 -2 -17 -2q-6 -2 -11 -3t-5 7v11t8 12q16 12 57.5 31.5t90.5 37.5t96 19q24 0 18 -31q-35 -111 -69 -221q-29 -94 -63 -203 t-60 -201q-20 -70 -37.5 -124t-33 -106t-29 -110.5t-27.5 -134.5q-4 -18 -7 -40.5t-7 -41.5q-4 -23 -7 -45q0 -23 17 -45l18 -24q-2 -14 -19.5 -43t-39.5 -52q-29 -27 -54.5 -38t-37.5 -11q-35 0 -45.5 20.5t-10.5 45.5q0 16 6.5 56t14.5 87t16 90t15 66l-7 2 q-47 -61 -96 -117.5t-115 -120.5q-41 -39 -71.5 -63.5t-56 -39t-46 -21.5t-41.5 -9q-61 0 -100 36t-39 144zM233 205q0 -88 46 -107q37 6 83 44t105 104q20 23 49 57.5t58.5 76.5t55 87t38.5 86l82 264h-74q-111 0 -211 -79t-166 -240q-33 -80 -48 -153t-18 -140z" />
<glyph unicode="e" horiz-adv-x="759" d="M55 262q0 121 39 230.5t131 216.5q53 61 115.5 108t155.5 96q49 27 91 37.5t70 14.5q59 0 84 -15.5t25 -54.5q0 -18 -7 -47t-30.5 -68t-68 -87t-117.5 -105q-59 -47 -112.5 -80t-94.5 -55q-47 -25 -86 -41l-8 -33q-4 -12 -5 -25.5t-1 -19.5q0 -129 45 -201t163 -72 q31 0 64 9.5t59 21.5q31 12 60 31q12 -12 12 -39q0 -12 -27.5 -31.5t-71.5 -38t-99.5 -32t-108.5 -13.5q-131 0 -204 77t-73 216zM258 504q49 10 88 27.5t105 64.5q88 63 112.5 118.5t24.5 96.5t-51 41q-35 0 -76 -26.5t-88 -86.5q-43 -57 -72 -116.5t-43 -118.5z" />
<glyph unicode="f" horiz-adv-x="731" d="M-260 -643q0 16 12 20q20 10 61.5 30t82.5 61q109 109 188.5 313.5t157.5 523.5l94 381q-39 -2 -74 -4q-29 -2 -57.5 -2h-40.5t-24.5 3t-12.5 19q0 45 37 68q18 10 38.5 13t57.5 3q16 0 33.5 -1t34.5 -1h34q31 129 64 226.5t68 163.5q53 102 139 178q55 47 131 76.5 t147 29.5q119 0 119 -45q0 -25 -15.5 -54.5t-51.5 -43.5q-27 27 -64 48t-82 21q-68 0 -111.5 -37.5t-74.5 -112.5t-57.5 -187.5t-61.5 -262.5h35q16 0 31.5 -1t31.5 1q78 4 118 6.5t69 2.5q25 0 31 -3.5t6 -11.5q0 -18 -39 -39q-18 -10 -93 -31.5t-178 -21.5h-41 q-35 -164 -75 -321q-18 -68 -39 -139.5t-43.5 -142.5t-47 -137.5t-49.5 -121.5q-72 -154 -142.5 -247t-158.5 -165q-20 -16 -43.5 -28.5t-46 -21.5t-42 -14t-32.5 -5q-8 0 -16 3t-8 11z" />
<glyph unicode="g" horiz-adv-x="960" d="M-326 -805q0 4 7.5 6t13.5 2q8 0 17 -3t21.5 -7t32 -7t50.5 -3q57 0 123.5 16.5t137 62.5t143.5 126t140 209q33 61 72 160.5t76 205t68.5 204.5t50.5 163h-6q-35 -47 -98.5 -116t-141.5 -140q-119 -113 -213 -113q-61 0 -99 48t-38 155q0 287 235 520q78 76 184.5 133 t241.5 92q41 10 82 14.5t68 4.5q23 0 41 -2t18 -21q0 -16 -5 -23.5t-15 -17.5q-10 -8 -22.5 -17t-31.5 -9q-39 0 -69.5 5t-52.5 5q-70 0 -134.5 -26.5t-150.5 -104.5q-43 -37 -82 -95.5t-68.5 -127t-48 -142t-18.5 -143.5q0 -59 12 -87t37 -38q37 4 113.5 61.5t175.5 186.5 q39 51 69.5 101t63.5 128q23 53 39 106.5t28 80.5q8 18 31 30t50.5 23.5t58.5 11.5q6 0 13 -5t7 -13q0 -16 -6 -29.5t-18 -50.5q-6 -23 -15.5 -52.5t-25 -78.5t-37 -122t-54.5 -179q-20 -70 -47.5 -160t-57.5 -180t-56.5 -167t-46.5 -120q-125 -262 -294 -391t-401 -129 q-37 0 -65.5 4t-59.5 12q-43 10 -43 43z" />
<glyph unicode="h" horiz-adv-x="960" d="M78 -16q0 6 7 31.5t17.5 60.5t21.5 73.5l21 73.5q31 109 55.5 198t49 174t49.5 174t55 198q39 133 74 252.5t55 193.5q10 39 54 70q20 16 40.5 23t36.5 12q20 4 37 6q18 0 19 -21q-12 -37 -25 -73q-10 -33 -21.5 -69t-21.5 -71q-31 -104 -56.5 -196.5t-50 -183.5 t-51 -184t-59.5 -198l6 -2q43 59 90 121q41 51 90.5 110.5t96.5 110.5q23 25 55.5 47.5t46.5 32.5q49 31 121 31q23 0 34 -17.5t11 -60.5q0 -16 -5 -44t-13.5 -63.5t-18.5 -75.5t-18 -79q-18 -78 -36 -137.5t-34 -124.5q-6 -18 -11 -43t-10.5 -46.5t-8.5 -36.5t-3 -20 q0 -23 5 -36t1 -35q-4 -16 -8 -25.5t-16 -25.5t-32.5 -34t-42 -33t-43 -24.5t-36.5 -9.5q-31 0 -31 39q0 18 6.5 46t16.5 57q20 61 31.5 103t27.5 103q20 70 34 120t30 122q14 59 27.5 119.5t13.5 83.5q0 14 -21 14q-18 0 -69 -45t-113.5 -121t-127 -175t-112.5 -208 q-23 -53 -31.5 -95t-23.5 -95q-10 -45 -37 -76q-12 -14 -47 -29.5t-55 -15.5q-29 0 -38 6t-9 23z" />
<glyph unicode="i" horiz-adv-x="548" d="M63 -16q0 23 15 67q23 70 41 124t41 128q16 57 26.5 97t24.5 98q10 41 21.5 83t20.5 80.5t15 70.5t6 52t-6 25.5t-16 5.5q-8 0 -16.5 -2t-18.5 -6t-22 -6q-6 4 -11 30q16 14 71.5 39t123.5 48q41 14 78 14q18 0 18 -23l-24 -94q-10 -41 -22.5 -87t-25.5 -83 q-12 -39 -21 -68.5t-17.5 -59.5t-16.5 -60.5t-18 -69.5q-10 -35 -20.5 -73t-18.5 -71.5t-14.5 -59t-6.5 -36.5q0 -16 3 -28.5t3 -22.5t-7 -33.5t-56 -62.5q-4 -4 -17.5 -10t-29.5 -14.5t-32.5 -13.5t-29.5 -5q-16 0 -28.5 5t-12.5 22zM358 1169q4 66 32 103t102 37 q45 0 58 -25q10 -19 10 -51q0 -10 -1 -21q-4 -49 -33.5 -89t-93.5 -40q-42 -1 -60 17q-14 14 -15 51q0 9 1 18z" />
<glyph unicode="j" horiz-adv-x="587" d="M-276 -649q0 12 22.5 21.5t38.5 21.5q57 43 102 95t84 126t76 173t80 235q25 80 44 143t36.5 125.5t35 128t40.5 147.5q16 61 29.5 121t13.5 90q0 10 -1.5 21.5t-11.5 11.5q-8 0 -16 -2t-18 -6t-23 -6q-6 4 -10 30q16 14 73.5 39t120.5 47q37 14 78 15q18 0 19 -23 q-12 -47 -27 -94q-12 -41 -26.5 -85t-24.5 -81q-23 -72 -47.5 -157t-46.5 -158q-25 -86 -52 -174q-27 -90 -53.5 -168t-54.5 -146q-35 -84 -79 -159.5t-94 -139t-105.5 -111.5t-112.5 -75q-43 -18 -70 -19q-20 0 -20 13zM420 1169q4 66 31.5 103t101.5 37q45 0 59 -25 q10 -19 10 -52q0 -9 -1 -20q-4 -49 -34 -89t-93 -40q-43 0 -60 17q-15 15 -15 51q0 9 1 18z" />
<glyph unicode="k" horiz-adv-x="905" d="M51 37q0 10 7.5 35.5t13.5 48.5q10 41 25.5 91t27.5 93q14 51 31 101l118 432q18 70 37 139q16 59 32.5 128t31.5 128l13 58.5t14.5 59t11.5 48t4 26.5q0 10 -2 16.5t-2 16.5q0 6 3 15.5t14 19.5t33.5 23.5t61.5 25.5q29 10 44.5 12t35.5 2q18 0 19 -18q0 -6 -10.5 -49 t-26 -105.5t-33.5 -133t-35 -132.5q-23 -90 -51.5 -192.5t-52.5 -192.5q-29 -104 -60 -209q57 63 115 127q49 53 107.5 114.5t107.5 111.5q127 127 203 127q14 0 24.5 -10.5t10.5 -45.5q0 -37 -4.5 -64.5t-8.5 -52.5t-13 -54t-34 -50q-20 -12 -37.5 -18.5t-33.5 -10.5 q-18 -4 -35 -4q4 23 10 45q4 18 7 41t3 39q0 43 -6 55q-53 -49 -104 -100q-43 -43 -91.5 -95t-82.5 -99q12 -53 40.5 -126t81.5 -182q27 -53 60 -106t84 -88q18 -12 34.5 -17.5t26.5 -7.5t16.5 -4t6.5 -8q0 -10 -12.5 -27.5t-59.5 -42.5q-29 -14 -65 -14q-51 0 -84 23.5 t-70 80.5q-43 66 -81 142t-66 141q-33 76 -60 150q-6 -25 -14 -48q-6 -20 -13.5 -42.5t-11.5 -41.5q-8 -29 -16 -62.5t-15 -61.5l-16 -70q-6 -29 -10 -43t-21 -43q-20 -23 -56 -48.5t-79 -25.5q-14 0 -28.5 3t-14.5 26z" />
<glyph unicode="l" horiz-adv-x="587" d="M115 -16q0 43 75 319q25 88 50 178q23 78 46 166t46 162q39 135 60.5 215t32.5 125t14 63.5t7 34.5q4 12 5.5 24.5t1.5 18.5q0 20 -8.5 25.5t-18.5 5.5q-8 0 -19.5 -3t-21.5 -7q-12 -6 -27 -11q-6 4 -10 31q29 16 83 43t122 49q41 14 78 15q10 0 14 -8.5t4 -14.5 q0 -10 -6 -31.5t-12 -44.5q-8 -27 -17 -57q-20 -78 -43 -156q-18 -66 -40.5 -141.5t-38.5 -140.5q-14 -53 -26.5 -94t-23 -81t-21.5 -84t-26 -102q-31 -127 -50 -208.5t-19 -127.5q0 -23 3 -28.5t3 -22.5q0 -16 -2 -20t-8 -15q-4 -6 -25 -23.5t-48.5 -35.5t-55 -32.5 t-46.5 -14.5q-31 0 -32 29z" />
<glyph unicode="m" horiz-adv-x="1361" d="M70 14q0 16 11 63.5t23 88.5q10 39 23.5 84t26.5 84q12 45 26 88l94 342l13 61q0 20 -13 21q-16 0 -35.5 -7.5t-35.5 -17.5q-20 -10 -39 -24q-10 0 -14.5 6t-4.5 12q0 14 21.5 28.5t46.5 28.5q68 39 99.5 54.5t62.5 25.5q20 8 43.5 12.5t40.5 4.5q6 0 12 -4t6 -15 q0 -10 -8 -54t-31 -128l-61 -242q39 47 66.5 81t51 61.5t49 54.5t60.5 63q72 72 119 113q10 10 29.5 21.5t44.5 21.5t48 15.5t46 7.5q37 0 37 -56q0 -37 -9.5 -84t-23.5 -96t-28.5 -94t-22.5 -80h6q43 59 89 112.5t87 97.5t76 75.5t55 48.5q18 16 39 24.5t43 16.5 q39 10 72 14q18 0 30 -24q2 -8 5 -19q2 -10 3 -21.5t1 -25.5q0 -20 -1 -33.5t-6 -34.5q-2 -14 -11 -51t-22.5 -88t-30 -111.5t-34.5 -121.5q-10 -33 -18 -68t-16.5 -65.5t-12.5 -55t-4 -37.5q0 -35 4 -52t4 -34q0 -23 -28 -51q-43 -41 -85 -70.5t-73 -29.5q-33 0 -33 57 q0 18 4 40t21 77l20 74q10 33 19.5 69.5t19.5 67.5q18 57 28.5 94t26.5 92q8 31 17.5 63.5t16.5 62.5t11 52.5t4 32.5q0 43 -22 45q-23 0 -84 -63q-33 -33 -70 -77t-71.5 -92t-65.5 -94t-51 -85q-10 -20 -17.5 -32.5t-17.5 -47.5l-47 -144q-6 -29 -18 -47q-8 -10 -37 -41.5 t-58 -50.5q-27 -16 -45 -16t-23 11t-5 28q0 12 9 42.5t25 88.5l72 235q12 41 25 84q10 35 22.5 78t22.5 78q10 37 20 81t13 54q0 25 -13 29q-16 0 -44.5 -23.5t-76.5 -68.5q-35 -35 -68.5 -74t-65 -79t-59.5 -80t-48 -77q-23 -39 -46.5 -89t-45.5 -122q-6 -18 -10.5 -33.5 t-8.5 -33.5q-6 -23 -10 -34t-14 -26q-6 -10 -19.5 -22t-30 -22.5t-35 -18.5t-36.5 -8q-27 0 -36 6t-11 22z" />
<glyph unicode="n" horiz-adv-x="960" d="M55 -8q0 23 6.5 41t18.5 53q18 43 37 96q16 45 34.5 102.5t38.5 123.5q18 59 37 126.5t35.5 127t27.5 102.5t13 53q2 8 3 14.5t1 12.5q0 10 -6 11t-12 1q-10 0 -27.5 -7t-34.5 -18q-20 -10 -39 -22q-6 -6 -12 -10q-12 -8 -16 -8q-8 0 -11.5 8t-3.5 14t18.5 22.5t46.5 36 t62.5 38t65.5 30.5q37 14 62.5 21.5t72.5 7.5q18 0 19 -19q0 -10 -6.5 -50t-32.5 -132l-68 -238l6 -4q35 47 72 97q31 41 66.5 87t70.5 85q18 20 41 42.5t43.5 42t35.5 33t19 15.5q33 20 66 30q49 18 100 19q39 0 41 -53q0 -18 -7 -56.5t-24 -97.5q-16 -57 -32 -113 q-14 -47 -30 -102t-26 -102q-8 -33 -16 -68t-15.5 -66.5t-11.5 -56t-4 -39.5v-80q0 -16 -6 -25t-18 -26q-6 -8 -26.5 -24.5t-45.5 -34t-47.5 -29.5t-34.5 -12q-16 0 -24.5 8t-8.5 33q0 10 5.5 32.5t19.5 79.5q8 35 15 63t14.5 54.5t13.5 54t16 60.5q23 78 42.5 140.5 t35.5 121.5q12 41 20.5 84t12.5 59q0 43 -16 45q-23 0 -72 -38.5t-121 -133.5q-63 -80 -114.5 -163.5t-92.5 -167.5q-18 -39 -39.5 -93.5t-42.5 -113.5q-12 -37 -20 -60.5t-31 -50.5q-6 -6 -19.5 -14t-31 -16.5t-36.5 -13.5t-36 -5q-18 0 -27.5 10t-9.5 25z" />
<glyph unicode="o" horiz-adv-x="905" d="M53 178v13q1 76 21 159q22 90 78 185q47 80 106 149.5t135 134.5q66 59 117 90t82 31q6 0 13 -1t13 -1h15q6 6 32.5 16.5t53.5 10.5q88 0 124 -61.5t36 -160.5v-5q0 -215 -166 -474q-191 -295 -437 -295q-98 0 -159.5 52.5t-63.5 156.5zM229 227q0 -84 33 -127t86 -43 q59 0 123 41t119 138q31 51 54.5 118.5t40.5 134t26.5 123.5t9.5 88q0 78 -25.5 121t-62.5 43q-8 0 -12.5 -2t-8.5 -4l-8 -4l-33 6q-133 0 -249 -291q-47 -117 -70 -201.5t-23 -140.5z" />
<glyph unicode="p" horiz-adv-x="995" d="M-154 -776q0 29 5.5 62.5t27.5 107.5l105 340l147 491l-39 -18q-16 4 -10 43q12 16 27 37q12 16 26.5 36.5t30.5 43.5q14 49 33 108q16 51 33.5 120t37.5 150q4 23 5 38.5t4 25.5q0 31 -11 31q-14 0 -36.5 -13.5t-38.5 -13.5q-18 0 -19 21q0 14 14 22q25 14 82.5 47 t122.5 60q16 6 28.5 7t27.5 1q20 0 20 -21q0 -16 -9 -54t-22.5 -84t-29 -92t-29.5 -79l10 -2q98 143 219 244q125 100 211 100h5q64 0 100 -49q37 -51 37 -174q0 -102 -32 -208t-85 -203t-124 -178t-147 -132q-100 -66 -215 -70q-92 0 -149 37q-31 -109 -58.5 -208t-49 -183 t-37 -146.5t-21.5 -95.5q-2 -10 -2 -29.5v-33.5q0 -16 -4 -27.5t-14 -27.5q-20 -31 -61.5 -57.5t-72.5 -26.5q-16 0 -29.5 14t-13.5 39zM256 162q12 -47 51 -79t115 -32q66 0 127 47q49 37 92 102.5t75 145.5t50 167t18 167q0 78 -10 129t-49 51q-45 0 -117.5 -61.5 t-177.5 -202.5q-31 -41 -58.5 -95.5t-51 -113.5t-40 -117.5t-24.5 -107.5z" />
<glyph unicode="q" horiz-adv-x="886" d="M49 135q0 131 48 259t153 255q98 117 215 194t233 87q10 0 19 2q8 0 15 1t16 1q47 0 60 -6t13 -17q0 -29 -35 -30h-24q-10 0 -22.5 -1t-22.5 -3q-23 -4 -58.5 -15.5t-73.5 -31t-76 -44t-65 -53.5q-43 -43 -81.5 -106.5t-68.5 -136t-48.5 -149.5t-18.5 -151 q0 -31 12.5 -65.5t34.5 -34.5q18 0 49 24.5t69 63.5t77 88t74 99.5t61.5 96.5t38.5 79l86 245q10 25 34.5 48.5t74.5 39.5q6 2 14 4.5t16 2.5h17q18 2 18 -19q-8 -29 -16 -55q-8 -23 -16.5 -49.5t-14.5 -48.5q-23 -66 -39 -114t-35 -112q-25 -86 -58.5 -197.5t-64.5 -215.5 q-37 -121 -71 -246q-12 -39 -21.5 -69.5t-17.5 -58.5t-17.5 -57.5t-19.5 -68.5q-18 -63 -32.5 -125.5t-14.5 -91.5q0 -14 3 -24.5t3 -24.5q0 -20 -4 -29.5t-14 -22.5q-12 -12 -32 -28.5t-41.5 -29.5t-43 -22.5t-37.5 -9.5q-25 0 -34 6.5t-13 22.5q0 47 104 371l101 313 l135 457q-61 -78 -116.5 -145.5t-106 -118t-95.5 -79t-86 -28.5q-78 0 -108.5 47t-30.5 127z" />
<glyph unicode="r" horiz-adv-x="716" d="M41 -16q0 14 7 49t19.5 80t28 96t29.5 98q20 70 38.5 125t32 101.5t24.5 87.5t22 84q10 51 10 79q0 10 -6 18.5t-17 8.5q-12 0 -23 -8t-22 -8q-18 0 -20 24q0 4 17.5 16.5t45 28t63.5 29.5t75 25q23 6 40 9t39 3q18 0 19 -31q0 -16 -9.5 -48t-23.5 -75t-32.5 -95 t-37.5 -108h9q37 53 67.5 96.5t61.5 80.5q45 51 82.5 84.5t72.5 54t68 30t70 11.5q41 2 51 -11.5t10 -29.5q0 -14 -8 -37t-20.5 -46.5t-27 -42t-26.5 -26.5q-10 14 -27.5 32.5t-58.5 18.5q-45 0 -92 -32q-49 -35 -99.5 -96.5t-95.5 -133t-81 -145.5t-56 -133 q-10 -29 -20.5 -61.5t-20.5 -61.5q-10 -35 -22 -68q-6 -18 -18.5 -41.5t-30 -41t-36 -24.5t-36.5 7q-10 -8 -21.5 1t-13.5 26z" />
<glyph unicode="s" horiz-adv-x="774" d="M-51 82q2 23 17.5 40t41.5 42q10 10 37 23.5t43 13.5q8 -31 22.5 -57.5t37 -48t54 -34t77.5 -12.5q51 0 93 14.5t72.5 40t48 58.5t17.5 69q0 35 -20.5 66t-55.5 51q-66 39 -120 68.5t-113 75.5q-39 29 -45 60.5t-6 72.5q0 18 13 54t47 76t92 76.5t149 59.5q43 10 91 18.5 t83 8.5q29 0 61.5 -1.5t58.5 -1.5h60q-10 -51 -47 -76.5t-84 -25.5q-49 0 -92 6t-90 6q-82 0 -144 -37q-55 -33 -59 -110q0 -18 8 -37.5t25 -32.5q29 -23 66.5 -45t74.5 -44.5t70.5 -44t56.5 -42.5q59 -53 59 -119q0 -45 -21.5 -94t-59.5 -95t-92 -83t-120 -57 q-41 -12 -79.5 -18.5t-104.5 -6.5q-37 0 -74 9t-67.5 25.5t-53 39t-28.5 49.5z" />
<glyph unicode="t" horiz-adv-x="722" d="M154 801q0 23 9 36t25 23q23 16 41.5 15t53.5 -1h104l62 203q16 49 42.5 89t71.5 57q27 10 62 10q18 0 18 -19q-8 -20 -14 -34.5t-12.5 -28.5t-11.5 -30.5t-13 -41.5l-64 -205h99q61 0 98 4.5t88 4.5q25 0 31 -3t6 -12q0 -18 -39 -39q-18 -10 -49 -20t-76 -16 q-29 -4 -50.5 -6.5t-49.5 -4.5q-10 -2 -24.5 -1t-24.5 1h-27q-6 -25 -22.5 -81t-36 -126.5t-40 -150.5t-34.5 -152q-10 -43 -13.5 -75.5t-3.5 -49.5q0 -16 3.5 -26t3.5 -25q0 -10 -3.5 -18t-9.5 -21q-6 -8 -23.5 -24.5t-40 -33.5t-46 -30.5t-39.5 -13.5q-45 0 -47 29 q0 8 5 32.5t12 55t15.5 65.5t16.5 68q16 68 34.5 139.5t36 136t33 119.5t25.5 92q4 16 11 40t15 52q-39 -2 -73 -4q-29 -2 -57.5 -2h-41.5q-37 0 -36 23z" />
<glyph unicode="u" horiz-adv-x="980" d="M80 68q0 16 12 68t39 132l90 281q27 82 41 133t22.5 81t10.5 43t2 17q0 10 -2 17.5t-12 7.5t-28.5 -12.5t-29.5 -12.5q-14 0 -16 25q0 10 57 47q76 47 128 64.5t81 17.5q16 0 17 -23q0 -16 -7.5 -56t-17.5 -75l-119 -391q-8 -25 -17 -55.5t-18.5 -59t-15.5 -50t-6 -27.5 q0 -8 3 -16.5t9 -8.5q10 0 37 24.5t72 77.5q53 63 92 113.5t73.5 99t68.5 97.5t77 112q29 43 45 79t55 71q25 23 50.5 36t48.5 25q20 8 36 8h21q12 2 16 -18q0 -6 -11 -37t-27.5 -76t-34 -95t-31.5 -95q-12 -39 -21.5 -70.5t-17.5 -62.5t-17.5 -62.5t-17.5 -70.5 q-10 -39 -18 -85t-15 -87q-8 -47 -14 -95q-2 -10 -3 -26.5t-9 -32.5q-2 -6 -17 -20q-4 -4 -18 -16.5t-32.5 -25t-36 -22.5t-25.5 -10q-10 0 -21.5 5t-11.5 15v21q0 12 6 53t15.5 96.5t21.5 118t25 117.5q8 37 20 80t23 80q12 43 24 88q-39 -51 -82 -107q-37 -47 -82 -106.5 t-92 -120.5q-31 -41 -61.5 -77t-53.5 -60q-23 -25 -40 -45.5t-34.5 -38t-38 -32.5t-46.5 -34q-23 -16 -39.5 -17t-26.5 -1q-55 0 -55 82z" />
<glyph unicode="v" horiz-adv-x="847" d="M100 -16q0 29 2 36q0 4 3.5 22.5t9.5 43.5t12 52.5t12 51.5q35 131 53.5 223.5t30.5 164.5q10 61 15.5 108t7.5 82q0 37 -17 37q-23 0 -35 -10.5t-22 -10.5q-18 0 -18 21q0 10 13 21.5t54 41.5q29 23 54.5 35t48.5 23q23 8 53 8q25 0 31 -16t6 -41q0 -20 -2 -42t-6 -47 q-16 -102 -35 -196t-41 -199q-8 -39 -18.5 -82t-20.5 -85t-19.5 -76.5t-13.5 -55.5q45 20 104.5 78.5t118 133.5t108.5 158t79 154q10 27 19 64t16.5 71.5t10.5 65.5t3 49q6 6 7 8.5t6 6.5t16.5 11t35.5 21q45 25 95 29q27 0 26 -45q0 -14 -11 -51t-37 -92.5t-64.5 -126 t-94.5 -150.5q-35 -51 -61.5 -89t-58 -77t-76.5 -87t-119 -120q-41 -39 -87 -75.5t-73 -48.5t-51.5 -17.5t-46.5 -5.5q-20 0 -23 25z" />
<glyph unicode="w" horiz-adv-x="1341" d="M121 -16q0 23 8 62.5t18 100.5q8 47 19.5 102.5t22 112t20.5 111.5t18 102q18 123 19 193q0 37 -17 37q-12 0 -30.5 -10.5t-26.5 -10.5q-18 0 -18 21q0 6 16 22q12 12 39 31t58.5 35t61 28.5t48.5 12.5q20 0 28.5 -11.5t8.5 -45.5q0 -20 -2 -42t-6 -47l-62 -395l-49 -278 q53 47 107.5 118.5t101.5 148.5t87 149.5t64 123.5q12 27 29.5 58.5t33 60.5t28 50.5t16.5 27.5q16 23 35.5 30t40.5 13q10 4 22 4h23q20 0 20 -43q0 -20 -5 -46t-9 -46q-4 -18 -11.5 -57t-17.5 -91.5t-22.5 -115t-24.5 -123.5q-10 -43 -19.5 -93.5t-17.5 -93.5 q-8 -51 -18 -100q45 31 88 70t84 88q92 106 159.5 242.5t104.5 277.5q10 39 13 64.5t1 35.5q2 6 18.5 18.5t39 26t49 22.5t53.5 9q12 0 19.5 -9t7.5 -36q0 -53 -52.5 -154.5t-154.5 -265.5q-72 -115 -179.5 -234.5t-224.5 -213.5q-37 -29 -66.5 -43.5t-58.5 -22.5 q-12 -4 -21 -5t-24 -1q-20 0 -22 25q0 27 2 36q2 6 11 48.5t32 121.5q10 39 22.5 93.5t23.5 113t21.5 115.5t18.5 104l-8 2q-29 -51 -71 -122.5t-91 -150.5t-105.5 -154.5t-115.5 -135.5q-53 -53 -96 -78q-25 -10 -47.5 -14t-45.5 -4t-22 25z" />
<glyph unicode="x" horiz-adv-x="907" d="M4 57q78 35 163 91.5t183 166.5q-31 94 -55.5 178.5t-39.5 150t-23.5 110.5t-8.5 61q0 33 43 76q23 23 51.5 40t51.5 19q14 -96 42.5 -231t69.5 -264q51 63 91 123.5t70 111.5t49.5 90t29.5 62q20 45 32.5 80.5t41.5 62.5q12 12 29.5 17.5t31.5 5.5q6 0 18 -4q5 -3 9 -3 q2 -7 2 -15q1 -28 -21 -77q-28 -63 -67 -125q-14 -23 -44 -69.5t-70 -103t-85 -116t-90 -108.5q31 -86 55.5 -137t44.5 -82q53 -80 97 -86q-14 -53 -55.5 -90t-76.5 -37q-16 0 -34.5 11t-42 44t-53 90.5t-64.5 149.5q-86 -92 -168 -168q-111 -98 -158 -102q-29 0 -39 16 q-4 6 -8 23.5t-2 37.5z" />
<glyph unicode="y" horiz-adv-x="976" d="M-313 -805q0 12 28 12q20 0 31.5 -1t21 -3t21.5 -3t35 -1q131 0 238.5 50.5t199.5 162.5q41 49 103.5 167t134.5 298q63 160 110 298t82 243l-6 2q-27 -35 -73 -87t-101 -110.5t-113.5 -115t-107.5 -95.5q-18 -10 -32.5 -20t-32 -18.5t-39 -13.5t-52.5 -5 q-20 0 -34.5 16.5t-14.5 63.5q0 20 10 59t27.5 90.5t38 109.5t41.5 118q14 45 25.5 78.5t22.5 67.5t21.5 72t26.5 89q8 25 16.5 59.5t8.5 59.5q0 8 -2.5 17t-12.5 9t-23.5 -5t-25.5 -9l-29 -14q-4 0 -6 11t-6 17q0 2 10.5 11.5t27.5 19.5t36.5 20.5t38.5 16.5 q45 16 76.5 24.5t53 11.5t34 2t20.5 -1q20 0 19 -19l-25 -80q-29 -78 -55 -159q-23 -70 -48.5 -150t-48.5 -147q-29 -90 -50 -154.5t-21 -93.5q0 -18 20 -21q23 0 51.5 22.5t63.5 53.5q37 33 81 80t87 99.5t81 105.5t62 98l47 152q16 47 30.5 78.5t39.5 54.5q27 25 56.5 35 t64.5 12q26 0 28 -33q0 -18 -7 -43.5t-17 -60.5q-16 -51 -44 -101.5t-52 -91.5q-23 -74 -35.5 -119t-16.5 -61q-70 -248 -135 -432q-61 -178 -134 -329.5t-167 -266.5q-43 -51 -99 -98.5t-124 -83t-146.5 -58t-164.5 -22.5h-20q-150 0 -150 59z" />
<glyph unicode="z" horiz-adv-x="776" d="M-8 8q0 47 85 157.5t267 293.5q115 113 179.5 192.5t107.5 151.5h-78q-104 0 -177 -8.5t-124 -17.5t-82 -16t-49 -7q-8 0 -16.5 4t-8.5 20q6 14 22.5 28.5t39.5 37.5q55 49 84 59q49 20 146 26.5t202 6.5q80 0 129 -6q16 -2 33.5 -6t17.5 -21q0 -16 -14 -45 q-20 -41 -72.5 -113.5t-151.5 -183.5q-33 -37 -92 -97.5t-118.5 -126t-108.5 -123.5t-59 -91q25 6 60.5 11t75.5 10.5t82 7.5t79 2q86 0 138 -2t75 -7q31 -6 40 -19t9 -30q0 -25 -24.5 -63.5t-51.5 -59.5q-16 16 -57 28.5t-134 12.5q-53 0 -133 -5t-209 -25 q-18 -4 -29.5 -5.5t-37.5 -1.5q-43 0 -45 31z" />
<glyph unicode="{" horiz-adv-x="684" d="M123 571q0 37 27 41q43 4 86 16.5t81 65.5q18 25 34 87.5t28 134t21.5 141t17.5 106.5q8 43 16 82t21.5 74t36 66.5t59.5 62.5q16 14 44 28.5t54.5 27t49 20.5t28.5 8h12.5t8.5 -10t-10.5 -13.5t-18.5 -5.5q-35 -10 -68 -37.5t-49 -60.5q-8 -12 -17.5 -46t-18.5 -78 t-18 -94t-18 -95q-10 -59 -20 -116.5t-23.5 -108t-28 -90.5t-30.5 -62q-27 -47 -68 -75t-116 -42l-2 -8q80 -18 115.5 -65.5t48 -97.5t8.5 -95t-6 -62l-54 -342q-8 -51 -8 -97t10.5 -81t32 -55.5t55.5 -20.5q6 0 14.5 1t8.5 -15q0 -14 -8 -14h-17q-92 0 -157.5 54t-65.5 159 q0 35 12.5 100.5t26.5 144t26.5 158.5t12.5 146q0 27 -8 53t-26.5 47.5t-48.5 35t-73 13.5q-12 0 -15 5t-3 9z" />
<glyph unicode="|" horiz-adv-x="296" d="M0 -444l502 2086h90l-504 -2086h-88z" />
<glyph unicode="}" horiz-adv-x="684" d="M0 -346q0 10 10 13t19 5q35 10 67.5 38t48.5 61q8 12 17.5 45.5t18.5 78t18.5 94.5t17.5 95q8 57 19.5 115.5t24.5 108.5t27.5 90t30.5 63q27 47 68 74.5t117 42.5l2 8q-80 18 -116 65t-48 97.5t-8 95.5t6 61l53 342q8 51 8 97.5t-10 81t-31.5 55t-56.5 20.5q-6 0 -14 -1 t-8 16q0 14 8 14h16q92 0 157.5 -54.5t65.5 -158.5q0 -35 -12 -100.5t-26.5 -144.5t-26.5 -160t-12 -144q0 -27 8 -53.5t26.5 -48t48 -35t72.5 -13.5q12 0 15.5 -5t3.5 -9q0 -37 -27 -41q-43 -4 -86 -16t-82 -66q-18 -25 -33.5 -87t-28 -134t-21.5 -141.5t-17 -106.5 q-10 -43 -17.5 -82t-20.5 -73.5t-36 -66.5t-59 -62q-16 -14 -44 -28.5t-54.5 -27t-49 -20.5t-29.5 -8h-12t-8 10z" />
<glyph unicode="~" horiz-adv-x="1107" d="M106 471q29 33 62 71t73 68.5t90 51t113 20.5q39 0 97.5 -22.5t117 -50t108.5 -50t71 -22.5q23 0 46 4t48.5 18t55.5 40t65 67l26 -23q-156 -211 -303 -211q-47 0 -99 23.5t-105.5 52.5t-103.5 52.5t-93 23.5q-57 0 -121 -32t-127 -108z" />
<glyph unicode="&#xa9;" horiz-adv-x="1726" d="M147 715q0 150 56.5 281.5t155 230t230.5 155t283 56.5q152 0 285 -56.5t231.5 -155t156 -230t57.5 -281.5q0 -152 -57.5 -285t-156 -231.5t-231.5 -155.5t-285 -57t-283.5 57t-230 155.5t-155 231.5t-56.5 285zM213 715q0 -137 52 -258t141.5 -212t209 -143.5 t256.5 -52.5t258 52.5t212.5 143.5t143.5 212t52 258t-52 257t-143.5 209t-212 141t-258.5 52q-137 0 -256.5 -52t-209 -141t-141.5 -209t-52 -257zM565 526q-2 117 43 223.5t135 206.5q39 45 83 78t85 55.5t77 34t63 11.5q31 0 61.5 -11.5t30.5 -52.5q0 -59 -13 -110 q-4 -16 -14 -38t-31 -38q-27 -23 -50 -30t-36 -7q-8 0 -12 10l12 35q10 31 15.5 58.5t7.5 64.5q0 35 -39 35q-53 0 -102.5 -40t-87 -104.5t-60 -146.5t-22.5 -168q0 -90 37 -139q18 -25 44.5 -34t73.5 -9q33 0 62.5 12t58.5 29q8 4 15.5 8t13.5 4q8 0 15 -6t7 -23 q0 -6 -21.5 -22.5t-60 -34t-90 -30.5t-110.5 -13q-82 0 -135.5 47t-55.5 145z" />
<glyph unicode="&#xab;" horiz-adv-x="696" d="M97.5 524.5q-9.5 55.5 2.5 102.5q33 51 92.5 108.5t120 104.5t109.5 77.5t59 30.5q14 0 15 -16q0 -16 -44 -54t-94 -85q-47 -43 -84.5 -82t-58.5 -80q0 -41 8 -88t19.5 -88t20.5 -73t9 -44q0 -27 -6 -40t-22 -28q-16 -14 -23.5 -21t-10.5 -10t-6 -3h-11q-14 0 -24.5 16 t-20 41.5t-16.5 58.5t-15 68q-10 49 -19.5 104.5zM363.5 524.5q-9.5 55.5 3.5 102.5q33 51 84 100t100 86t89 59.5t50 22.5q16 0 15.5 -3t-0.5 -13q0 -16 -27 -39t-62.5 -52.5t-73.5 -68.5t-61 -84q4 -39 15.5 -81t22.5 -79t20.5 -65.5t9.5 -40.5q0 -27 -11.5 -43.5 t-27.5 -30.5t-23.5 -21.5l-10.5 -10.5t-6 -3h-11q-29 0 -44.5 46t-31.5 114q-10 49 -19.5 104.5z" />
<glyph unicode="&#xad;" horiz-adv-x="620" d="M45 395q0 31 14.5 47.5t36 23.5t49 9t52.5 2h206q27 0 58 1t57.5 3t46 3t25.5 1q27 0 34 -7t7 -15q0 -12 -16.5 -24.5t-41 -21.5t-53 -17.5t-53.5 -12.5q-27 -4 -82 -6t-111 -4q-65 -2 -139 -2q-14 0 -29.5 -2t-29 -1t-22.5 6t-9 17z" />
<glyph unicode="&#xae;" horiz-adv-x="1726" d="M147 715q0 150 56.5 281.5t155 230t230.5 155t283 56.5q152 0 285 -56.5t231.5 -155t156 -230t57.5 -281.5q0 -152 -57.5 -285t-156 -231.5t-231.5 -155.5t-285 -57t-283.5 57t-230 155.5t-155 231.5t-56.5 285zM213 715q0 -137 52 -258t141.5 -212t209 -143.5 t256.5 -52.5t258 52.5t212.5 143.5t143.5 212t52 258t-52 257t-143.5 209t-212 141t-258.5 52q-137 0 -256.5 -52t-209 -141t-141.5 -209t-52 -257zM479 324q0 18 10.5 47.5t22.5 64.5q12 37 20.5 60.5t24.5 69.5t50 136.5t98 262.5q14 41 25 74.5t20 62.5q-16 0 -25 2 q-10 0 -12 12q0 14 30 23q35 10 103.5 17t138.5 7q133 0 192.5 -37.5t59.5 -115.5q0 -41 -19.5 -81t-56.5 -75q-55 -53 -118.5 -78.5t-141.5 -38.5q10 -25 26.5 -63.5t39.5 -83.5q35 -66 63.5 -111t52 -77.5t41 -53t31.5 -37.5q0 -14 -33 -14q-37 0 -73.5 16.5t-83.5 75.5 q-10 14 -30 43t-41.5 67t-45 82t-43.5 87q-33 68 -33 86q0 14 33 14h39q12 0 38.5 2t59.5 10t66.5 25.5t62.5 46.5q49 49 49 117q0 158 -164 157q-20 0 -43.5 -1t-42.5 -5q-4 -8 -4 -9t-6 -18.5t-21.5 -60.5t-47.5 -135q-57 -166 -89 -262t-49 -148q-4 -10 -9 -41.5 t-9 -48.5q-4 -6 -7 -13t-10 -15q-16 -16 -48.5 -40t-57.5 -24q-33 0 -33 19z" />
<glyph unicode="&#xbb;" horiz-adv-x="696" d="M17.5 271q0.5 3 0.5 14q0 14 27 37.5t62.5 53.5t73.5 67.5t61 84.5q-4 39 -15.5 81t-22.5 79t-20.5 66t-9.5 41q0 27 11.5 43t27.5 30t23.5 21.5l10.5 10.5t6 3h11q29 0 44.5 -46t31.5 -114q10 -49 19.5 -104t-3.5 -102q-33 -53 -84 -101.5t-100 -85.5t-89 -59.5 t-50 -22.5q-16 0 -15.5 3zM227 231q0 16 44 54.5t94 85.5q47 43 84.5 82t58.5 79q0 41 -8 87.5t-19.5 88.5t-20.5 73.5t-9 43.5q0 27 6 40.5t22 27.5t23.5 21.5l10.5 10.5t6 3h11q14 0 24.5 -16.5t20 -42t16.5 -59.5t15 -67q10 -49 19.5 -104t-2.5 -102 q-33 -53 -92.5 -109.5t-120 -104t-109.5 -78t-59 -30.5q-14 0 -15 16z" />
<glyph unicode="&#x2dc;" horiz-adv-x="980" d="M74 1200q29 33 61.5 71t72.5 68.5t90 51t114 20.5q39 0 87 -22.5t96 -50t88 -50t60 -22.5q23 0 46.5 4t49 18.5t55.5 40t64 66.5l27 -23q-156 -211 -303 -211q-47 0 -95 23.5t-94.5 52.5t-85 52.5t-65.5 23.5q-57 0 -120.5 -32t-127.5 -107z" />
<glyph unicode="&#x401;" horiz-adv-x="942" d="M55 -25q0 33 18.5 93.5t37.5 136.5q6 27 25.5 100.5t43 157.5t44 158.5t26.5 101.5h-25q-43 0 -43 22q0 37 25 54q23 10 67 14q20 68 37 116t30 90t26.5 85t29.5 100q4 18 12.5 50t12.5 55h-24.5t-28.5 2q-27 2 -29 22q0 18 41 37q20 10 44 16.5t52 12.5q57 10 103 12 q23 2 55.5 3t75.5 1q55 2 98 1t74 1q47 2 77.5 6t59.5 4q12 0 26.5 -5t14.5 -17q0 -18 -39 -39q-27 -14 -80 -28.5t-123 -14.5h-76q-18 0 -43.5 -2t-48.5 -4q-27 -2 -55 -4l-49 -170l-103 -328h93l186 8q37 2 41 -22q0 -18 -47 -37q-23 -10 -45.5 -15.5t-61.5 -11.5 q-31 -4 -78 -6t-112 -4q-27 -88 -49 -172q-20 -72 -42 -154t-36 -147q-8 -35 -11 -75t-16 -83q-2 -6 -4 -13t-4 -13l-6 -13h264l186 9q41 4 41 -23q0 -14 -40.5 -36.5t-122.5 -39.5q-18 -4 -58.5 -5t-101.5 -3h-117.5t-116.5 -4h-31.5t-31.5 -2l-12 -4q-12 -4 -21 -4 q-35 0 -35 30zM496 1589q4 59 30.5 95t96.5 36q43 0 55 -22.5t10 -69.5q-4 -47 -32.5 -84t-88.5 -37q-41 0 -57 16.5t-14 65.5zM784 1593q4 59 31 95t96 36q43 0 55.5 -22.5t10.5 -69.5q-4 -47 -33 -84t-88 -37q-41 0 -57.5 16.5t-14.5 65.5z" />
<glyph unicode="&#x402;" horiz-adv-x="1150" d="M133 -25q0 18 14.5 82t36 144t44 162.5t38.5 142.5q8 29 24.5 87t38 131t44 150.5t42 145t34 115t16.5 59.5q4 18 8 32.5t10 33.5q4 12 13.5 29.5t21.5 33.5l-258 -6q-10 0 -26.5 -1t-26.5 -1q-37 0 -37 22q0 41 29 56q12 6 35.5 9t48.5 5q47 4 94 3t74 -1q176 4 284.5 5 t151.5 3l186 8q37 2 41 -22q0 -12 -21.5 -24.5t-58.5 -22.5q-29 -6 -56.5 -14.5t-70.5 -12.5q-10 -2 -38.5 -2h-63.5t-67.5 -1t-53.5 -1q-12 -33 -25 -68q-10 -29 -22 -62.5t-21 -61.5q-12 -43 -21 -75t-18.5 -62.5t-20.5 -66.5t-26 -85q25 4 77 12t100 8q170 0 262 -70.5 t92 -232.5q0 -74 -19.5 -158t-56.5 -168.5t-91 -164.5t-122 -144q-49 -45 -104.5 -86t-113.5 -71.5t-115.5 -49t-106.5 -18.5q-170 0 -170 59q0 12 28 13q20 0 31.5 -1t21 -3t21.5 -3.5t35 -1.5q27 0 69 7.5t90 27t100 52t101 86.5q66 70 110 158.5t69.5 172.5t36 155 t10.5 107q0 123 -52.5 192t-181.5 69q-41 0 -74.5 -8.5t-68.5 -16.5q-16 -57 -31.5 -112.5t-32.5 -110.5l-37.5 -137.5t-35.5 -151.5q-4 -18 -6.5 -38.5t-6.5 -43.5q-8 -53 -16 -84t-27 -51q-10 -12 -26.5 -27.5t-36 -29t-38.5 -23.5t-36 -10q-45 0 -45 28z" />
<glyph unicode="&#x403;" horiz-adv-x="1050" d="M55 -25q0 10 5.5 36t17.5 73q20 72 33.5 128t26 104.5t23.5 93.5t27 96q23 80 39.5 139.5t28.5 99.5l141 480q6 18 13.5 52t11.5 52h-24.5t-28.5 2q-27 2 -29 23q0 18 41 37q39 18 92 29.5t107 11.5h64.5t78.5 1t83 2t77 3q14 0 35.5 2t41 4t37 3t23.5 1q12 0 26.5 -1 t14.5 -15q0 -16 -9.5 -25.5t-29.5 -20.5q-27 -14 -78 -28.5t-125 -14.5q-18 0 -47 -1t-59.5 -2t-61 -3t-55.5 -4l-49 -170l-180 -620q-18 -66 -38 -137.5t-36 -151.5q-4 -18 -6 -38.5t-6 -43.5q-6 -43 -13 -68q-4 -18 -12 -36.5t-18 -30.5t-27.5 -27.5t-37 -30t-39 -23.5 t-34.5 -9q-16 0 -30.5 6t-14.5 22zM655 1524q0 6 13.5 30.5t34 57.5t41 67.5t36.5 59.5q29 47 66 72.5t98 25.5q18 0 21.5 -6.5t3.5 -22.5q0 -8 -23.5 -38.5t-61.5 -71.5t-84 -86t-89 -84q-4 -4 -18.5 -12.5t-24.5 -8.5t-11.5 4.5t-1.5 12.5z" />
<glyph unicode="&#x404;" horiz-adv-x="1028" d="M68 315q-2 92 17 191.5t58 212.5q74 221 195 378.5t272 254.5q68 43 134.5 64.5t115.5 21.5q33 0 63.5 -4t51.5 -21q10 -10 16 -34.5t6 -51.5q0 -37 -6 -81t-24 -68q-14 -18 -52 -40t-86 -22q-12 0 -14 14q10 27 19.5 67t9.5 69q0 31 -22.5 44t-61.5 13q-72 0 -144.5 -43 t-138 -118t-121 -178t-88.5 -224q43 6 99.5 8t109.5 2q43 0 74 1t58.5 1t57 1t68.5 1q18 0 39 -3t21 -15q0 -10 -34 -30.5t-120 -31.5q-51 -6 -96 -9t-105 -5q-49 -2 -100 0t-90 4q-12 -59 -19.5 -120.5t-7.5 -127.5q0 -172 76 -269t219 -97q47 0 106.5 19.5t100.5 39.5 q6 2 18.5 10t26.5 15.5t26.5 13.5t18.5 6q18 0 19 -29q0 -18 -89 -71q-82 -49 -174 -82t-184 -33q-145 0 -231 94t-88 262z" />
<glyph unicode="&#x405;" horiz-adv-x="729" d="M-27 141q-2 63 40 108.5t114 47.5q0 -53 11.5 -99t40 -80t79.5 -53.5t129 -19.5q94 0 160.5 28.5t109.5 72.5t62.5 97.5t19.5 104.5q0 53 -30.5 108.5t-92.5 106.5q-117 98 -189.5 165t-112.5 118t-53 95t-13 95q0 82 39 159t105.5 136.5t155.5 95t191 35.5 q109 0 176.5 -29.5t94.5 -68.5q6 -35 6 -57.5t-21 -51.5q-10 -16 -31.5 -33.5t-56.5 -33.5q-2 31 -12 64.5t-34.5 62t-66.5 47t-104 18.5q-55 0 -107.5 -16t-93 -50t-66.5 -84t-26 -116q0 -78 39 -138.5t95.5 -114.5t123 -104t121.5 -106q53 -53 84 -114.5t31 -114.5 q0 -104 -49 -190.5t-132 -149t-191.5 -97t-225.5 -34.5q-45 0 -100.5 11t-103.5 33.5t-81 59.5t-35 86z" />
<glyph unicode="&#x406;" horiz-adv-x="555" d="M55 -25q0 8 7.5 39t16.5 68t18 71.5t14 51.5q29 115 64.5 249t80.5 291q25 88 53.5 184.5t54 179.5t43 141.5t21.5 68.5q14 37 28.5 58.5t29 33.5t30.5 17.5t35 9.5q18 4 33.5 5t33.5 1q14 0 15 -19q0 -10 -24.5 -70.5t-67.5 -191.5q-16 -47 -37 -115.5t-44.5 -151.5 t-50 -173t-51.5 -180q-18 -66 -37.5 -141.5t-35.5 -147.5q-10 -45 -13.5 -77t-7.5 -54q-6 -39 -18 -60q-6 -10 -23.5 -29.5t-40 -39t-45 -33.5t-37.5 -14q-14 0 -29.5 3t-15.5 25z" />
<glyph unicode="&#x407;" horiz-adv-x="555" d="M55 -25q0 8 7.5 39t16.5 68t18 71.5t14 51.5q29 115 64.5 249t80.5 291q25 88 53.5 184.5t54 179.5t43 141.5t21.5 68.5q14 37 28.5 58.5t29 33.5t30.5 17.5t35 9.5q18 4 33.5 5t33.5 1q14 0 15 -19q0 -10 -24.5 -70.5t-67.5 -191.5q-16 -47 -37 -115.5t-44.5 -151.5 t-50 -173t-51.5 -180q-18 -66 -37.5 -141.5t-35.5 -147.5q-10 -45 -13.5 -77t-7.5 -54q-6 -39 -18 -60q-6 -10 -23.5 -29.5t-40 -39t-45 -33.5t-37.5 -14q-14 0 -29.5 3t-15.5 25zM365 1581q2 59 28.5 93t93.5 34q41 0 53.5 -21.5t10.5 -66.5q-4 -45 -31.5 -81t-87.5 -36 q-41 0 -55.5 15.5t-11.5 62.5zM643 1585q4 59 30.5 93t92.5 34q43 0 54 -21.5t9 -66.5t-29.5 -82t-86.5 -37q-41 0 -56.5 16.5t-13.5 63.5z" />
<glyph unicode="&#x408;" horiz-adv-x="741" d="M-123 -117q0 18 18.5 30.5t48 39.5t67.5 81t77 156q23 61 62.5 196.5t105.5 358.5l141 480q18 61 35 99t34 60.5t37.5 35t47.5 18.5q18 4 38.5 5t37.5 1q14 0 14 -19q0 -10 -24.5 -71.5t-67.5 -190.5q-16 -47 -25.5 -75.5t-15.5 -50t-12.5 -43t-16.5 -52.5 q-10 -29 -29.5 -103.5t-54.5 -191.5q-45 -147 -78.5 -244.5t-61.5 -162t-53.5 -105.5t-54.5 -76q-23 -27 -57.5 -59.5t-71 -61t-69.5 -48t-51 -19.5q-20 0 -21 12z" />
<glyph unicode="&#x409;" horiz-adv-x="1560" d="M-6 31q0 39 17.5 100.5t47 136t70.5 154.5t88 156q139 223 284.5 402t280.5 302q16 16 41 32.5t58 39.5q61 41 94 49q16 4 28.5 6t24.5 6q20 6 57 6t39 -32v-28.5t-2 -23.5q0 -8 -14 -50t-27 -83q-16 -53 -30.5 -109.5t-26.5 -105.5t-21.5 -87t-13.5 -56q33 8 77 13t95 5 q168 0 267.5 -71.5t99.5 -227.5q0 -147 -129 -297q-98 -111 -214 -171t-216 -89q-47 -12 -107.5 -18t-107.5 -6h-56q-10 0 -24.5 1t-27.5 5t-22.5 13t-9.5 28q0 18 5.5 38.5t11.5 45.5l137 501q29 104 53.5 192.5t46.5 162.5q14 43 26.5 89t23 85t16.5 66.5t6 35.5 q-6 8 -16 17q-6 6 -23 6q-18 0 -72 -39q-41 -31 -84 -72q-86 -86 -184 -220t-196 -308q-39 -68 -71 -138.5t-61 -144.5q-53 -145 -73 -293q-16 -39 -54 -61q-35 -23 -61 -27q-33 0 -43 17q-4 12 -8 47zM786 70q10 0 21.5 -1t40.5 -1q27 0 54.5 1t58.5 5q92 16 172.5 62 t142.5 136q88 132 88 265q2 246 -260 245q-29 0 -61.5 -4t-75.5 -14l-131 -494q-14 -51 -26.5 -103t-23.5 -97z" />
<glyph unicode="&#x40a;" horiz-adv-x="1634" d="M55 -25q0 35 51 242q10 41 27 106.5t43 159.5q8 31 19.5 73t27.5 97l-133 -26q-18 0 -20 24q0 20 11 37t46 31q23 10 61.5 18t67.5 13l141 475q6 23 14.5 47t16.5 47q12 37 25.5 58.5t28 32.5t31.5 16.5t38 11.5q18 4 33.5 5t33.5 1q14 0 15 -19q0 -10 -21.5 -73.5 t-64.5 -194.5q-16 -47 -34.5 -104.5t-35 -111.5t-30 -98t-17.5 -65q23 2 76 7.5t118.5 10.5t132 10t113.5 9q10 33 21 70q10 31 22.5 69.5t24.5 79.5q23 78 40 127t26 72q29 80 51 116.5t37 45.5q49 27 88 30q20 2 39 0q6 0 10 -3t4 -15q0 -4 -10.5 -30.5t-23.5 -63.5 t-28.5 -78t-27.5 -78q-16 -49 -31.5 -97t-28 -89t-22.5 -73t-14 -50q33 8 76.5 13t95.5 5q168 0 267 -71.5t99 -227.5q0 -147 -129 -297q-98 -111 -214 -171t-216 -89q-47 -12 -107.5 -18t-107.5 -6h-55q-10 0 -24.5 1t-28 5t-22.5 13t-9 28q0 18 5 38.5t11 45.5l164 618 q-47 -4 -109.5 -9t-126 -11t-120 -12.5t-93.5 -12.5q-10 -31 -24 -78t-29.5 -105t-32 -123t-30.5 -128q-6 -23 -11.5 -50.5t-9.5 -51.5q-6 -29 -8 -58q0 -14 -18 -41q-25 -37 -78 -78q-37 -31 -62 -30q-43 0 -45 28zM844 72q10 0 21.5 -1t39.5 -1q27 0 54.5 1t58.5 5 q92 16 173 62t142 136q88 132 88 265q2 246 -260 245q-31 0 -69.5 -5t-73.5 -19l-125 -488q-12 -49 -25.5 -102t-23.5 -98z" />
<glyph unicode="&#x40b;" horiz-adv-x="1150" d="M133 -25q0 18 14.5 82t36 144t44 162.5t38.5 142.5q8 29 24.5 88t37 132t44 150.5t43 144t33 114t17.5 59.5q6 18 9 32.5t9 33.5q4 12 13.5 29.5t21.5 33.5l-258 -6q-10 0 -26.5 -1t-26.5 -1q-37 0 -37 22q0 41 29 56q12 6 71.5 11t180.5 5q63 0 131.5 1t129 2t106.5 3 t69 2l186 8q37 2 41 -22q0 -12 -21.5 -24.5t-58.5 -22.5q-29 -6 -56.5 -12.5t-70.5 -14.5q-10 0 -38.5 -1t-63.5 -1t-67.5 -1t-53.5 -1q-12 -33 -25 -68q-10 -29 -22 -62.5t-21 -61.5q-12 -43 -21 -75t-18.5 -62.5t-20.5 -66.5t-26 -85q25 4 77 12t100 8q170 0 248.5 -68.5 t78.5 -191.5q0 -43 -6 -96t-14 -108.5t-19.5 -112t-19.5 -107.5q-10 -49 -11 -73.5t-6 -28.5q-10 -31 -40 -66q-29 -29 -47.5 -43t-41.5 -14q-4 0 -10 1t-12 10t-11 29.5t-5 57.5q0 33 13 99.5t28.5 145.5t28.5 158t13 134q0 45 -10 83t-35.5 65.5t-69.5 42t-112 14.5 q-29 0 -48 -3.5t-33.5 -7.5t-28 -9t-29.5 -9q-16 -57 -31.5 -112.5t-32.5 -110.5l-37.5 -137.5t-35.5 -151.5q-4 -18 -6.5 -38.5t-6.5 -43.5q-8 -53 -16 -84t-27 -51q-10 -12 -26.5 -27.5t-36 -29t-38.5 -23.5t-36 -10q-45 0 -45 28z" />
<glyph unicode="&#x40c;" horiz-adv-x="1249" d="M12 18q0 6 3 21.5t14 44.5q35 104 65.5 194.5t60 180.5t61.5 190.5t73 224.5q37 115 65.5 219.5t51.5 180.5q8 29 12 56.5t8 37.5q8 25 31.5 41t51.5 26.5t55.5 14.5t45.5 4t19 -18q0 -12 -56 -172l-155 -463q92 111 232.5 261t332.5 310q35 29 69.5 42t63.5 13 q62 0 62 -102q0 -12 -2 -28.5t-13 -41.5q-6 -16 -17 -32.5t-34 -28.5q-31 -18 -61 -23q4 12 6 25.5t2 30.5q0 29 -10.5 37t-36.5 8q-29 0 -95.5 -41t-146.5 -125q-57 -57 -113.5 -116.5t-95.5 -112.5q33 -98 64.5 -187.5t70.5 -185.5q29 -74 51.5 -127t43 -99.5t41 -89.5 t49.5 -94q18 -33 37.5 -54.5t35.5 -35.5q-10 -20 -37.5 -29.5t-58.5 -9.5q-55 0 -93 32t-77 109q-14 27 -24.5 52.5t-21.5 53.5t-24.5 62.5t-31.5 81.5q-16 37 -38 93.5t-45.5 117t-47 116.5t-41.5 93q-33 -104 -66 -207q-29 -88 -60.5 -188t-58.5 -186q-25 -82 -50 -126 t-48 -55q-29 -12 -48.5 -18t-39.5 -6q-31 0 -31 28zM799 1524q0 6 13 30.5t33.5 57.5t41 67.5t37.5 59.5q29 47 65.5 72.5t97.5 25.5q18 0 21.5 -6.5t3.5 -22.5q0 -8 -23.5 -38.5t-61.5 -71.5t-84 -86t-89 -84q-4 -4 -18.5 -12.5t-24.5 -8.5t-11 4.5t-1 12.5z" />
<glyph unicode="&#x40e;" horiz-adv-x="1165" d="M-57 16q0 14 16 15q16 0 45 -15.5t78 -15.5q121 0 211 46t176 138q35 37 73 96.5t79 149.5t85 212t91 282l-6 2q-25 -27 -66 -69t-92 -89t-111.5 -97t-124.5 -93q-27 -16 -76 -42t-102 -26q-29 0 -45 18.5t-16 51.5q0 16 5 43.5t15 58.5q29 86 50.5 154.5t39.5 121.5 q35 109 55.5 177.5t31 110.5t12.5 62.5t2 32.5q0 20 -7.5 21.5t-13.5 1.5t-17.5 -5t-22.5 -11.5t-21.5 -11.5t-14.5 -5q-10 0 -10 12q0 14 14.5 24.5t34.5 21.5q14 8 45 21t66 25.5t70.5 21.5t60.5 9q18 0 18 -24q0 -10 -6 -31.5t-14 -44.5q-35 -111 -63.5 -195t-55.5 -174 q-12 -37 -26.5 -87t-26.5 -96t-21.5 -83t-9.5 -47q0 -16 6 -19t21 -3q14 0 48 18t77 49t90 72t90 88q100 106 156 211q16 57 30.5 105t30.5 87q16 37 29.5 58.5t25.5 33.5q29 29 57.5 38.5t63.5 9.5q29 0 29 -33q0 -31 -13.5 -71t-33 -81t-41 -80t-35.5 -65 q-20 -76 -42 -161t-48 -163q-59 -178 -114.5 -318.5t-137.5 -246.5q-98 -123 -230.5 -189.5t-293.5 -66.5q-74 0 -122 16.5t-48 42.5zM608 1583q0 8 3 21.5t7 23.5q10 29 31 50.5t56 21.5q12 0 21 -6t29.5 -13.5t54.5 -13.5t95 -6q47 0 108.5 34t102.5 89q25 31 31 67 q6 37 49 37q25 0 25 -33q0 -16 -20.5 -53t-61.5 -78q-84 -82 -162 -122q-68 -35 -133.5 -52.5t-112.5 -17.5q-49 -2 -86 13.5t-37 37.5z" />
<glyph unicode="&#x40f;" horiz-adv-x="1118" d="M47 55q0 23 14.5 79t44.5 153q51 158 87 270.5t63 198.5t48.5 156.5t43.5 144.5q18 59 34.5 127.5t27.5 105.5q12 45 32.5 79t61.5 50q18 8 42.5 11.5t47.5 3.5q16 0 16 -19q0 -27 -9 -78t-32 -123q-29 -86 -52 -160.5t-45.5 -144t-45.5 -137t-45 -137.5 q-23 -70 -44.5 -138.5t-36.5 -126t-24.5 -97.5t-9.5 -54q0 -23 15 -22q18 0 76.5 59t154.5 172q18 23 66.5 82t112 142t135 181.5t139.5 198.5q33 49 55 86t38.5 68t30 56.5t27.5 51.5q29 51 50.5 70.5t52.5 32.5q20 8 47.5 10t40.5 2q16 0 16 -18q0 -25 -26.5 -80.5 t-67.5 -171.5q-41 -117 -73 -222.5t-60 -203.5q-31 -115 -58.5 -236t-52.5 -254q-6 -31 -9 -61.5t-13 -65.5q-12 -35 -68 -76q-10 -8 -26.5 -13t-32.5 -5q-20 0 -25.5 12.5t-5.5 28.5q0 10 1 36.5t5 45.5q4 29 13.5 67.5t19.5 79.5q4 20 16 68.5t27.5 114t34 140.5t36 144.5 t33 128t25.5 93.5q-37 -49 -70 -93.5t-81 -106t-119.5 -150.5t-186.5 -230q-49 -61 -90 -110.5t-80 -94.5t-78 -85t-84 -83q-16 -16 -52 -34.5t-71 -18.5q-57 0 -57 100zM258 -707q39 47 64.5 114t44 141.5t31 151.5t22.5 144q10 66 52 152t134 180l17 -4 q-25 -53 -36.5 -105.5t-21.5 -132.5q-4 -35 -8 -84t-14.5 -106t-30.5 -121.5t-57 -130.5q-39 -72 -80 -119t-107 -96z" />
<glyph unicode="&#x410;" horiz-adv-x="1132" d="M-6 31q-2 68 78 256q35 78 69.5 149.5t71.5 136.5q-23 -8 -44.5 -16t-39.5 -8t-18 29q0 25 20 36q10 8 31.5 14.5t54.5 16.5l49 14q63 94 127 183.5t139 175.5q74 84 137.5 148.5t118.5 111.5q51 41 106.5 79t80.5 46q31 10 50 14t60 4q39 0 39 -32q0 -20 -1 -31t-1 -21 q0 -16 -22.5 -99t-67.5 -245q-31 -109 -48 -175t-26 -95l48 2q18 0 18 -8q0 -16 -20 -37q-16 -16 -62 -21q-43 -182 -68 -319q-10 -68 -15 -117t-7 -80q0 -33 -8 -49q-6 -10 -20.5 -28.5t-34 -37t-44 -31.5t-49.5 -13q-16 0 -25 11t-9 28q0 29 8 69.5t24 112.5q14 63 41 181 t58 265q-117 0 -240 -16.5t-219 -38.5q-25 -47 -45.5 -90t-36.5 -84q-14 -35 -30.5 -82t-30 -98.5t-22.5 -99.5t-9 -87q-16 -35 -53 -61.5t-62 -26.5q-20 0 -34.5 11.5t-16.5 52.5zM379 676q61 10 136 19.5t140 15.5q78 8 156 10q16 55 36.5 133t47.5 182q23 90 33 142.5 t12 68.5q0 16 -5 20.5t-28 4.5q-14 0 -46 -21.5t-75 -61.5t-95 -96.5t-107 -123.5q-117 -141 -205 -293z" />
<glyph unicode="&#x411;" horiz-adv-x="1073" d="M31 4q0 16 3 35.5t19 75.5l137 501q12 43 48 169t96 339q16 59 29.5 109.5t25.5 95.5q-14 0 -31.5 3t-17.5 22q0 18 38 36.5t99 28.5q57 10 103 13q23 2 55.5 3t75.5 1q100 0 156.5 2t86 4t42 4t24.5 2t26.5 -3t14.5 -20q0 -18 -39 -39q-37 -18 -125 -36q-20 -4 -52 -6.5 t-67 -2.5q-41 -2 -82 -2h-73h-74q-25 -88 -47.5 -163.5t-40.5 -141.5q-18 -63 -29.5 -109t-19.5 -79q29 4 57 8q25 4 55.5 7t59.5 3q170 0 268 -71.5t98 -227.5q0 -74 -27.5 -142.5t-74.5 -130t-110.5 -111.5t-133.5 -87q-111 -59 -210 -84.5t-218 -25.5h-115q-31 0 -30 20z M209 70q10 0 24.5 -1t36.5 -1q51 0 110.5 6t106.5 24q61 23 115.5 65t95.5 98t64.5 126t23.5 150q0 246 -260 245q-23 0 -58.5 -4t-78.5 -14l-131 -494q-14 -51 -28.5 -106t-20.5 -94z" />
<glyph unicode="&#x412;" horiz-adv-x="1036" d="M31 4q0 18 3 36.5t19 74.5l137 501q6 25 40 143t98 335q41 141 61 235h-15t-18 2q-14 2 -16 23q0 23 41 37q25 8 61.5 16t80.5 14t92.5 10.5t95.5 4.5q160 0 246.5 -55.5t86.5 -176.5q0 -129 -78 -220t-225 -165q98 -23 152.5 -88t56.5 -166q2 -160 -119 -303 q-88 -102 -210.5 -162.5t-235.5 -85.5q-53 -10 -103.5 -15t-101.5 -7q-12 0 -29.5 -1t-35 -3t-32.5 -3t-22 -1q-10 0 -20 2t-10 18zM209 70q39 -4 94 -4t94 10q39 8 83 26.5t87 46t81 61.5t65 73q74 111 73 254q0 102 -70.5 155t-183.5 58q-18 0 -30.5 -1t-22.5 -1 q-37 0 -39 26q0 16 15 23q14 6 45 6h30q27 0 68 10q49 14 101.5 43t95.5 72t70.5 101t27.5 130q0 100 -56.5 156.5t-164.5 56.5q-35 0 -61.5 -2t-55.5 -8q-10 -29 -35.5 -119t-73.5 -268l-188 -705q-14 -51 -28.5 -106t-20.5 -94z" />
<glyph unicode="&#x413;" horiz-adv-x="788" d="M55 -25q0 10 5.5 36t17.5 73q20 72 33.5 128t26 104.5t23.5 93.5t27 96q23 80 39.5 139.5t28.5 99.5l141 480q6 18 13.5 52t11.5 52h-24.5t-28.5 2q-27 2 -29 23q0 18 41 37q39 18 92 29.5t107 11.5h64.5t78.5 1t83 2t77 3q14 0 35.5 2t41 4t37 3t23.5 1q12 0 26.5 -1 t14.5 -15q0 -16 -9.5 -25.5t-29.5 -20.5q-27 -14 -78 -28.5t-125 -14.5q-18 0 -47 -1t-59.5 -2t-61 -3t-55.5 -4l-49 -170l-180 -620q-18 -66 -38 -137.5t-36 -151.5q-4 -18 -6 -38.5t-6 -43.5q-6 -43 -13 -68q-4 -18 -12 -36.5t-18 -30.5t-27.5 -27.5t-37 -30t-39 -23.5 t-34.5 -9q-16 0 -30.5 6t-14.5 22z" />
<glyph unicode="&#x414;" horiz-adv-x="1210" d="M-131 -324q0 43 6 96.5t19 123.5q10 63 20 111t25 65q12 4 27.5 6t37.5 2q6 0 12.5 -1t10.5 -1h12q33 61 84 149t118.5 194.5t150.5 229.5t181 256q72 96 140.5 180t126 150t100.5 107.5t66 56.5q27 10 49 15t69 5q41 0 41 -35v-30.5t-2 -18.5q-2 -6 -7 -33.5t-13 -66.5 t-18.5 -82t-19.5 -82t-15.5 -68.5t-8.5 -39.5q-10 -41 -22 -101.5t-25.5 -130t-28 -144.5t-27.5 -142.5t-23.5 -124t-16.5 -91.5q-10 -59 -14 -93t-6 -44q78 29 102 29q16 0 23.5 -6t9.5 -47t-54 -160q-14 -31 -33.5 -71t-41 -80t-46 -76.5t-51.5 -63.5q-25 -25 -39 -25 q-10 0 -10 9q0 8 4 16q16 39 32.5 87t33.5 108q12 47 17 82.5t9 58.5q4 27 5 45l-121 -2l-725 -10q-12 -23 -27.5 -65t-38.5 -101q-20 -59 -35.5 -106.5t-25.5 -88.5q-23 8 -37 49zM172 80l565 12q6 23 17.5 78t29.5 143q29 135 55.5 259t52.5 244t53.5 239t55.5 239 q-12 -6 -41.5 -31.5t-79 -77.5t-116 -138t-152.5 -213q-156 -231 -266 -422t-174 -332z" />
<glyph unicode="&#x415;" horiz-adv-x="942" d="M55 -25q0 33 18.5 93.5t37.5 136.5q6 27 25.5 100.5t43 157.5t44 158.5t26.5 101.5h-25q-43 0 -43 22q0 37 25 54q23 10 67 14q20 68 37 116t30 90t26.5 85t29.5 100q4 18 12.5 50t12.5 55h-24.5t-28.5 2q-27 2 -29 22q0 18 41 37q20 10 44 16.5t52 12.5q57 10 103 12 q23 2 55.5 3t75.5 1q55 2 98 1t74 1q47 2 77.5 6t59.5 4q12 0 26.5 -5t14.5 -17q0 -18 -39 -39q-27 -14 -80 -28.5t-123 -14.5h-76q-18 0 -43.5 -2t-48.5 -4q-27 -2 -55 -4l-49 -170l-103 -328h93l186 8q37 2 41 -22q0 -18 -47 -37q-23 -10 -45.5 -15.5t-61.5 -11.5 q-31 -4 -78 -6t-112 -4q-27 -88 -49 -172q-20 -72 -42 -154t-36 -147q-8 -35 -11 -75t-16 -83q-2 -6 -4 -13t-4 -13l-6 -13h264l186 9q41 4 41 -23q0 -14 -40.5 -36.5t-122.5 -39.5q-18 -4 -58.5 -5t-101.5 -3h-117.5t-116.5 -4h-31.5t-31.5 -2l-12 -4q-12 -4 -21 -4 q-35 0 -35 30z" />
<glyph unicode="&#x416;" horiz-adv-x="1634" d="M-90 12q4 10 11 19.5t13 15.5q113 117 223.5 234.5t227.5 234.5q80 80 156.5 153.5t130.5 125.5q-43 94 -88 191t-117 222q-33 57 -70 96t-78 56q20 35 57.5 68.5t59.5 37.5q37 0 80 -52t86 -144q51 -104 87 -181t59.5 -131.5t36 -86.5t16.5 -48q-29 -29 -159 -147.5 t-327 -347.5q-123 -143 -185 -219t-69 -82q-41 -29 -98 -33q-51 0 -53 18zM559 18q0 6 3 21.5t13 44.5q49 150 94.5 279t87.5 253.5t82 256t81 282.5q8 31 16 66.5t16.5 67.5t13.5 53.5t7 25.5q25 41 57.5 56.5t69.5 25.5q10 4 23.5 3t33.5 1q18 0 19 -18q0 -12 -56 -172 l-155 -463q70 61 123 112.5t102 101.5t100 103t115 119q92 94 139 142t55 55q27 16 80 20q52 0 68 -16q-18 -27 -74.5 -71t-142.5 -122q-61 -57 -127 -116.5t-124 -112.5t-102 -94t-65 -62q35 -104 58.5 -171.5t41.5 -110.5q16 -37 36 -82t39.5 -92.5t41 -94.5t39.5 -86 q29 -59 60.5 -115.5t62.5 -115.5q-4 -16 -18.5 -22.5t-28.5 -6.5q-37 0 -65.5 7t-52 24.5t-45 48.5t-44.5 78q-10 18 -24.5 49t-38 86t-58.5 139t-82 209q-23 55 -41 99.5t-35 74.5q-20 -61 -47 -147q-47 -147 -135 -436q-29 -96 -53.5 -134t-44.5 -47q-59 -25 -88 -24 q-31 0 -31 28z" />
<glyph unicode="&#x417;" horiz-adv-x="1073" d="M0 53q0 18 8 35.5t22.5 31t31 23t32.5 9.5q37 -49 64 -64q45 -23 108 -22q209 -2 355 143q141 141 141 352q0 66 -31 118t-78 73q-14 6 -32.5 10t-34 7t-26.5 7t-13 10q0 18 20 31q25 12 54.5 25.5t87.5 50.5q70 45 125 122t55 185q0 180 -168 180q-100 0 -203 -53 q-51 -27 -91 -77t-42 -111q0 -27 -12 -33q-4 -2 -13.5 -2t-23.5 -2q-41 0 -41 57q-2 43 46 98.5t134 102.5q74 41 154 61.5t145 20.5q63 0 115.5 -7.5t89.5 -26.5t57.5 -55t20.5 -91q0 -80 -66.5 -181.5t-245.5 -222.5q31 -6 64 -21.5t59.5 -46t44 -77.5t17.5 -115t-31 -153 t-90 -156q-72 -86 -147.5 -143.5t-156.5 -91.5t-167 -48t-178 -14q-61 0 -110.5 16.5t-49.5 44.5z" />
<glyph unicode="&#x418;" horiz-adv-x="1316" d="M47 55q0 23 14.5 79t44.5 153q51 158 87 270.5t63 198.5t48.5 156.5t43.5 144.5q18 59 34.5 127.5t27.5 105.5q12 45 32.5 79t61.5 50q18 8 42.5 11.5t47.5 3.5q16 0 16 -19q0 -27 -9 -78t-32 -123q-29 -86 -52 -160.5t-45.5 -144t-45.5 -137t-45 -137.5 q-23 -70 -44.5 -138.5t-36.5 -126t-24.5 -97.5t-9.5 -54q0 -23 15 -22q18 0 76.5 59t154.5 172q18 23 66.5 82t112 142t135 181.5t139.5 198.5q33 49 55 86t38.5 68t30 56.5t27.5 51.5q29 51 50.5 70.5t52.5 32.5q20 8 47.5 10t40.5 2q16 0 16 -18q0 -25 -26.5 -80.5 t-67.5 -171.5q-41 -117 -73 -222.5t-60 -203.5q-31 -115 -58.5 -236t-52.5 -254q-6 -31 -9 -61.5t-13 -65.5q-12 -35 -68 -76q-10 -8 -26.5 -13t-32.5 -5q-20 0 -25.5 12.5t-5.5 28.5q0 10 1 36.5t5 45.5q4 29 13.5 67.5t19.5 79.5q4 20 16 68.5t27.5 114t34 140.5t36 144.5 t33 128t25.5 93.5q-37 -49 -70 -93.5t-81 -106t-119.5 -150.5t-186.5 -230q-49 -61 -90 -110.5t-80 -94.5t-78 -85t-84 -83q-16 -16 -52 -34.5t-71 -18.5q-57 0 -57 100z" />
<glyph unicode="&#x419;" horiz-adv-x="1368" d="M47 55q0 23 14.5 79t44.5 153q51 158 87 270.5t63 198.5t48.5 156.5t43.5 144.5q18 59 34.5 127.5t27.5 105.5q12 45 32.5 79t61.5 50q18 8 42.5 11.5t47.5 3.5q16 0 16 -19q0 -27 -9 -78t-32 -123q-29 -86 -52 -160.5t-45.5 -144t-45.5 -137t-45 -137.5 q-23 -70 -44.5 -138.5t-36.5 -126t-24.5 -97.5t-9.5 -54q0 -23 15 -22q18 0 76.5 59t154.5 172q18 23 66.5 82t112 142t135 181.5t139.5 198.5q33 49 55 86t38.5 68t30 56.5t27.5 51.5q29 51 50.5 70.5t52.5 32.5q20 8 47.5 10t40.5 2q16 0 16 -18q0 -25 -26.5 -80.5 t-67.5 -171.5q-41 -117 -73 -222.5t-60 -203.5q-31 -115 -58.5 -236t-52.5 -254q-6 -31 -9 -61.5t-13 -65.5q-12 -35 -68 -76q-10 -8 -26.5 -13t-32.5 -5q-20 0 -25.5 12.5t-5.5 28.5q0 10 1 36.5t5 45.5q4 29 13.5 67.5t19.5 79.5q4 20 16 68.5t27.5 114t34 140.5t36 144.5 t33 128t25.5 93.5q-37 -49 -70 -93.5t-81 -106t-119.5 -150.5t-186.5 -230q-49 -61 -90 -110.5t-80 -94.5t-78 -85t-84 -83q-16 -16 -52 -34.5t-71 -18.5q-57 0 -57 100zM772 1583q0 8 3 21.5t7 23.5q10 29 31 50.5t55 21.5q12 0 21.5 -6t30 -13.5t54.5 -13.5t95 -6 q47 0 108.5 34t102.5 89q25 31 31 67q6 37 49 37q25 0 24 -33q0 -16 -20.5 -53t-60.5 -78q-84 -82 -162 -122q-68 -35 -133.5 -52.5t-112.5 -17.5q-49 -2 -86 13.5t-37 37.5z" />
<glyph unicode="&#x41a;" horiz-adv-x="1089" d="M12 18q0 6 3 21.5t14 44.5q35 104 65.5 194.5t60 180.5t61.5 190.5t73 224.5q37 115 65.5 219.5t51.5 180.5q8 29 12 56.5t8 37.5q8 25 31.5 41t51.5 26.5t55.5 14.5t45.5 4t19 -18q0 -12 -56 -172l-155 -463q92 111 232.5 261t332.5 310q35 29 69.5 42t63.5 13 q62 0 62 -102q0 -12 -2 -28.5t-13 -41.5q-6 -16 -17 -32.5t-34 -28.5q-31 -18 -61 -23q4 12 6 25.5t2 30.5q0 29 -10.5 37t-36.5 8q-29 0 -95.5 -41t-146.5 -125q-57 -57 -113.5 -116.5t-95.5 -112.5q33 -98 64.5 -187.5t70.5 -185.5q29 -74 51.5 -127t43 -99.5t41 -89.5 t49.5 -94q18 -33 37.5 -54.5t35.5 -35.5q-10 -20 -37.5 -29.5t-58.5 -9.5q-55 0 -93 32t-77 109q-14 27 -24.5 52.5t-21.5 53.5t-24.5 62.5t-31.5 81.5q-16 37 -38 93.5t-45.5 117t-47 116.5t-41.5 93q-33 -104 -66 -207q-29 -88 -60.5 -188t-58.5 -186q-25 -82 -50 -126 t-48 -55q-29 -12 -48.5 -18t-39.5 -6q-31 0 -31 28z" />
<glyph unicode="&#x41b;" horiz-adv-x="1132" d="M-6 31q0 31 17.5 92t48 137t70.5 159t87 159q135 223 282.5 402t282.5 302q53 49 129 94t174 45q37 0 39 -32v-28.5t-2 -23.5q0 -10 -41 -133q-29 -84 -50 -153.5t-41.5 -139t-40 -147.5t-42.5 -176q-27 -113 -37 -197t-14 -133q-2 -35 -2 -64.5t-2 -50.5 q-2 -16 -4 -27.5t-8 -23.5t-21.5 -30.5t-36 -36t-44 -29.5t-42.5 -12q-16 0 -25 8t-9 31q0 25 7 83t20 133.5t29.5 159.5t35.5 158q20 84 37.5 149.5t34 123t32.5 108.5t33 109q27 86 38 132t11 68q0 23 -39 23q-16 0 -59 -29t-97 -82q-119 -115 -252.5 -301t-250.5 -477 q-29 -68 -50.5 -159t-31.5 -167q-16 -35 -55 -61.5t-60 -26.5q-27 0 -39 11.5t-12 52.5z" />
<glyph unicode="&#x41c;" horiz-adv-x="1732" d="M25 20q0 49 18 119t59 162q47 111 112 227.5t167 270.5q41 61 99.5 138t122 155.5t123.5 150.5t105 123q35 29 62 41t63 29q10 4 16.5 3t26.5 1q18 0 19 -21q0 -10 -6 -32.5t-16.5 -64.5t-26 -104.5t-35.5 -152.5q-25 -113 -51.5 -241t-48 -244.5t-38 -210t-22.5 -136.5 q18 20 47 61.5t60.5 86.5t61.5 87t46 67q96 139 163 237t117 172t88 133.5t77 120.5q45 74 71.5 114t42 61.5t25.5 28.5t24 17q27 16 64 22.5t63 6.5q18 0 23.5 -5.5t5.5 -15.5q0 -8 -4 -18t-13.5 -30.5t-22.5 -57.5t-32 -96q-23 -72 -41 -142.5t-38 -142.5t-42 -163 t-41.5 -177t-34 -156.5t-18.5 -99.5q-8 -49 -12 -87t-4 -60q0 -12 3 -25.5t3 -24.5q0 -27 -16 -51q-16 -23 -38 -45t-44.5 -39.5t-43 -28t-34.5 -10.5q-37 0 -37 39q0 29 2 54.5t8.5 61.5t15.5 87t25 131q10 51 31 144.5t46.5 200t52 212t46.5 182.5l-10 9q-37 -53 -89 -131 t-117.5 -173.5t-142.5 -207t-163 -234.5q-43 -61 -81 -118.5t-71.5 -106.5t-59 -85t-44.5 -52q-23 -23 -38 -29t-44 -6q-10 0 -19 12t-9 37q0 27 3 68t9 86q2 18 16.5 90.5t35 176t46 225.5t50 240t47 217t36.5 159q-33 -31 -82 -88.5t-104 -130t-111.5 -154.5t-101.5 -160 q-53 -90 -94 -185t-74 -196q-29 -88 -42 -158.5t-15 -123.5q-8 -10 -25.5 -31t-39 -40.5t-44 -33.5t-39.5 -14q-12 0 -20 19.5t-8 53.5z" />
<glyph unicode="&#x41d;" horiz-adv-x="1165" d="M16 -25q0 35 52 242q10 41 26.5 106.5t42.5 159.5q8 31 19.5 73t27.5 97l-133 -26q-18 0 -20 24q0 20 11 37t46 31q23 10 61.5 18t67.5 13l141 475q6 23 14.5 48t16.5 46q23 63 52.5 85.5t70.5 33.5q18 4 33.5 5t34.5 1q14 0 14 -19q0 -10 -21.5 -73.5t-64.5 -194.5 q-16 -47 -34.5 -104.5t-35 -111.5t-30 -98t-17.5 -65q23 2 76 5t117.5 6.5t131 6.5t113.5 7q25 84 50 164q23 68 45 141.5t41 126.5q27 78 50 114.5t38 45.5q49 27 88 30q20 2 39 0q6 0 10 -3t4 -15q0 -8 -11.5 -36t-26.5 -63.5t-31.5 -76.5t-28.5 -76q-18 -53 -38 -113.5 t-36 -111.5q-20 -61 -37 -119h21q10 0 18 1t18 1q8 0 16.5 -3t8.5 -13q0 -39 -37 -56q-23 -10 -43 -12q-12 -2 -24 -2q-18 -68 -33 -132.5t-29 -129.5q-4 -23 -15.5 -88.5t-21.5 -153.5q-2 -25 -3 -39t-3 -23t-4 -17.5t-6 -22.5q-6 -20 -15.5 -33.5t-25.5 -32.5 q-29 -29 -47.5 -43t-40.5 -14q-4 0 -10.5 1t-11.5 10t-8 29.5t-3 57.5q0 14 5 52t13.5 90.5t20.5 115t27 127.5q6 31 16 73t20 79l23 90q-47 -4 -109.5 -7t-125 -7t-119 -8.5t-92.5 -10.5q-10 -31 -24.5 -78t-30 -105t-32 -123t-30.5 -128q-6 -23 -11.5 -50.5t-9.5 -51.5 q-6 -29 -8 -58q-2 -20 -18 -41q-14 -18 -31.5 -36.5t-46.5 -41.5q-18 -16 -37.5 -24t-30.5 -8q-18 0 -28.5 6t-10.5 24z" />
<glyph unicode="&#x41e;" horiz-adv-x="1267" d="M90 268q0 86 23.5 180.5t66.5 191.5t100.5 192.5t125.5 183.5q37 49 81.5 98t93 93t97.5 82t96 65q43 25 81 36t65 11q47 23 79.5 30t79.5 7q51 0 93 -23.5t73 -66.5t47.5 -102.5t16.5 -129.5q2 -328 -248 -713q-66 -100 -141.5 -181t-158.5 -138t-171 -89t-174 -32 q-154 0 -239 75t-87 230zM279 334q0 -115 55 -186.5t188 -71.5q47 0 99.5 18.5t104.5 52t101.5 80.5t92.5 107q47 68 84.5 149.5t63.5 173t39 188.5t13 193q0 127 -46 197t-124 72q-311 8 -534 -451q-61 -129 -99 -267t-38 -255z" />
<glyph unicode="&#x41f;" horiz-adv-x="1208" d="M20 -25q0 12 14.5 73t35 140.5t43 166.5t41.5 151q37 137 64.5 234.5t47 168t33.5 118.5t25.5 87t21.5 73t23 77q4 14 7 24t13 29q-18 2 -20 22q0 43 41 58q23 6 49 10t61 4h563l187 8q37 2 41 -22q0 -12 -19 -27q-10 -4 -23.5 -9t-33.5 -13q-33 -80 -70 -197 q-33 -100 -78 -250.5t-100 -357.5q-25 -94 -37 -149.5t-19 -94.5t-12.5 -71.5t-17.5 -82.5q-6 -23 -20.5 -50t-37 -51t-51 -40t-59.5 -16q-43 0 -45 28q0 8 6 36t14.5 63t18.5 70.5t16 60.5q49 186 96.5 356t88.5 311.5t72.5 249t48.5 168.5l-482 -6q-6 -10 -20.5 -52 t-34.5 -102.5t-44 -138.5t-48.5 -161t-47 -168t-40.5 -160q-20 -86 -32.5 -138.5t-23 -97.5t-20.5 -91t-25 -120q-2 -10 -7 -26.5t-21 -32.5q-10 -12 -26.5 -27.5t-36 -29t-39 -23.5t-35.5 -10q-45 0 -46 28z" />
<glyph unicode="&#x420;" horiz-adv-x="1073" d="M18 -12q0 10 2.5 23.5t8.5 35.5q18 68 41.5 156t52.5 186q29 102 50.5 177t43 148.5t48 162t63.5 217.5q20 66 35.5 126t25.5 109h-15t-18 2q-14 2 -16 23q0 23 41 37q23 8 70 16t97 14t96 10.5t67 4.5q174 0 256 -66.5t82 -226.5q0 -72 -33 -151t-92 -142 q-86 -92 -197 -142.5t-221 -50.5h-38t-30 5q-18 6 -18 34q0 27 45 27q10 0 23.5 -1t29.5 -1q63 0 131 21.5t123 67.5t90 117.5t35 170.5q0 135 -55.5 204.5t-169.5 69.5q-72 0 -117 -10l-5 -17.5t-9.5 -33t-30 -104t-64.5 -232.5q-41 -145 -71.5 -260t-52.5 -201 q-23 -86 -38.5 -146.5t-25.5 -97.5q-14 -57 -16.5 -89.5t-12.5 -71.5q0 -14 -18 -41q-10 -16 -30.5 -35t-42 -35t-42 -27.5t-33.5 -11.5q-43 0 -45 29z" />
<glyph unicode="&#x421;" horiz-adv-x="989" d="M68 315q0 33 4 79t13 100.5t23.5 112t34.5 112.5q80 221 198 378.5t269 254.5q135 86 250 86q33 0 63.5 -4t51.5 -21q10 -10 16 -34.5t6 -51.5q0 -45 -6 -85t-24 -64q-10 -14 -27.5 -27.5t-54.5 -26.5q-25 -8 -56 -8q-12 0 -14 14q10 29 19.5 63t9.5 73q0 57 -84 57 q-92 0 -188.5 -71.5t-173 -193.5t-126 -283t-49.5 -339q0 -172 76 -269t219 -97q53 0 121 24.5t133 61.5q31 18 43 18q14 0 12 -31q0 -16 -82 -69q-78 -51 -160.5 -83t-197.5 -32q-145 0 -232 94t-87 262z" />
<glyph unicode="&#x422;" horiz-adv-x="749" d="M68 1337q0 43 28 56q14 6 44 10t79 4q104 0 196.5 1t166 3t126 4t76.5 2l187 8q37 2 41 -22q0 -12 -21.5 -24.5t-58.5 -22.5q-14 -4 -25.5 -7t-25 -6.5t-32 -7.5t-44.5 -6q-23 -4 -51.5 -3t-69.5 -1l-68 -192q-12 -35 -29.5 -95.5t-43.5 -150.5q-49 -176 -99 -344 q-18 -66 -36.5 -136.5t-36.5 -152.5q-4 -18 -6.5 -38.5t-6.5 -43.5q-8 -53 -17 -83t-26 -52q-10 -14 -28.5 -29.5t-39 -29t-39 -22.5t-30.5 -9q-45 0 -45 28q0 18 15.5 82t37 144t44 162.5t36.5 142.5q8 33 25.5 93t38 133t43 149.5t42 142.5t33 112t17.5 58q6 18 9 32.5 t9 33.5q4 12 13.5 29.5t21.5 33.5l-262 -4q-10 0 -31.5 -1t-46 -1t-46 -1t-28.5 -1q-37 0 -36 22z" />
<glyph unicode="&#x423;" horiz-adv-x="976" d="M-57 16q0 14 16 15q16 0 45 -15.5t78 -15.5q121 0 211 46t176 138q35 37 73 96.5t79 149.5t85 212t91 282l-6 2q-25 -27 -66 -69t-92 -89t-111.5 -97t-124.5 -93q-27 -16 -76 -42t-102 -26q-29 0 -45 18.5t-16 51.5q0 16 5 43.5t15 58.5q29 86 50.5 154.5t39.5 121.5 q35 109 55.5 177.5t31 110.5t12.5 62.5t2 32.5q0 20 -7.5 21.5t-13.5 1.5t-17.5 -5t-22.5 -11.5t-21.5 -11.5t-14.5 -5q-10 0 -10 12q0 14 14.5 24.5t34.5 21.5q14 8 45 21t66 25.5t70.5 21.5t60.5 9q18 0 18 -24q0 -10 -6 -31.5t-14 -44.5q-35 -111 -63.5 -195t-55.5 -174 q-12 -37 -26.5 -87t-26.5 -96t-21.5 -83t-9.5 -47q0 -16 6 -19t21 -3q14 0 48 18t77 49t90 72t90 88q100 106 156 211q16 57 30.5 105t30.5 87q16 37 29.5 58.5t25.5 33.5q29 29 57.5 38.5t63.5 9.5q29 0 29 -33q0 -31 -13.5 -71t-33 -81t-41 -80t-35.5 -65 q-20 -76 -42 -161t-48 -163q-59 -178 -114.5 -318.5t-137.5 -246.5q-98 -123 -230.5 -189.5t-293.5 -66.5q-74 0 -122 16.5t-48 42.5z" />
<glyph unicode="&#x424;" horiz-adv-x="1673" d="M147 596q0 119 58.5 224.5t163 188.5t248 138t313.5 74q25 82 49 147q25 66 33 76q12 14 29.5 26.5t68.5 22.5q12 2 29.5 3t31.5 1q6 0 10.5 -7t4.5 -11q0 -6 -14.5 -45t-30.5 -82q-20 -53 -43 -115h37q106 0 192 -19.5t145.5 -62.5t92 -109.5t32.5 -160.5 q0 -129 -62 -251t-170 -215t-251 -150.5t-305 -57.5q-10 -39 -16.5 -85t-14.5 -75q-4 -12 -7 -20t-7 -19q-8 -18 -28.5 -43.5t-57.5 -52.5q-14 -10 -28.5 -14t-28.5 -8q-43 0 -46 28q0 8 7.5 38l17.5 70l21.5 86t21.5 89q-229 0 -362.5 103.5t-133.5 287.5zM319 594 q0 -154 85 -241t253 -91q47 217 114.5 447.5t133.5 445.5q-139 -18 -247.5 -69.5t-184.5 -125t-115 -167t-39 -199.5zM821 270q125 0 234.5 46t190.5 128t128 196t47 249q0 76 -24.5 129t-66.5 87t-99 50t-125 16h-35q-43 -131 -82 -266t-70.5 -257t-57 -220t-40.5 -158z " />
<glyph unicode="&#x425;" horiz-adv-x="1042" d="M12 63q37 20 72 60q6 6 37 38t83 96.5t127 166.5t171 250q-88 295 -129 447.5t-41 181.5q0 23 4 35t10 24q16 31 47 65.5t66 34.5q6 0 12 -26.5t12 -63.5t12.5 -74.5t12.5 -60.5q14 -66 25.5 -117t23.5 -99t24.5 -98.5t30.5 -113.5q61 92 111.5 169t91.5 140 q74 119 122 207t83 119q12 10 43 20t51 4q0 -10 -17.5 -42.5t-46 -79t-64.5 -100.5t-70.5 -106.5t-65.5 -98.5t-51 -74q-33 -47 -74 -104.5t-88 -123.5q39 -117 76 -225t90 -240q12 -29 27.5 -59.5t33 -55t32.5 -42t26 -21.5q-29 -72 -62 -102.5t-78 -30.5q-16 0 -31.5 14.5 t-28.5 36t-24.5 48t-19.5 49.5q-23 61 -44.5 128.5t-40 133t-35.5 124t-30 105.5q-31 -49 -74.5 -116.5t-90 -138.5t-91.5 -136.5t-75 -110.5q-41 -59 -70 -89.5t-55 -30.5q-29 0 -44.5 27.5t-15.5 55.5z" />
<glyph unicode="&#x426;" horiz-adv-x="1214" d="M59 2q0 8 7.5 37t15.5 61.5t16 62.5t13 42q16 68 32.5 131t34 127.5t36.5 134.5t42 147q59 205 95 327t52 169q43 137 54 148q23 23 61.5 39t99.5 16q14 0 15 -19q0 -6 -10.5 -33.5t-23.5 -65.5t-29.5 -81t-28.5 -82q-33 -102 -64 -198.5t-61.5 -202t-63.5 -228 t-67 -280.5q-8 -35 -11.5 -79t-15.5 -79l-6 -18l448 6q51 231 101.5 423.5t93.5 340t75 248t48 147.5q43 133 53 148q20 23 60 39t102 16q10 0 12 -6t2 -13q0 -6 -10 -33.5t-24.5 -65.5t-30 -81t-27.5 -82q-43 -137 -74.5 -239.5t-59.5 -200.5t-55.5 -206.5t-64.5 -260.5 q-10 -47 -16 -99.5t-11 -68.5q33 10 61 15.5t62 5.5q27 0 27 -45q0 -29 -15.5 -74t-31.5 -90q-18 -49 -49 -110.5t-64 -115t-61.5 -90.5t-42.5 -37q-16 0 -17 11q0 23 26 73t60 148q23 61 38.5 123.5t19.5 95.5q-61 -2 -137 -4q-66 -2 -157 -5t-202 -5q-80 -2 -155.5 -7.5 t-131.5 -5.5q-45 0 -45 29z" />
<glyph unicode="&#x427;" horiz-adv-x="960" d="M78 793q0 59 32.5 170.5t75.5 261.5q8 27 15.5 51t11.5 41q16 55 35 72q29 27 63.5 40t63.5 13q10 0 23.5 -1t13.5 -26q0 -12 -3 -26.5t-11.5 -35t-22 -53t-31.5 -81.5q-18 -47 -36.5 -101.5t-32 -104.5t-22.5 -91t-9 -62q0 -45 18.5 -73.5t81.5 -28.5q33 0 83 21.5 t104.5 57t104.5 80t81 87.5q33 80 55.5 144t38.5 113.5t30.5 82t30.5 51.5q4 6 27 19t51 13q27 0 40.5 -2t18.5 -5t5 -7v-6q0 -10 -16.5 -57t-39 -111.5t-48 -137.5t-44.5 -134q-57 -184 -93 -310.5t-57.5 -210.5t-31.5 -136t-16 -91q-6 -47 -8.5 -62.5t-8.5 -35.5 q-6 -23 -21.5 -45.5t-33.5 -40t-37.5 -27.5t-36.5 -10q-12 0 -22.5 15.5t-10.5 33.5v41t2.5 41t6.5 51.5t14 73.5q6 33 17.5 76t30 112.5t46 172t70.5 253.5q-59 -49 -125 -91t-129.5 -70.5t-119.5 -45t-99 -16.5q-66 0 -95.5 38t-29.5 110z" />
<glyph unicode="&#x428;" horiz-adv-x="1619" d="M27 41q0 23 9 67t23 97q29 113 65 248t81 292q14 55 23.5 87t19.5 66t25.5 83t41.5 139q23 74 37.5 123t16.5 62q2 16 -2.5 26t-4.5 27q0 20 35 39q8 6 27.5 13t44.5 15.5t50.5 13.5t47.5 5q14 0 15 -19q0 -8 -10.5 -35.5t-23.5 -64.5t-29.5 -80t-29.5 -82 q-59 -186 -120.5 -400t-126.5 -476q-23 -86 -32 -137.5t-11 -67.5h360q4 10 12.5 40t20.5 83q29 115 64.5 251t80.5 289q29 98 58.5 194.5t52.5 164.5q16 49 32.5 98t34.5 101q16 43 65.5 75.5t100.5 32.5q14 0 15 -18q0 -6 -10.5 -34t-23.5 -66t-29.5 -82t-28.5 -81 q-14 -43 -26.5 -80.5t-24 -72.5t-22.5 -72t-24 -80q-35 -115 -57.5 -199.5t-38.5 -151t-26.5 -119t-18.5 -101.5q-6 -37 -8 -67.5t-21 -71.5q-6 -18 -22 -33l401 2q25 109 47.5 199t40.5 168q31 123 68 253t71.5 242.5t64.5 196.5t46 117q12 27 27.5 50t36.5 42 q47 43 122 47q10 0 15 -19q-16 -37 -27.5 -64.5t-21.5 -49.5q-27 -68 -56.5 -146t-60.5 -172t-64.5 -210.5t-66.5 -262.5q-23 -92 -42.5 -185t-41.5 -192q45 0 45 -22q0 -23 -28.5 -40.5t-63.5 -17.5t-117 -2t-211 -6q-127 -4 -250 -8l-246 -8q-59 -2 -97 -4t-62.5 -3 t-43 -1h-38.5q-74 0 -104.5 7t-30.5 48z" />
<glyph unicode="&#x429;" horiz-adv-x="1632" d="M29 43q0 33 9 75t21 87q33 125 62 234.5t56.5 212t57 203.5t64.5 210q25 76 43 134t35 104q16 47 39 75q14 18 34.5 30.5t42 21t42 11.5t32.5 3q14 0 15 -19q0 -6 -18.5 -61t-45 -133t-57.5 -169t-53 -169q-35 -117 -71 -246t-65.5 -243.5t-50 -201.5t-22.5 -120h360 q4 10 12.5 40t20.5 83q29 115 64.5 249t80.5 291q47 162 88 296.5t90 261.5q16 41 65.5 74.5t100.5 33.5q14 0 15 -18q0 -6 -10.5 -34t-23.5 -66t-29.5 -81t-28.5 -82q-82 -246 -138.5 -457.5t-99.5 -418.5q-10 -43 -10 -70.5t-19 -68.5q-6 -18 -22 -33l401 2 q25 109 46.5 201t41.5 166q37 135 75 268t72.5 245.5t62.5 197.5t44 122q12 33 27.5 57.5t38.5 40.5q35 27 64.5 37.5t58.5 10.5q14 0 14 -19q0 -4 -6 -19.5t-14.5 -34t-16.5 -35.5t-12 -26q-23 -55 -55.5 -150t-68.5 -207t-70 -228.5t-56 -212.5q-23 -96 -43.5 -202 t-42.5 -204q33 12 59.5 17.5t48.5 5.5q12 0 19.5 -8.5t7.5 -30.5q0 -31 -18.5 -85t-40.5 -110q-55 -129 -94 -205.5t-70 -126.5q-16 -31 -37 -30q-10 0 -10 10q0 20 22.5 87t63.5 202q16 53 29.5 108.5t17.5 83.5h-115t-223 -4q-141 -4 -254 -8t-205 -7t-168.5 -4t-146.5 -1 q-63 0 -98 8t-35 49z" />
<glyph unicode="&#x42a;" horiz-adv-x="983" d="M31 4q0 16 3 36.5t19 74.5q25 90 47 178q20 76 44 163t46 160q31 109 69 237t73 241l78 262q-16 -2 -52 -1t-86 -3q-10 -2 -33.5 -2h-48.5q-29 0 -61 -2q-55 -4 -55 24q0 27 57 47q29 10 58.5 14.5t56.5 6.5q41 4 68.5 2t68.5 -2h43t35.5 1t38 2t49.5 5q14 2 24.5 4 t20.5 2q16 0 16 -14q0 -8 -15 -41t-28 -74q-10 -33 -24.5 -75t-34 -99t-42.5 -132t-54 -173q29 4 57 8q25 4 55.5 7t59.5 3q170 0 268 -71.5t98 -227.5q0 -74 -27.5 -142.5t-74.5 -130t-110.5 -111.5t-133.5 -87q-111 -59 -210 -84.5t-218 -25.5h-115q-31 0 -30 20zM209 70 q10 -2 18 -2h43q49 0 109.5 6t107.5 24q61 23 115.5 65t95.5 98t64.5 126t23.5 150q0 123 -67.5 184t-192.5 61q-23 0 -58.5 -4t-78.5 -14l-131 -494q-14 -51 -28.5 -106t-20.5 -94z" />
<glyph unicode="&#x42b;" horiz-adv-x="1449" d="M31 4q0 16 3 35.5t19 75.5l137 501q61 223 106.5 377t68.5 213q20 55 34.5 96t36.5 66q29 33 68 59.5t90 26.5q14 0 14 -18q0 -6 -10 -33t-24.5 -65t-32 -82t-29.5 -82q-35 -109 -58.5 -181.5t-41.5 -146.5q29 4 57 8q25 4 55.5 7t59.5 3q170 0 268 -71.5t98 -227.5 q0 -74 -27.5 -142.5t-74.5 -130t-110.5 -111.5t-133.5 -87q-111 -59 -210 -84.5t-218 -25.5h-115q-31 0 -30 20zM209 70q10 0 24.5 -1t36.5 -1q51 0 110.5 6t106.5 24q61 23 115.5 65t95.5 98t64.5 126t23.5 150q0 246 -260 245q-23 0 -58.5 -4t-78.5 -14l-131 -494 q-14 -51 -28.5 -106t-20.5 -94zM926 -14q0 8 7 38.5t16 67.5t18.5 72t13.5 51q29 115 64.5 249t80.5 292q25 88 53.5 184t54.5 179t43 141.5t21 68.5q14 37 28.5 58.5t29 34t31 17.5t34.5 9t33.5 5t34.5 1q14 0 14 -18q0 -10 -24.5 -70.5t-67.5 -191.5q-16 -47 -36.5 -116 t-44 -152t-50.5 -173t-51 -180q-18 -66 -38 -141.5t-36 -147.5q-10 -45 -13 -76.5t-7 -54.5q-6 -39 -19 -59q-6 -10 -23.5 -29.5t-40 -39t-45 -34t-36.5 -14.5t-29.5 3t-15.5 26z" />
<glyph unicode="&#x42c;" horiz-adv-x="983" d="M31 4q0 16 3 35.5t19 75.5l137 501q61 223 106.5 377t68.5 213q20 55 34.5 96t36.5 66q29 33 68 59.5t90 26.5q14 0 14 -18q0 -6 -10 -33t-24.5 -65t-32 -82t-29.5 -82q-35 -109 -58.5 -181.5t-41.5 -146.5q29 4 57 8q25 4 55.5 7t59.5 3q170 0 268 -71.5t98 -227.5 q0 -74 -27.5 -142.5t-74.5 -130t-110.5 -111.5t-133.5 -87q-111 -59 -210 -84.5t-218 -25.5h-115q-31 0 -30 20zM209 70q10 0 24.5 -1t36.5 -1q51 0 110.5 6t106.5 24q61 23 115.5 65t95.5 98t64.5 126t23.5 150q0 246 -260 245q-23 0 -58.5 -4t-78.5 -14l-131 -494 q-14 -51 -28.5 -106t-20.5 -94z" />
<glyph unicode="&#x42d;" horiz-adv-x="1177" d="M-33 94q0 47 32 81t73 38q12 -88 60 -130t149 -42q88 0 176 35t168 105.5t145.5 180t108.5 261.5h-192.5t-192.5 -5q-27 0 -65 -2t-60 -2q-12 0 -25.5 2t-13.5 13q0 37 61 59q29 10 83 16.5t104 6.5q49 0 106 -1t107 -1h112q6 18 12.5 52t12.5 70.5t9 71.5t3 55 q0 104 -12.5 174t-38 110t-64.5 56.5t-94 16.5q-35 0 -101.5 -25.5t-135.5 -79.5q-6 -6 -19.5 -17t-28 -23.5t-26.5 -21.5t-17 -9q-18 0 -18 16t12 29q106 104 227 172.5t257 68.5q94 0 161.5 -76.5t67.5 -244.5q0 -37 -5 -85t-14.5 -100.5t-20.5 -105.5t-26 -100h46 q20 0 30 -3.5t10 -19.5q0 -18 -34 -33q-6 -4 -23.5 -6t-54.5 -12q-68 -156 -155 -282t-190.5 -215t-220 -137t-241.5 -48q-113 0 -178.5 38t-65.5 99z" />
<glyph unicode="&#x42e;" horiz-adv-x="1710" d="M55 -25q0 27 10.5 87.5t36.5 158.5q14 51 34 125t40 141q23 80 47 164q-104 -41 -137 -45q-18 0 -18 33q0 43 57 70q41 18 131 36q27 86 51 170q23 72 46.5 156t43.5 154q14 47 29.5 96t32.5 68q14 14 25.5 25t28.5 17.5t44 9.5t70 3q14 0 14 -19q-45 -137 -82 -260 q-33 -106 -65.5 -213.5t-51.5 -173.5l246 17q33 57 70 112.5t78 108.5q37 49 82 98t93 93t97 82t96 65q82 47 146 47q47 27 79.5 32t79.5 5q51 0 93.5 -23.5t73 -66.5t47 -102.5t16.5 -129.5q2 -328 -248 -713q-66 -100 -141.5 -181t-158.5 -138t-171 -89t-174 -32 q-154 0 -234 75t-80 230q0 117 32 231.5t89 227.5q-29 -4 -70.5 -7t-78.5 -11l-92 -19q-18 -59 -53 -177t-66 -259q-12 -57 -15.5 -101t-25.5 -96q-23 -47 -70 -78.5t-82 -31.5q-27 0 -36 8t-9 20zM721 334q0 -115 49 -186.5t182 -71.5q47 0 99.5 18.5t104.5 52t101.5 80.5 t92.5 107q47 68 85 149.5t63.5 173t38.5 188.5t13 193q0 127 -46 197t-124 72q-311 8 -534 -451q-61 -129 -93 -267t-32 -255z" />
<glyph unicode="&#x42f;" horiz-adv-x="1259" d="M-25 0q0 29 27 67.5t82 104.5q113 133 203 222t160.5 148.5t127 97.5t101.5 69q-162 4 -251 72.5t-89 176.5q0 80 36 144.5t100.5 116t156.5 88t202 61.5q41 8 74 14.5t62.5 10.5t60.5 6t68 4q29 2 46 3t46 1q27 0 37 -12.5t12 -26.5q-6 -18 -12 -31q-43 -109 -72 -183.5 t-51.5 -139t-41 -131t-42.5 -158.5q-23 -92 -38 -165t-32 -157q-31 -164 -30 -227q0 -25 -2.5 -46t-8.5 -40q-2 -8 -17.5 -25.5t-37 -36t-47 -31.5t-45.5 -13q-10 0 -21.5 5t-11.5 15v57.5t6 57.5q0 8 6 37.5t15.5 72.5t20.5 96.5t22 108.5q25 127 57 285q-92 -18 -217 -109 q-66 -47 -129.5 -104t-119.5 -120.5t-103 -131.5t-80 -131q-14 -27 -23.5 -47.5t-19.5 -32.5q-16 -29 -48 -58.5t-98 -29.5q-23 0 -32 14.5t-9 30.5zM502 950q0 -35 10 -66.5t35.5 -55t70 -38t109.5 -14.5q39 0 81 5t77 16q25 88 49 176q23 76 47 164t49 166q-23 4 -53.5 10 t-108.5 6q-47 0 -110.5 -18.5t-119.5 -61.5t-96 -113.5t-40 -175.5z" />
<glyph unicode="&#x430;" horiz-adv-x="964" d="M53 143q0 133 59.5 262.5t159.5 235.5q98 104 203 167.5t219 92.5q41 10 87 14.5t63 4.5q25 0 42 -5.5t17 -17.5q0 -23 -20 -41q-10 -8 -25.5 -14t-34.5 -8q-16 0 -52 5t-64 5q-51 0 -95 -21q-45 -20 -90 -55t-87 -82t-79 -103.5t-63 -119.5q-33 -78 -46.5 -142.5 t-15.5 -127.5q0 -53 13.5 -72t34.5 -19q33 0 81 39t99 99.5t101 133t87 140.5q25 45 40 89t26 67q12 33 23.5 59.5t43.5 44.5q31 18 59.5 26.5t45.5 8.5q20 0 20 -18q-18 -47 -37 -101q-16 -45 -34.5 -99t-32.5 -108q-23 -86 -37 -172t-14 -131q0 -23 6 -43t16 -33l19 -24 q-2 -10 -19.5 -33.5t-40 -48.5t-48.5 -43t-44 -18q-27 0 -42 20t-15 82q0 43 5 93t11 95q8 53 16 105h-8q-141 -170 -238.5 -260t-174.5 -103q-68 0 -104 45t-36 129z" />
<glyph unicode="&#x431;" horiz-adv-x="796" d="M49 240q0 57 16.5 128.5t48 148.5t81 154t114.5 146q31 33 71 70t62 43q23 0 23 -31q-12 -12 -25 -22q-10 -10 -22 -22.5t-21 -23.5q-92 -123 -138 -245.5t-46 -272.5q0 -76 12.5 -121t29.5 -69.5t37.5 -32.5t37.5 -8q59 0 109 40t98 132q47 92 64 192.5t17 210.5 q0 90 -29.5 174t-72.5 158t-91 134.5t-85 103.5q-25 31 -34 55.5t-9 56.5q0 41 31.5 94.5t103.5 120.5q45 45 104.5 94.5t127 97.5t141.5 90t149 73q37 14 78 25.5t79 19.5t67.5 11t46.5 3q29 0 55.5 -4t26.5 -37q0 -8 -2 -22.5t-8.5 -27.5t-15.5 -22.5t-21 -9.5 q-23 0 -48.5 6.5t-72.5 6.5q-90 0 -175 -27t-165 -70t-150.5 -99t-130.5 -118q-41 -41 -59.5 -71.5t-18.5 -61.5q0 -27 7.5 -45t23.5 -41q35 -55 84 -114.5t93 -136.5t76 -177t32 -240q0 -25 -6.5 -67.5t-23.5 -98t-45 -120t-71 -131.5q-49 -78 -97 -130.5t-93 -83t-86 -44 t-76 -13.5q-33 0 -69.5 10.5t-67.5 40t-51.5 82t-20.5 138.5z" />
<glyph unicode="&#x432;" horiz-adv-x="878" d="M78 555q6 20 20.5 30.5t36.5 24.5l33 21q47 129 104.5 238.5t128.5 224.5q127 203 252 319.5t224 120.5q57 2 87.5 -24.5t30.5 -88.5q0 -39 -14 -94t-61 -129q-27 -43 -61 -88t-79 -94t-103.5 -104.5t-133.5 -116.5q-59 -49 -117.5 -91t-110.5 -71q-18 -66 -30 -129 q-12 -53 -21.5 -113.5t-9.5 -107.5q0 -109 19.5 -175.5t78.5 -66.5q61 0 107.5 28.5t95.5 90.5q31 39 50.5 84t30.5 91t15 88t4 77q0 72 -21.5 107.5t-74.5 45.5q-23 4 -38 2t-34 0q-4 8 -6 11.5t0 13.5q23 27 68 55.5t80 40.5q27 2 60.5 -4t63 -28.5t50 -68.5t20.5 -126 q0 -76 -46 -183.5t-140 -218.5q-184 -213 -346 -213q-66 0 -107 20.5t-62.5 57.5t-28.5 88.5t-7 112.5q0 47 8 104.5t19 108.5q10 60 26 121q-8 -6 -16 -10q-20 -8 -31 -9q-8 0 -12 13q-2 6 -2 14zM334 713q35 23 92 65.5t143 126.5q33 33 78 84t84 108.5t66.5 115 t27.5 100.5q0 41 -11 60.5t-52 19.5q-53 0 -111.5 -69t-138.5 -214q-68 -125 -116 -228.5t-62 -168.5z" />
<glyph unicode="&#x433;" horiz-adv-x="675" d="M143 719q0 10 4.5 16t8.5 13q16 18 35.5 36.5t58.5 51.5q82 68 154.5 94t95.5 26q47 0 47 -71q2 -41 -15.5 -110.5t-44.5 -141.5q-16 -43 -32.5 -90t-30.5 -89t-25.5 -78.5t-19.5 -56.5q-12 -35 -28.5 -78.5t-16.5 -70.5q0 -33 31 -35q25 0 61.5 22.5t71.5 51.5q4 4 11 8 t13 4q8 0 7 -5t1 -11q0 -10 -26.5 -42t-71.5 -73q-14 -12 -37.5 -32.5t-52.5 -40t-59.5 -34t-59.5 -14.5q-33 0 -52 25.5t-19 73.5q0 27 10 67.5t18 63.5l156 436q23 66 34 105.5t11 50.5q0 33 -16 32q-41 0 -87.5 -34.5t-91.5 -79.5q-8 -8 -12 -12.5t-10 -4.5 q-8 0 -14.5 8.5t-6.5 18.5z" />
<glyph unicode="&#x434;" horiz-adv-x="884" d="M57 207q-4 129 62 280q47 106 115.5 194.5t140 153t141.5 103.5t119 47q25 -6 24 -31q0 -12 -9 -20t-19 -12q-39 -12 -106.5 -52.5t-134 -116t-116 -189t-49.5 -273.5q0 -61 10.5 -99t25.5 -58.5t35.5 -28t39.5 -7.5q51 0 118.5 55.5t141.5 192.5q72 131 102.5 296 t30.5 345q0 236 -63.5 370t-176.5 134q-47 0 -106 -29.5t-111 -81.5q-14 -14 -29.5 -32.5t-27.5 -18.5q-10 0 -14 7t-4 16q0 16 7 27.5t17 21.5q82 92 160 135t182 43q147 0 236.5 -141.5t89.5 -409.5q0 -172 -49 -344t-160 -356q-106 -178 -221 -268.5t-205 -90.5 q-84 0 -139.5 58.5t-57.5 179.5z" />
<glyph unicode="&#x435;" horiz-adv-x="759" d="M55 262q0 121 39 230.5t131 216.5q53 61 115.5 108t155.5 96q49 27 91 37.5t70 14.5q59 0 84 -15.5t25 -54.5q0 -18 -7 -47t-30.5 -68t-68 -87t-117.5 -105q-59 -47 -112.5 -80t-94.5 -55q-47 -25 -86 -41l-8 -33q-4 -12 -5 -25.5t-1 -19.5q0 -129 45 -201t163 -72 q31 0 64 9.5t59 21.5q31 12 60 31q12 -12 12 -39q0 -12 -27.5 -31.5t-71.5 -38t-99.5 -32t-108.5 -13.5q-131 0 -204 77t-73 216zM258 504q49 10 88 27.5t105 64.5q88 63 112.5 118.5t24.5 96.5t-51 41q-35 0 -76 -26.5t-88 -86.5q-43 -57 -72 -116.5t-43 -118.5z" />
<glyph unicode="&#x436;" horiz-adv-x="1376" d="M82 51q0 20 15.5 54t43 76t67.5 87t87 88l90 82q4 12 11 39t13.5 59.5t10.5 67.5t4 64q0 104 -27.5 154t-89.5 50q-27 0 -54.5 -15t-49.5 -34q-27 -23 -51 -49q-6 -4 -12.5 -10t-16.5 -6q-14 0 -14 20q0 6 6 16.5t14 18.5q27 27 62.5 56.5t75.5 55t81 42t78 16.5 q76 0 114 -48t38 -165q0 -20 -3.5 -53t-9.5 -71t-16 -79t-23 -78q18 8 42 19.5t49.5 22t48 19.5t36.5 15q16 47 31 94q12 39 26.5 82t24.5 76q10 35 21.5 52.5t34.5 39.5q27 20 57.5 33.5t58.5 13.5q10 0 17 -18q-35 -84 -62 -152q-23 -59 -44 -112t-25 -68q31 6 59 12 q25 4 52.5 9.5t45.5 5.5q17 -1 17 -19q0 -31 -35 -39q-18 0 -51 -5t-105 -25q-12 -43 -23 -89t-20 -100l-22 -161q-4 -29 -8 -51.5t-15 -39.5q-29 -53 -62.5 -82.5t-47.5 -29.5t-24.5 8t-10.5 31q0 25 8 75t22.5 114.5t32 138t33.5 145.5l-176 -74q-29 -92 -75 -170 t-103 -145q-109 -131 -199 -131q-53 0 -53 67zM152 82q0 -16 16 -23q31 0 81 70t91 195q-29 -18 -61.5 -48t-61.5 -64t-47 -67.5t-18 -62.5zM922 188q0 33 6 81t22 114q41 174 135.5 317.5t229.5 225.5q25 14 51.5 26.5t40.5 12.5q10 0 14 -13q4 -8 -1 -15t-13 -11 q-12 -8 -33.5 -21.5t-48.5 -36.5q-37 -29 -79 -90t-77.5 -144t-59.5 -181.5t-24 -202.5q0 -33 3.5 -63.5t12.5 -54t26.5 -38t43.5 -14.5q25 0 48.5 9t44.5 20q23 12 43 30q10 4 17 8.5t15 4.5q12 0 13 -21q0 -8 -26 -31.5t-65.5 -48t-89 -43t-98.5 -18.5q-66 0 -108.5 47 t-42.5 151z" />
<glyph unicode="&#x437;" horiz-adv-x="694" d="M-399 -575q0 78 55 147.5t127 121.5t137.5 82.5t87.5 30.5q14 0 15 -16q0 -12 -12.5 -20.5t-47.5 -24.5q-86 -39 -147.5 -114.5t-61.5 -166.5q0 -27 6.5 -51t22.5 -42.5t44 -30t69 -11.5q74 0 156.5 47.5t153 132t117 203.5t46.5 264q0 76 -17.5 140.5t-44 113t-56.5 75 t-54 26.5q-10 0 -19.5 5t-9.5 15q0 12 6 16.5t14 8.5q16 8 62.5 31.5t99.5 66.5q70 53 115 126t45 165q0 61 -27.5 89t-97.5 28q-27 0 -55.5 -8.5t-55 -19.5t-50 -24.5t-38.5 -23.5q-12 -8 -26.5 -18.5t-30.5 -10.5t-21.5 5t-5.5 14q0 23 12.5 33t41.5 28q23 14 60.5 34.5 t85.5 41t102.5 35t109.5 14.5q158 0 158 -141q0 -61 -32 -125t-79 -121t-103.5 -106.5t-105.5 -81.5q39 -16 73 -52.5t58.5 -85.5t39 -109.5t14.5 -125.5q0 -100 -34 -198.5t-90.5 -187.5t-131 -164t-155.5 -130t-164 -87t-157 -32q-96 0 -150 42t-54 147z" />
<glyph unicode="&#x438;" horiz-adv-x="976" d="M80 68q0 16 12 68t39 132l90 281q27 82 41 133t22.5 81t10.5 43t2 17q0 10 -2 17.5t-12 7.5t-28.5 -12.5t-29.5 -12.5q-14 0 -16 25q0 10 57 47q76 47 128 64.5t81 17.5q16 0 17 -23q0 -16 -7.5 -56t-17.5 -75l-119 -391q-8 -25 -17 -55.5t-18.5 -59t-15.5 -50t-6 -27.5 q0 -8 3 -16.5t9 -8.5q10 0 37 24.5t72 77.5q53 63 92 113.5t73.5 99t68.5 97.5t77 112q29 43 45 79t55 71q25 23 50.5 36t48.5 25q20 8 36 8h21q12 2 16 -18q0 -6 -11 -37t-27.5 -76t-34 -95t-31.5 -95q-12 -39 -21.5 -70.5t-17.5 -62.5t-17.5 -62.5t-17.5 -70.5 q-10 -39 -18 -85t-15 -87q-8 -47 -14 -95q-2 -10 -3 -26.5t-9 -32.5q-2 -6 -17 -20q-4 -4 -18 -16.5t-32.5 -25t-36 -22.5t-25.5 -10q-10 0 -21.5 5t-11.5 15v21q0 12 6 53t15.5 96.5t21.5 118t25 117.5q8 37 20 80t23 80q12 43 24 88q-39 -51 -82 -107q-37 -47 -82 -106.5 t-92 -120.5q-31 -41 -61.5 -77t-53.5 -60q-23 -25 -40 -45.5t-34.5 -38t-38 -32.5t-46.5 -34q-23 -16 -39.5 -17t-26.5 -1q-55 0 -55 82z" />
<glyph unicode="&#x439;" horiz-adv-x="976" d="M80 68q0 16 12 68t39 132l90 281q27 82 41 133t22.5 81t10.5 43t2 17q0 10 -2 17.5t-12 7.5t-28.5 -12.5t-29.5 -12.5q-14 0 -16 25q0 10 57 47q76 47 128 64.5t81 17.5q16 0 17 -23q0 -16 -7.5 -56t-17.5 -75l-119 -391q-8 -25 -17 -55.5t-18.5 -59t-15.5 -50t-6 -27.5 q0 -8 3 -16.5t9 -8.5q10 0 37 24.5t72 77.5q53 63 92 113.5t73.5 99t68.5 97.5t77 112q29 43 45 79t55 71q25 23 50.5 36t48.5 25q20 8 36 8h21q12 2 16 -18q0 -6 -11 -37t-27.5 -76t-34 -95t-31.5 -95q-12 -39 -21.5 -70.5t-17.5 -62.5t-17.5 -62.5t-17.5 -70.5 q-10 -39 -18 -85t-15 -87q-8 -47 -14 -95q-2 -10 -3 -26.5t-9 -32.5q-2 -6 -17 -20q-4 -4 -18 -16.5t-32.5 -25t-36 -22.5t-25.5 -10q-10 0 -21.5 5t-11.5 15v21q0 12 6 53t15.5 96.5t21.5 118t25 117.5q8 37 20 80t23 80q12 43 24 88q-39 -51 -82 -107q-37 -47 -82 -106.5 t-92 -120.5q-31 -41 -61.5 -77t-53.5 -60q-23 -25 -40 -45.5t-34.5 -38t-38 -32.5t-46.5 -34q-23 -16 -39.5 -17t-26.5 -1q-55 0 -55 82zM559 1153q0 8 3 21.5t7 23.5q10 29 31 62.5t55 33.5q12 0 19.5 -13t24 -28.5t48 -29t93.5 -13.5q37 0 75.5 16.5t72.5 42t58.5 60.5 t34.5 72q8 37 49 37q25 0 25 -33q0 -16 -19.5 -56t-60.5 -81q-55 -53 -108.5 -86t-103.5 -50.5t-96 -23.5t-85 -6q-49 0 -86 14t-37 37z" />
<glyph unicode="&#x43a;" horiz-adv-x="905" d="M51 37q0 4 7.5 35.5t27.5 97.5q18 61 35.5 121.5t34.5 120.5q31 102 55 186q10 37 21.5 73t19.5 65.5t14 51t8 29.5q2 10 3.5 16.5t1.5 16.5q0 12 -13 12q-14 0 -28.5 -6t-28.5 -12q-16 -8 -31 -19q-6 8 -8 17.5t-4 15.5q10 12 29.5 24.5t29.5 18.5q45 23 115 45.5 t135 22.5q18 0 19 -19q-4 -20 -13 -41q-6 -16 -13 -36.5t-11 -36.5q-16 -47 -32.5 -100.5t-33.5 -100.5q-18 -55 -35 -111q39 45 82 94q35 41 80 91.5t90 101.5q33 37 69 72t71.5 61.5t71.5 43t69 16.5q16 0 23.5 -9.5t11.5 -44.5v-35q0 -53 -26 -110t-67 -84 q-27 -16 -61 -23q8 18 16.5 49t8.5 56q0 55 -17 55q-12 0 -35.5 -10t-56.5 -43t-66.5 -69t-62.5 -68q-35 -37 -65 -76q10 -29 30.5 -76t46 -99t53 -105.5t52.5 -96.5q47 -78 91 -120t79 -54q2 -4 -6.5 -18.5t-25.5 -28.5t-44 -25.5t-61 -11.5q-43 0 -79 27.5t-77 93.5 q-18 31 -51 92t-86 172q-29 61 -45.5 98t-22.5 54q-6 -25 -14 -48q-6 -20 -13.5 -42.5t-11.5 -41.5q-8 -29 -16 -62.5t-15 -61.5l-16 -70q-12 -53 -24 -76q-10 -20 -23 -33q-6 -6 -21.5 -15t-33 -17.5t-35 -13.5t-27.5 -5q-25 0 -34 6t-11 23z" />
<glyph unicode="&#x43b;" horiz-adv-x="839" d="M-23 39q0 88 209 407q51 80 103.5 150t97.5 125t82 93t59 54q55 41 103.5 65.5t101.5 24.5q12 0 23.5 -1t20.5 -7t15.5 -19t6.5 -40q0 -16 -8.5 -52t-22.5 -83t-29.5 -102.5t-32 -110t-28.5 -102.5t-19 -83q-10 -55 -14 -95.5t-4 -69.5q2 -12 4 -23q2 -10 3 -22.5 t1 -22.5q0 -14 -15.5 -38t-38 -47.5t-51 -39.5t-52.5 -16q-16 0 -28.5 7t-12.5 23q0 8 4 36t9 62.5t10 69.5t9 58q4 20 10.5 48.5t15.5 67.5t22.5 91.5t33.5 121.5q55 186 56 217q0 10 -4.5 14.5t-20.5 4.5q-35 0 -83 -43t-122 -137q-29 -35 -68.5 -93.5t-76.5 -126 t-62.5 -140t-25.5 -136.5q0 -39 6 -59q-25 -43 -61.5 -74t-67.5 -31q-25 0 -41.5 17.5t-16.5 56.5z" />
<glyph unicode="&#x43c;" horiz-adv-x="1239" d="M-27 41q0 35 22.5 87t65.5 128q25 43 68 107.5t95 138t110.5 150.5t114.5 147q47 59 74.5 90t35.5 39q20 18 36.5 23t39.5 12q23 6 41 8t41 2q18 0 18 -21q0 -4 -57 -221q-20 -74 -42 -164t-39 -169t-28.5 -134t-11.5 -61q0 -20 12 -27q14 8 46 52t75 106.5t93.5 136.5 t97.5 143q25 37 49 75t49 73t49.5 62.5t48.5 43.5q16 10 29.5 19.5t32.5 15.5q8 2 17 3t18 3q8 2 18 2q18 0 20 -20q-12 -31 -22 -68q-10 -33 -22.5 -79t-26.5 -99q-23 -82 -40.5 -155.5t-27.5 -131.5q-10 -55 -14 -93.5t-4 -71.5q0 -20 4 -34t4 -34q0 -14 -16.5 -38 t-39 -47.5t-49 -39.5t-45.5 -16q-16 0 -32.5 4t-16.5 26q0 18 4 49t11 66q14 72 23 126t24 118l55 262l-6 2q-20 -29 -56 -80t-79 -112.5t-86 -124t-78 -113.5q-51 -74 -97.5 -134.5t-66.5 -80.5q-43 -25 -109 -25q-20 0 -20 39q0 23 2 48.5t6 54.5q10 66 24.5 141.5 t37.5 167.5q10 51 24.5 110.5t24.5 112.5q12 61 24 121l-8 4q-23 -16 -64.5 -59t-91.5 -115q-35 -49 -69.5 -108.5t-63 -121t-47 -122t-18.5 -111.5q0 -39 6 -59q-25 -43 -61.5 -74t-67.5 -31q-25 0 -46.5 16.5t-21.5 59.5z" />
<glyph unicode="&#x43d;" horiz-adv-x="964" d="M66 -18q0 14 5 41.5t13 61.5t18.5 73t20.5 78q25 88 57 192q-23 -4 -49.5 -8t-38.5 -4q-18 0 -18 28q0 25 35 45q16 10 45.5 18.5t52.5 12.5q25 88 47 158q8 31 16.5 59.5t15.5 53t11 41t4 20.5v13t-10 7t-28.5 -12t-29.5 -12q-14 0 -16 24q0 10 57 48q76 47 128.5 64 t80.5 17q16 0 17 -22q0 -10 -4 -32.5t-11.5 -50.5t-15.5 -59.5t-16 -62.5q-10 -35 -20.5 -76t-20.5 -75q-10 -41 -23 -82l299 24q4 18 12 41q4 16 11.5 38t13.5 38q10 29 21.5 58.5t21.5 56t18.5 47t14.5 30.5q20 35 67 57.5t88 22.5q8 0 12.5 -6t4.5 -12q0 -12 -8.5 -32.5 t-16.5 -43.5q-12 -35 -25.5 -73.5t-25.5 -73.5q-14 -39 -29 -80l-14 -49h12q4 0 10.5 1t10.5 1q10 0 12 -7.5t2 -11.5q0 -27 -35 -43q-4 -4 -11 -5t-13 -3q-8 -2 -15 -4l-41 -172q-10 -37 -19 -90t-13 -105q-2 -16 -4 -30.5t-9 -24.5q-6 -10 -23.5 -27.5t-39 -34t-41 -27.5 t-29.5 -11q-16 0 -23 15t-7 32q0 10 2 34.5t7 56.5t11 66.5t14 69.5q4 10 12.5 47t18.5 78q10 47 27 103l-314 -41q-6 -16 -12 -35q-4 -16 -10 -32.5t-10 -31.5q-8 -27 -16.5 -56.5t-14.5 -56t-10 -47t-4 -26.5q0 -29 2 -44.5t2 -27.5q0 -10 -1 -17t-10 -18 q-8 -12 -28.5 -29.5t-45 -33.5t-50 -28.5t-46.5 -12.5q-16 0 -26 5t-10 22z" />
<glyph unicode="&#x43e;" horiz-adv-x="905" d="M53 178q-2 82 20.5 172t78.5 185q47 80 106 149.5t135 134.5q66 59 117 90t82 31q6 0 13 -1t13 -1h15q6 6 32.5 16.5t53.5 10.5q88 0 124 -61.5t36 -160.5q2 -217 -166 -479q-191 -295 -437 -295q-98 0 -159.5 52.5t-63.5 156.5zM229 227q0 -84 33 -127t86 -43 q59 0 123 41t119 138q31 51 54.5 118.5t40.5 134t26.5 123.5t9.5 88q0 78 -25.5 121t-62.5 43q-8 0 -12.5 -2t-8.5 -4l-8 -4l-33 6q-133 0 -249 -291q-47 -117 -70 -201.5t-23 -140.5z" />
<glyph unicode="&#x43f;" horiz-adv-x="960" d="M55 -8q0 23 6.5 41t18.5 53q18 43 37 96q16 45 34.5 102.5t38.5 123.5q18 59 37 126.5t35.5 127t27.5 102.5t13 53q2 8 3 14.5t1 12.5q0 10 -6 11t-12 1q-10 0 -27.5 -7t-34.5 -18q-20 -10 -39 -22q-6 -6 -12 -10q-12 -8 -16 -8q-8 0 -11.5 8t-3.5 14t18.5 22.5t46.5 36 t62.5 38t65.5 30.5q37 14 62.5 21.5t72.5 7.5q18 0 19 -19q0 -10 -6.5 -50t-32.5 -132l-68 -238l6 -4q35 47 72 97q31 41 66.5 87t70.5 85q18 20 41 42.5t43.5 42t35.5 33t19 15.5q33 20 66 30q49 18 100 19q39 0 41 -53q0 -18 -7 -56.5t-24 -97.5q-16 -57 -32 -113 q-14 -47 -30 -102t-26 -102q-8 -33 -16 -68t-15.5 -66.5t-11.5 -56t-4 -39.5v-80q0 -16 -6 -25t-18 -26q-6 -8 -26.5 -24.5t-45.5 -34t-47.5 -29.5t-34.5 -12q-16 0 -24.5 8t-8.5 33q0 10 5.5 32.5t19.5 79.5q8 35 15 63t14.5 54.5t13.5 54t16 60.5q23 78 42.5 140.5 t35.5 121.5q12 41 20.5 84t12.5 59q0 43 -16 45q-23 0 -72 -38.5t-121 -133.5q-63 -80 -114.5 -163.5t-92.5 -167.5q-18 -39 -39.5 -93.5t-42.5 -113.5q-12 -37 -20 -60.5t-31 -50.5q-6 -6 -19.5 -14t-31 -16.5t-36.5 -13.5t-36 -5q-18 0 -27.5 10t-9.5 25z" />
<glyph unicode="&#x440;" horiz-adv-x="995" d="M-154 -776q0 29 5.5 62.5t27.5 107.5l105 340l147 491l-39 -18q-16 4 -10 43q12 16 27 37q12 16 26.5 36.5t30.5 43.5q14 49 33 108q16 51 33.5 120t37.5 150q4 23 5 38.5t4 25.5q0 31 -11 31q-14 0 -36.5 -13.5t-38.5 -13.5q-18 0 -19 21q0 14 14 22q25 14 82.5 47 t122.5 60q16 6 28.5 7t27.5 1q20 0 20 -21q0 -16 -9 -54t-22.5 -84t-29 -92t-29.5 -79l10 -2q98 143 219 244q125 100 211 100q68 2 105 -49t37 -174q0 -102 -32 -208t-85 -203t-124 -178t-147 -132q-100 -66 -215 -70q-92 0 -149 37q-31 -109 -58.5 -208t-49 -183 t-37 -146.5t-21.5 -95.5q-2 -10 -2 -29.5v-33.5q0 -16 -4 -27.5t-14 -27.5q-20 -31 -61.5 -57.5t-72.5 -26.5q-16 0 -29.5 14t-13.5 39zM256 162q12 -47 51 -79t115 -32q66 0 127 47q49 37 92 102.5t75 145.5t50 167t18 167q0 78 -10 129t-49 51q-45 0 -117.5 -61.5 t-177.5 -202.5q-31 -41 -58.5 -95.5t-51 -113.5t-40 -117.5t-24.5 -107.5z" />
<glyph unicode="&#x441;" horiz-adv-x="747" d="M41 209q-2 287 219 534q49 55 102.5 96.5t103.5 69t95 42t76 14.5q18 0 38.5 -3.5t38 -11.5t28 -23.5t10.5 -39.5q0 -72 -17 -137q-4 -20 -17 -48t-36 -47q-35 -29 -63.5 -38t-43.5 -9q-14 0 -16 13l16 45q14 37 19.5 70.5t7.5 80.5q0 43 -47 43q-66 0 -126 -49 t-107.5 -129t-75 -182.5t-27.5 -208.5q0 -111 45 -174q23 -31 55.5 -42.5t92.5 -11.5q41 0 76.5 15.5t70.5 36.5q20 14 35 14q10 0 19.5 -6t9.5 -29q0 -8 -27 -28.5t-74 -42t-110.5 -38t-137.5 -16.5q-100 0 -165.5 58.5t-67.5 181.5z" />
<glyph unicode="&#x442;" horiz-adv-x="1400" d="M70 14q0 16 11 63.5t23 88.5q10 39 23.5 84t26.5 84q12 45 26 88l94 342l13 61q0 20 -13 21q-16 0 -35.5 -7.5t-35.5 -17.5q-20 -10 -39 -24q-10 0 -14.5 6t-4.5 12q0 14 21.5 28.5t46.5 28.5q68 39 99.5 54.5t62.5 25.5q20 8 43.5 12.5t40.5 4.5q6 0 12 -4t6 -15 q0 -10 -8 -54t-31 -128l-61 -242q39 47 66.5 81t51 61.5t49 54.5t60.5 63q72 72 119 113q10 10 29.5 21.5t44.5 21.5t48 15.5t46 7.5q37 0 37 -56q0 -37 -9.5 -84t-23.5 -96t-28.5 -94t-22.5 -80h6q43 59 89 112.5t87 97.5t76 75.5t55 48.5q18 16 39 24.5t43 16.5 q39 10 72 14q18 0 30 -24q2 -8 5 -19q2 -10 3 -21.5t1 -25.5q0 -20 -1 -33.5t-6 -34.5q-2 -14 -11 -51t-22.5 -88t-30 -111.5t-34.5 -121.5q-10 -33 -18 -68t-16.5 -65.5t-12.5 -55t-4 -37.5q0 -35 4 -52t4 -34q0 -23 -28 -51q-43 -41 -85 -70.5t-73 -29.5q-33 0 -33 57 q0 18 4 40t21 77l20 74q10 33 19.5 69.5t19.5 67.5q18 57 28.5 94t26.5 92q8 31 17.5 63.5t16.5 62.5t11 52.5t4 32.5q0 43 -22 45q-23 0 -84 -63q-33 -33 -70 -77t-71.5 -92t-65.5 -94t-51 -85q-10 -20 -17.5 -32.5t-17.5 -47.5l-47 -144q-6 -29 -18 -47q-8 -10 -37 -41.5 t-58 -50.5q-27 -16 -45 -16t-23 11t-5 28q0 12 9 42.5t25 88.5l72 235q12 41 25 84q10 35 22.5 78t22.5 78q10 37 20 81t13 54q0 25 -13 29q-16 0 -44.5 -23.5t-76.5 -68.5q-35 -35 -68.5 -74t-65 -79t-59.5 -80t-48 -77q-23 -39 -46.5 -89t-45.5 -122q-6 -18 -10.5 -33.5 t-8.5 -33.5q-6 -23 -10 -34t-14 -26q-6 -10 -19.5 -22t-30 -22.5t-35 -18.5t-36.5 -8q-27 0 -36 6t-11 22zM592 1036q0 18 64.5 51t185.5 70q39 12 90 22.5t106.5 17.5t113.5 11t112 4q66 0 118 -11t52 -32q0 -20 -28 -47.5t-65 -38.5q-20 6 -39.5 14.5t-46 14.5t-64.5 10 t-93 4q-53 0 -125 -7t-150 -25q-33 -8 -67.5 -19.5t-65.5 -23t-54.5 -19.5t-29.5 -8q-14 0 -14 12z" />
<glyph unicode="&#x443;" horiz-adv-x="976" d="M-313 -805q0 12 28 12q20 0 31.5 -1t21 -3t21.5 -3t35 -1q131 0 238.5 50.5t199.5 162.5q41 49 103.5 167t134.5 298q63 160 110 298t82 243l-6 2q-27 -35 -73 -87t-101 -110.5t-113.5 -115t-107.5 -95.5q-18 -10 -32.5 -20t-32 -18.5t-39 -13.5t-52.5 -5 q-20 0 -34.5 16.5t-14.5 63.5q0 20 10 59t27.5 90.5t38 109.5t41.5 118q14 45 25.5 78.5t22.5 67.5t21.5 72t26.5 89q8 25 16.5 59.5t8.5 59.5q0 8 -2.5 17t-12.5 9t-23.5 -5t-25.5 -9l-29 -14q-4 0 -6 11t-6 17q0 2 10.5 11.5t27.5 19.5t36.5 20.5t38.5 16.5 q45 16 76.5 24.5t53 11.5t34 2t20.5 -1q20 0 19 -19l-25 -80q-29 -78 -55 -159q-23 -70 -48.5 -150t-48.5 -147q-29 -90 -50 -154.5t-21 -93.5q0 -18 20 -21q23 0 51.5 22.5t63.5 53.5q37 33 81 80t87 99.5t81 105.5t62 98l47 152q16 47 30.5 78.5t39.5 54.5q27 25 56.5 35 t64.5 12q26 0 28 -33q0 -18 -7 -43.5t-17 -60.5q-16 -51 -44 -101.5t-52 -91.5q-23 -74 -35.5 -119t-16.5 -61q-70 -248 -135 -432q-61 -178 -134 -329.5t-167 -266.5q-43 -51 -99 -98.5t-124 -83t-146.5 -58t-164.5 -22.5q-170 -4 -170 59z" />
<glyph unicode="&#x444;" horiz-adv-x="1357" d="M106 303q0 268 218 471q98 88 212.5 142.5t258.5 76.5l79 238q33 100 61 160.5t49.5 96.5t38.5 52t30 29q16 10 39.5 20t44.5 10q12 0 15 -3t3 -11t-6 -18.5t-10 -18.5q-23 -41 -43.5 -85t-38.5 -95q-37 -98 -66.5 -192.5t-56.5 -174.5q178 0 282.5 -70.5t104.5 -242.5 q0 -123 -51 -244.5t-142.5 -222t-218.5 -166t-280 -78.5q-20 -76 -41 -155q-16 -68 -36 -150t-36 -157q-16 -78 -30.5 -144.5t-28.5 -115.5q-6 -12 -12.5 -23.5t-12.5 -22.5q-18 -25 -41 -38q-18 -10 -49 -15q-41 0 -47 29q0 16 6 52t17.5 81t23.5 94t25 96 q39 145 72.5 267.5t52.5 193.5q-186 0 -286 84t-100 250zM276 326q0 -121 63.5 -197t180.5 -76q37 150 76 301q16 63 36.5 135t42 144t44 142.5t47.5 133.5q-113 -10 -197 -53t-155 -129q-137 -168 -138 -401zM651 53q80 -10 168 32t162 123t122 194.5t48 248.5 q0 123 -61.5 190.5t-184.5 71.5q-53 -160 -100 -317q-20 -68 -42 -139.5t-42.5 -142t-37.5 -138t-32 -123.5z" />
<glyph unicode="&#x445;" horiz-adv-x="907" d="M4 57q78 35 163 91.5t183 166.5q-31 94 -55.5 178.5t-39.5 150t-23.5 110.5t-8.5 61q0 33 43 76q23 23 51.5 40t51.5 19q14 -96 42.5 -231t69.5 -264q51 63 91 123.5t70 111.5t49.5 90t29.5 62q20 45 32.5 80.5t41.5 62.5q12 12 29.5 17.5t31.5 5.5q6 0 18 -4q5 -3 9 -3 q8 -29 -19.5 -92t-66.5 -125q-14 -23 -44 -69.5t-70 -103t-85 -116t-90 -108.5q31 -86 55.5 -137t44.5 -82q53 -80 97 -86q-14 -53 -55.5 -90t-76.5 -37q-16 0 -34.5 11t-42 44t-53 90.5t-64.5 149.5q-86 -92 -168 -168q-111 -98 -158 -102q-29 0 -39 16q-4 6 -8 23.5 t-2 37.5z" />
<glyph unicode="&#x446;" horiz-adv-x="1040" d="M70 53q0 16 11 68.5t40 132.5l100 295q27 82 42.5 133t23.5 81t9 43t1 17q0 10 -2 17.5t-12 7.5t-28.5 -12.5t-29.5 -12.5q-14 0 -16 25q0 10 57 47q76 47 128 64.5t81 17.5q16 0 17 -23q0 -23 -7.5 -59.5t-17.5 -71.5l-119 -391q-8 -25 -19.5 -57.5t-22.5 -64t-18 -55.5 t-7 -30q0 -8 3 -16t9 -8q14 0 44 28.5t69.5 75.5t85 105.5t88.5 118t80.5 114.5t62.5 96q29 43 45 79t55 71q25 23 50.5 36t48.5 25q20 8 36 8h21q12 2 16 -18q0 -6 -11 -37t-27.5 -76t-34 -95t-31.5 -95q-12 -39 -21.5 -70.5t-18.5 -62.5t-17.5 -62.5t-16.5 -70.5 q-12 -55 -21.5 -112.5t-13.5 -80.5v-28.5t9 -16.5q8 2 20 8q10 4 24.5 9.5t34.5 15.5q16 8 35 13t27 5q12 0 18 -12q0 -4 2 -10q0 -4 1 -9.5t1 -9.5q0 -12 -4 -40.5t-13 -67.5t-21.5 -84t-26.5 -90q-23 -61 -53.5 -120.5t-81.5 -135.5q-55 -82 -96.5 -122t-65.5 -54 q-8 4 -17 12q16 23 53.5 85t65.5 132q25 59 45.5 121.5t36 118t23.5 102.5t10 76q-53 -41 -100 -64q-43 -18 -68 -18q-37 0 -37 53q0 20 5 57t13.5 81t19.5 94.5t22 97.5q8 39 20 84t23 86q12 47 24 92q-39 -55 -80 -113q-37 -51 -83 -112.5t-93 -122.5q-31 -39 -66.5 -83 t-58.5 -69q-29 -31 -49 -54.5t-37 -41.5q-10 -10 -27.5 -24.5t-46.5 -28.5q-27 -10 -41 -14.5t-24 -4.5q-55 0 -55 82z" />
<glyph unicode="&#x447;" horiz-adv-x="888" d="M125 836q4 10 23.5 22t35.5 23q47 27 102.5 47t110.5 20q18 0 19 -18q-4 -18 -10.5 -42t-16.5 -54q-10 -37 -22.5 -76t-22.5 -75t-16 -62.5t-6 -36.5q0 -39 7 -52.5t25 -13.5q20 0 60.5 22.5t88.5 59.5t97 87t86 106l39 57q10 16 20.5 29.5t26.5 23.5q23 16 55.5 24.5 t53.5 8.5q16 0 16 -18q0 -8 -10 -36t-19 -46q-10 -27 -35.5 -106t-54 -175t-54.5 -195.5t-34 -166.5q-2 -14 4 -46q6 -25 6 -26q0 -12 -14 -37t-37.5 -49.5t-53.5 -44t-60 -19.5q-31 0 -31 39q0 16 1 53t13 87q6 25 16.5 66.5t28 104t43 151.5t62.5 210q-14 -16 -43 -43 t-68 -59.5t-87 -69.5t-99 -70q-47 -29 -85 -41t-69 -12q-68 0 -70 94q0 23 9.5 67t25.5 116q8 31 18.5 67.5t16.5 65.5q0 4 1 9t1 9q0 6 2 10q4 23 -10 23q-10 0 -23.5 -5t-25.5 -12q-14 -8 -29 -16z" />
<glyph unicode="&#x448;" horiz-adv-x="1484" d="M70 35q0 27 14 85t35 116q88 252 129 397t51 180q2 4 2 9t2 9q0 6 2 13q2 16 -10 22q-8 0 -35 -12l-43 -20l-8 20q8 12 25.5 23.5t33.5 21.5q47 27 102.5 47.5t110.5 20.5q18 0 19 -19q-2 -14 -5 -29.5t-10.5 -46t-23 -84t-43.5 -141.5l-146 -452q0 -25 13 -25 q4 0 27.5 22.5t59.5 61.5t81 93t94 120q72 98 127 177t110 163q6 10 14.5 23.5t14.5 23.5q8 12 16 27q16 16 55.5 35.5t80.5 21.5q18 0 20 -20q-10 -29 -18 -54q-8 -23 -16.5 -47t-14.5 -47q-16 -51 -29.5 -94t-26 -84t-25.5 -84t-30 -94q-10 -29 -19 -64t-20 -63l-20 -70 q0 -25 10 -24q6 0 18.5 9t29 24.5t33.5 31.5t32 33q45 49 80 91t67.5 83t63 85t65.5 99l138 213q12 25 51 51q20 10 24 15q16 10 45 19t45 9q20 0 19 -18q-20 -53 -41 -107q-16 -47 -34.5 -99t-31.5 -97q-31 -117 -51 -222.5t-31 -176.5q-4 -16 -5 -34t-3 -34q-2 -18 -2 -37 q0 -57 -61 -113q-41 -35 -99 -38h-20t-12 10t-5 22.5t-1 22.5q0 16 6 51t10 57q10 47 28.5 123t36.5 152q23 86 48 184l-9 4q-35 -51 -60.5 -87t-53 -71.5t-60 -75.5t-84.5 -100q-57 -66 -108 -123t-94 -100q-27 -27 -69 -48t-71 -21q-23 0 -36 15t-13 62q0 8 2 22.5t5 30 t6.5 29t5.5 19.5l172 489l-4 2q-66 -92 -121 -172q-25 -35 -49.5 -68.5t-46 -64.5t-40 -54.5t-28.5 -35.5q-94 -115 -164 -184.5t-111 -92.5q-16 -10 -33.5 -14t-33.5 -8q-49 0 -51 80z" />
<glyph unicode="&#x449;" horiz-adv-x="1554" d="M66 68q0 27 14 85t35 115q88 246 130 392.5t48 175.5l6 30q2 16 -10 23q-8 0 -35 -12l-43 -21l-8 21q8 12 25.5 23t33.5 22q47 27 102.5 47t110.5 20q18 0 19 -18q-2 -14 -10.5 -46t-19.5 -72t-24.5 -86t-25.5 -87l-146 -453q0 -25 13 -24q4 0 27.5 22.5t59 61.5t81 93 t94.5 120q72 98 132 183t105 157q6 10 13.5 20t13.5 21q8 10 14 24q16 16 57.5 40t82.5 26q18 0 20 -21q-10 -29 -18 -53q-8 -23 -16.5 -47.5t-14.5 -46.5q-16 -51 -29.5 -94t-26 -84t-25.5 -84t-30 -95q-10 -29 -19 -63.5t-20 -63.5q-10 -35 -20 -69q0 -25 10 -25 q6 0 18.5 9.5t29 24.5t33.5 31.5t32 33.5q45 49 79.5 91t67.5 83t63.5 85t65.5 99l137 213q12 25 52 51q20 10 24 15q16 10 45 19t45 9q20 0 19 -18q-20 -53 -41 -107q-16 -47 -34.5 -99t-31.5 -97q-31 -117 -51 -222.5t-31 -177.5q-4 -31 -6 -58.5t-2 -39.5q0 -6 2 -13 t8 -7q12 0 33 10t47 22q16 8 33.5 13.5t34.5 5.5q12 0 18 -13l4 -28q0 -41 -13 -102.5t-41 -136.5t-71 -161t-104 -174q-98 -141 -137 -141l-17 12q66 88 125 230q78 186 107 399q-29 -23 -63.5 -38l-57.5 -25q-43 -18 -68 -19q-27 0 -31.5 31t-4.5 59q0 6 4 33t8 49 q10 47 28.5 123t36.5 152q23 86 47 184l-8 4q-35 -51 -60.5 -87t-53 -72t-60.5 -75.5t-84 -99.5q-57 -66 -108.5 -123t-94.5 -100q-27 -27 -68.5 -48.5t-70.5 -21.5q-23 0 -36 15.5t-13 62.5q0 8 2 22.5t5 30t6 28.5t5 19l173 490l-5 2q-66 -92 -120 -172 q-25 -35 -49.5 -68.5t-46 -64.5t-40 -54.5t-28.5 -35.5q-94 -115 -164 -184.5t-111 -92.5q-16 -10 -33.5 -14t-33.5 -8q-49 0 -51 80z" />
<glyph unicode="&#x44a;" horiz-adv-x="894" d="M104 834q0 18 13.5 41.5t38.5 33.5q14 6 27.5 5t29.5 -1q25 0 87 2.5t128 8.5q31 4 48.5 6t45.5 6q14 2 21.5 3t19.5 1q10 0 11 -6t1 -19q0 -6 -9 -34.5t-21.5 -64.5t-23.5 -70.5t-17 -51.5q-10 -35 -20.5 -63.5t-28.5 -77.5q53 35 112.5 55.5t118.5 20.5q154 0 154 -140 q0 -63 -26 -133.5t-77 -134.5q-41 -53 -93 -100t-138 -96q-59 -35 -118.5 -53.5t-102.5 -18.5q-123 0 -123 88q0 29 6 65q4 20 13 54.5t22.5 76.5t30 88t32.5 89q25 66 54.5 145.5t56.5 147.5q30 79 61 157q-27 -6 -53 -12q-25 -4 -54.5 -11t-62.5 -12q-37 -6 -72.5 -9 t-52.5 -3q-12 0 -24.5 3t-14.5 14zM334 127q0 -39 15.5 -54.5t62.5 -15.5q39 0 85 27t87 75t68.5 113.5t27.5 145.5q0 51 -18.5 87t-65.5 36q-37 0 -78 -14.5t-82 -43.5q-18 -47 -35 -94q-14 -41 -27.5 -88t-23.5 -88q-6 -25 -11 -47.5t-5 -38.5z" />
<glyph unicode="&#x44b;" horiz-adv-x="1200" d="M92 41q0 47 17.5 133t70.5 238q6 18 18.5 53t26 77t26.5 87t25 84q4 14 8.5 31.5t8.5 33.5q4 18 8 39l2 25q0 14 -10 14q-12 0 -26.5 -3t-24.5 -7q-12 -6 -25 -10q-16 0 -16 26q0 12 32.5 29.5t77.5 38.5q49 23 97.5 35t76.5 12q12 0 22.5 -5t10.5 -22q0 -18 -31 -112 q-14 -47 -38.5 -117t-63.5 -168q53 35 110.5 57.5t116.5 22.5q78 0 116 -34t40 -112q2 -137 -100 -266q-41 -53 -93.5 -103t-138.5 -100q-59 -35 -118.5 -50t-102.5 -15q-123 0 -123 88zM260 131q0 -39 17.5 -53.5t64.5 -14.5q33 0 79 21.5t88 67t71.5 111t29.5 155.5 q0 51 -22.5 89t-73.5 38q-35 0 -74.5 -17.5t-74.5 -40.5q-10 -27 -19 -53q-8 -23 -17.5 -49.5t-15.5 -48.5q-18 -59 -35.5 -118.5t-17.5 -86.5zM770 -27q0 27 19.5 111t60.5 229q14 49 29 103q12 43 26.5 94t28.5 92q20 63 39.5 122.5t32.5 94.5q12 35 21 50.5t32 31.5 q16 10 30.5 15.5t34.5 5.5q35 0 50.5 -4.5t15.5 -24.5q0 -12 -12.5 -43t-22.5 -59q-14 -39 -24.5 -66t-24.5 -66q-41 -115 -65.5 -208t-45.5 -193q-6 -29 -9 -50.5t-5 -49.5q-4 -41 -5 -71t-11 -52q-4 -6 -21.5 -20.5t-40 -30t-48.5 -26.5t-44 -11q-12 0 -25.5 6t-15.5 20z " />
<glyph unicode="&#x44c;" horiz-adv-x="831" d="M92 41q0 47 17.5 133t70.5 238q6 18 18.5 53t26 77t26.5 87t25 84q4 14 8.5 31.5t8.5 33.5q4 18 8 39l2 25q0 14 -10 14q-12 0 -26.5 -3t-24.5 -7q-12 -6 -25 -10q-16 0 -16 26q0 12 32.5 29.5t77.5 38.5q49 23 97.5 35t76.5 12q12 0 22.5 -5t10.5 -22q0 -18 -31 -112 q-14 -47 -38.5 -117t-63.5 -168q53 35 110.5 57.5t116.5 22.5q78 0 116 -34t40 -112q2 -137 -100 -266q-41 -53 -93.5 -103t-138.5 -100q-59 -35 -118.5 -50t-102.5 -15q-123 0 -123 88zM260 131q0 -39 17.5 -53.5t64.5 -14.5q33 0 79 21.5t88 67t71.5 111t29.5 155.5 q0 51 -22.5 89t-73.5 38q-35 0 -74.5 -17.5t-74.5 -40.5q-10 -27 -19 -53q-8 -23 -17.5 -49.5t-15.5 -48.5q-18 -59 -35.5 -118.5t-17.5 -86.5z" />
<glyph unicode="&#x44d;" horiz-adv-x="905" d="M53 94q0 49 29 94t74 58q8 -90 53 -136.5t108 -46.5q61 0 115.5 19.5t102.5 73.5q49 53 82.5 125.5t58.5 171.5l-174 -9l-189 -10q-35 -4 -34 17q0 12 18 23t37 18q25 8 56.5 12t68.5 8q35 4 75.5 8t75.5 8q39 5 80 7q6 35 10.5 72.5t4.5 90.5q0 102 -33 139t-84 37 q-78 0 -153 -45t-128 -100q-10 -12 -26 -12q-18 0 -19 16q0 14 4 27q2 6 6 10q39 41 83 78t94.5 65.5t106.5 46t122 17.5q37 0 73.5 -10.5t64.5 -35t45.5 -65.5t17.5 -102q0 -39 -10.5 -100.5t-26.5 -114.5q23 0 33 -9.5t10 -21.5q0 -25 -21 -39q-12 -10 -23.5 -12t-27.5 -4 q-35 -86 -80 -168t-121 -152q-90 -82 -179 -128t-177 -46q-96 0 -149.5 34t-53.5 91z" />
<glyph unicode="&#x44e;" horiz-adv-x="1394" d="M115 -16q0 6 3 24.5t7 42t9 50t11 51.5q8 39 22.5 86t27.5 90q14 49 30 100l-57 -25l-27 -6q-18 0 -20 29q0 25 35 45q37 18 92 31l24 78q10 33 20.5 70.5t20.5 70.5q10 35 20.5 72.5t10.5 50.5q0 6 -2 12t-8 6q-23 0 -35 -6t-35 -12q-6 -2 -9 -4t-13 -2q-6 0 -10.5 6 t-4.5 10q0 14 44 39t145 55q35 10 72.5 15.5t52.5 5.5q18 0 18 -19q-10 -31 -20 -61q-10 -27 -19.5 -57.5t-17.5 -55.5q-12 -37 -25.5 -81t-23.5 -81q-12 -45 -25 -88q18 4 41 9q16 4 37.5 6t38.5 6q10 2 23.5 2t25.5 2q12 0 27 2q74 172 219 291q147 117 274 117 q123 0 178 -56q56 -53 56 -192q0 -233 -168 -484q-86 -129 -181.5 -194.5t-216.5 -65.5q-47 0 -89 15.5t-73.5 49.5t-50 89t-18.5 133q0 76 17.5 138.5t27.5 94.5q-14 -2 -25 -2q-10 0 -20 -1t-21 -1q-18 -4 -39.5 -8t-39.5 -8q-23 -6 -43 -10l-39 -123q-8 -31 -17 -60 q-6 -25 -13 -54t-11 -54q-8 -39 -9 -72q0 -29 -8 -43q-4 -6 -23.5 -22.5t-45 -32.5t-51 -29.5t-39.5 -13.5q-23 0 -29 6t-8 23zM725 274q0 -115 36 -168t89 -53q59 0 114.5 38t104.5 136q25 47 42 108.5t29.5 124t18.5 118t6 92.5q0 41 -3 77.5t-13 59.5q-25 72 -94 72 q-66 0 -125.5 -53.5t-104.5 -140.5t-72.5 -195.5t-27.5 -215.5z" />
<glyph unicode="&#x44f;" horiz-adv-x="884" d="M-39 -20q0 16 17.5 51t58.5 90t88 99t90 79q25 20 54.5 39.5t60 38t59.5 33t51 24.5q-121 8 -184 61.5t-63 125.5q0 106 63 174.5t186 113.5q84 29 163 36t159 9l82 2q51 0 51 -34q0 -14 -7 -35t-21.5 -54.5t-34 -84t-43.5 -125.5q-29 -86 -48.5 -168t-31.5 -136 q-10 -53 -15.5 -97t-7.5 -81v-12t-4 -16q0 -14 -15.5 -40t-80.5 -73q-25 -18 -58 -18q-31 0 -30 20l2 18q0 10 3 36t7 61t10 72.5t13 72.5q4 25 11 53.5t13 55.5q8 31 16 61l-26 -6q-23 -4 -63 -21.5t-88 -48t-97 -75.5t-88 -107q-14 -20 -21.5 -40.5t-13.5 -39.5 q-6 -39 -20 -55q-10 -12 -28.5 -27.5t-40 -29t-43 -22.5t-38.5 -9q-29 0 -38 6t-9 23zM360 623q0 -14 6.5 -35t21.5 -40.5t43 -32.5t69 -13q45 0 73 6q16 4 29 8l105 354q-12 4 -29 9q-14 4 -33.5 6t-44.5 2q-37 0 -80 -15.5t-77.5 -48t-58.5 -82t-24 -118.5z" />
<glyph unicode="&#x451;" horiz-adv-x="774" d="M55 262q0 121 39 230.5t131 216.5q53 61 115.5 108t155.5 96q49 27 91 37.5t70 14.5q59 0 84 -15.5t25 -54.5q0 -18 -7 -47t-30.5 -68t-68 -87t-117.5 -105q-59 -47 -112.5 -80t-94.5 -55q-47 -25 -86 -41l-8 -33q-4 -12 -5 -25.5t-1 -19.5q0 -129 45 -201t163 -72 q31 0 64 9.5t59 21.5q31 12 60 31q12 -12 12 -39q0 -12 -27.5 -31.5t-71.5 -38t-99.5 -32t-108.5 -13.5q-131 0 -204 77t-73 216zM258 504q49 10 88 27.5t105 64.5q88 63 112.5 118.5t24.5 96.5t-51 41q-35 0 -76 -26.5t-88 -86.5q-43 -57 -72 -116.5t-43 -118.5z M433.5 1110.5q0.5 15.5 0.5 38.5q-2 68 29 98q27 29 98 33q37 0 51 -20q13 -29 13 -70q0 -29 -5.5 -47.5t-25.5 -40.5q-18 -20 -36.5 -26.5t-53.5 -8.5q-18 0 -30.5 2t-24.5 12q-16 14 -15.5 29.5zM727 1149q0 25 2 49.5t25 48.5q27 29 98 33q37 0 51 -23q15 -24 15 -67 q0 -33 -7.5 -50.5t-23.5 -37.5q-27 -33 -90 -35q-20 0 -33.5 -1t-24.5 15q-8 10 -10 27.5t-2 40.5z" />
<glyph unicode="&#x452;" horiz-adv-x="960" d="M78 -16q0 6 7 31.5t17.5 60.5t21.5 73.5l21 73.5q31 109 55.5 198t48 174t49.5 174t56 198q16 63 35 118q-10 0 -24.5 -1t-26.5 -1h-29q-37 0 -37 23q0 45 37 68q18 10 43 13t54 3h14q20 68 36.5 125t26.5 98q10 39 54 70q20 16 40.5 23t36.5 12q20 4 37 6q18 0 19 -21 q-12 -37 -25 -73q-10 -33 -21.5 -69t-21.5 -71q-8 -27 -15 -51.5t-14 -48.5q16 -2 32 -2h26h22l187 8q37 2 37 -14q0 -18 -39 -39q-18 -10 -93 -31.5t-178 -21.5h-22q-39 -139 -76 -272.5t-84 -289.5l6 -2q43 59 90 121q41 51 90.5 110.5t96.5 110.5q23 25 55.5 47.5 t46.5 32.5q49 31 121 31q23 0 34 -17.5t11 -60.5q0 -16 -5 -44t-13.5 -63.5t-18.5 -75.5t-18 -79q-27 -117 -50.5 -213t-51 -187.5t-60.5 -183.5t-78 -202q-35 -86 -87 -163t-110.5 -140.5t-115 -109.5t-101.5 -71q-20 -10 -37.5 -14t-31.5 -4q-20 0 -21 12q0 14 22.5 22.5 t39.5 20.5q203 154 354 614q25 78 47.5 149t42 139.5t39 140t39.5 149.5q16 59 28.5 119.5t12.5 83.5q0 14 -21 14q-18 0 -69 -45t-113.5 -121t-127 -175t-112.5 -208q-12 -27 -21 -59.5t-17 -61.5q-8 -35 -17 -69q-12 -41 -37 -76q-12 -16 -47 -30.5t-55 -14.5q-29 0 -37 6 t-10 23z" />
<glyph unicode="&#x453;" horiz-adv-x="706" d="M143 719q0 10 4.5 16t8.5 13q16 18 35.5 36.5t58.5 51.5q82 68 154.5 94t95.5 26q47 0 47 -71q2 -41 -15.5 -110.5t-44.5 -141.5q-16 -43 -32.5 -90t-30.5 -89t-25.5 -78.5t-19.5 -56.5q-12 -35 -28.5 -78.5t-16.5 -70.5q0 -33 31 -35q25 0 61.5 22.5t71.5 51.5q4 4 11 8 t13 4q8 0 7 -5t1 -11q0 -10 -26.5 -42t-71.5 -73q-14 -12 -37.5 -32.5t-52.5 -40t-59.5 -34t-59.5 -14.5q-33 0 -52 25.5t-19 73.5q0 27 10 67.5t18 63.5l156 436q23 66 34 105.5t11 50.5q0 33 -16 32q-41 0 -87.5 -34.5t-91.5 -79.5q-8 -8 -12 -12.5t-10 -4.5 q-8 0 -14.5 8.5t-6.5 18.5zM444 1049q0 4 12.5 26.5t30 52t37 61.5t33.5 54q27 43 60.5 66.5t89.5 23.5q16 0 19 -6t3 -20q0 -8 -21.5 -36t-56.5 -65t-77 -78t-80 -75q-4 -4 -16.5 -11.5t-22.5 -7.5t-11 15z" />
<glyph unicode="&#x454;" horiz-adv-x="745" d="M41 209q-2 287 219 534q98 111 198.5 166.5t178.5 55.5q31 0 52.5 1t41.5 -14l8 -12q12 -23 13 -53q0 -76 -19 -137q-8 -29 -18 -52.5t-33 -42.5q-35 -29 -63.5 -38t-43.5 -9q-10 0 -16 13l16 45q14 37 19.5 70.5t7.5 80.5q0 43 -47 43q-53 0 -102.5 -31.5t-91.5 -87 t-73.5 -128t-49.5 -154.5q33 2 67.5 5t69.5 3q43 0 61.5 1t30.5 1t28.5 1t55.5 1q18 0 38.5 -3t20.5 -15q0 -10 -33.5 -31t-119.5 -31q-25 -4 -43.5 -5t-33.5 -2t-30.5 -2t-36.5 -1q-29 -2 -48.5 -1t-39.5 1q-6 -47 -6 -90q0 -111 45 -174q23 -31 55.5 -42.5t92.5 -11.5 q41 0 76.5 15.5t70.5 36.5q20 14 35 14q8 0 18.5 -6t10.5 -29q0 -8 -24 -28.5t-68 -42t-109.5 -38t-147.5 -16.5q-100 0 -165.5 58.5t-67.5 181.5z" />
<glyph unicode="&#x455;" horiz-adv-x="696" d="M-51 82q2 23 17.5 40t41.5 42q10 10 37 23.5t43 13.5q8 -31 22.5 -57.5t37 -48t54 -34t77.5 -12.5q51 0 93 14.5t72.5 40t48 58.5t17.5 69q0 35 -20.5 66t-55.5 51q-66 39 -120 68.5t-113 75.5q-39 29 -45 60.5t-6 72.5q0 18 13 54t47 76t92 76.5t149 59.5q43 10 91 18.5 t83 8.5q29 0 61.5 -1.5t58.5 -1.5h60q-10 -51 -47 -76.5t-84 -25.5q-49 0 -92 6t-90 6q-82 0 -144 -37q-55 -33 -59 -110q0 -18 8 -37.5t25 -32.5q29 -23 66.5 -45t74.5 -44.5t70.5 -44t56.5 -42.5q59 -53 59 -119q0 -45 -21.5 -94t-59.5 -95t-92 -83t-120 -57 q-41 -12 -79.5 -18.5t-104.5 -6.5q-37 0 -74 9t-67.5 25.5t-53 39t-28.5 49.5z" />
<glyph unicode="&#x456;" horiz-adv-x="479" d="M63 -16q0 23 15 67q23 70 41 124t41 128q16 57 26.5 97t24.5 98q10 41 21.5 83t20.5 80.5t15 70.5t6 52t-6 25.5t-16 5.5q-8 0 -16.5 -2t-18.5 -6t-22 -6q-6 4 -11 30q16 14 71.5 39t123.5 48q41 14 78 14q18 0 18 -23l-24 -94q-10 -41 -22.5 -87t-25.5 -83 q-12 -39 -21 -68.5t-17.5 -59.5t-16.5 -60.5t-18 -69.5q-10 -35 -20.5 -73t-18.5 -71.5t-14.5 -59t-6.5 -36.5q0 -16 3 -28.5t3 -22.5t-7 -33.5t-56 -62.5q-4 -4 -17.5 -10t-29.5 -14.5t-32.5 -13.5t-29.5 -5q-16 0 -28.5 5t-12.5 22zM358 1169q4 66 32 103t102 37 q45 0 58 -25t9 -72q-4 -49 -33.5 -89t-93.5 -40q-43 0 -60.5 17.5t-13.5 68.5z" />
<glyph unicode="&#x457;" horiz-adv-x="479" d="M63 -16q0 -16 12.5 -21.5t28.5 -5.5q12 0 29 5t33 13.5t29.5 14.5t17.5 10q49 39 56 62.5t7 33.5t-3 22.5t-3 28.5q0 10 6.5 36t14.5 59.5t18 71.5t21 73q10 39 18 69.5t16.5 60.5t17.5 59.5t21 68.5q12 37 24.5 83t23.5 87l24 94q0 23 -18 23q-37 0 -78 -14 q-68 -23 -123 -47.5t-72 -39.5q4 -27 11 -30q12 2 22 6t18.5 6t16.5 2q10 0 16 -5t6 -26q0 -20 -6 -52t-15 -70.5t-20.5 -80.5t-21.5 -83q-14 -57 -24.5 -97.5t-26.5 -97.5q-23 -74 -41.5 -128t-40.5 -124q-14 -45 -15 -67zM215 1169q4 66 31.5 103t101.5 37q45 0 58.5 -25 t9.5 -72q-4 -49 -34 -89t-93 -40q-43 0 -60.5 17.5t-13.5 68.5zM481 1169q4 66 32 103t101 37q45 0 58.5 -25t9.5 -72q-4 -49 -34 -89t-93 -40q-43 0 -60.5 17.5t-13.5 68.5z" />
<glyph unicode="&#x458;" horiz-adv-x="514" d="M-276 -649q0 12 22.5 21.5t38.5 21.5q57 43 102 95t84 126t76 173t80 235q25 80 44 143t36.5 125.5t35 128t40.5 147.5q16 61 29.5 121t13.5 90q0 10 -1.5 21.5t-11.5 11.5q-8 0 -16 -2t-18 -6t-23 -6q-6 4 -10 30q16 14 73.5 39t120.5 47q37 14 78 15q18 0 19 -23 q-12 -47 -27 -94q-12 -41 -26.5 -85t-24.5 -81q-23 -72 -47.5 -157t-46.5 -158q-25 -86 -52 -174q-27 -90 -53.5 -168t-54.5 -146q-35 -84 -79 -159.5t-94 -139t-105.5 -111.5t-112.5 -75q-43 -18 -70 -19q-20 0 -20 13zM420 1169q4 66 31.5 103t101.5 37q45 0 58.5 -25 t9.5 -72q-4 -49 -34 -89t-93 -40q-43 0 -60.5 17.5t-13.5 68.5z" />
<glyph unicode="&#x459;" horiz-adv-x="1171" d="M-23 39q0 88 209 407q104 160 190.5 263.5t151.5 158.5q39 31 95.5 60.5t109.5 29.5q23 0 43.5 -11t20.5 -46q0 -16 -8.5 -46t-16.5 -60q-10 -35 -21.5 -76t-21.5 -76q-12 -41 -22 -84q63 33 128.5 53.5t125.5 20.5q78 0 115.5 -34t39.5 -112q2 -137 -100 -266 q-20 -27 -62.5 -67.5t-96.5 -80.5t-115.5 -69t-120.5 -29q-20 0 -47 3.5t-50.5 16.5t-40 39.5t-16.5 71.5q0 16 3 52.5t11 81.5q8 41 27.5 119.5t56.5 209.5q27 94 41.5 148.5t14.5 68.5q0 18 -25 19q-35 0 -83 -43t-122 -137q-33 -41 -67.5 -97.5t-69.5 -121.5 q-41 -82 -68.5 -143.5t-27.5 -133.5q0 -39 6 -59q-25 -43 -62 -74t-67 -31q-33 0 -45 21q-12 18 -13 53zM621 162q0 -39 11 -69t58 -30q41 0 107 43q37 23 66.5 59t51 78t32.5 87t11 88q0 51 -22.5 89t-73.5 38q-35 0 -86 -15t-86 -38q-20 -74 -35 -140q-14 -55 -24 -109.5 t-10 -80.5z" />
<glyph unicode="&#x45a;" horiz-adv-x="1337" d="M66 -18q0 12 7 52t25 111q10 39 24.5 88.5t27.5 92.5q14 51 30 102q-23 -4 -49.5 -8t-38.5 -4q-18 0 -18 28q0 25 35 45q16 10 45.5 18.5t52.5 12.5l86 295q0 4 2 10q0 4 1 8.5t1 8.5q0 18 -18 18q-23 0 -41.5 -10t-34.5 -10q-10 0 -11.5 7t-1.5 15q0 6 18.5 18.5 t48.5 27t66.5 27.5t73.5 23q18 4 46 6.5t51 2.5q16 0 16 -19q0 -8 -10.5 -44t-27.5 -91t-38.5 -126t-44.5 -146l299 24q25 76 47 140q18 53 37 103t29 66q20 35 67 57.5t88 22.5q8 0 12.5 -6t4.5 -12q0 -12 -8.5 -33.5t-16.5 -42.5q-23 -66 -46 -132.5t-56 -162.5 q63 33 125.5 50.5t122.5 17.5q78 0 115.5 -34t39.5 -112q2 -137 -100 -266q-41 -53 -93 -103t-138 -100q-59 -35 -119 -50t-103 -15q-123 0 -123 88q0 68 27 178.5t70 272.5l-314 -41q-6 -16 -12 -35q-4 -16 -10 -32.5t-10 -31.5q-8 -27 -16.5 -56.5t-14.5 -56t-10 -47 t-4 -26.5q0 -29 2 -44.5t2 -27.5q0 -16 -11 -35q-6 -10 -38.5 -40.5t-65.5 -49.5q-12 -8 -24.5 -12t-30.5 -4q-16 0 -31.5 3t-15.5 26zM741 131q0 -39 17.5 -53.5t64.5 -14.5q41 0 107 43q37 23 66.5 59t51 78t33 87t11.5 88q0 51 -22.5 89t-74.5 38q-35 0 -86 -15t-86 -38 q-23 -82 -41 -154q-16 -61 -28.5 -120.5t-12.5 -86.5z" />
<glyph unicode="&#x45b;" horiz-adv-x="960" d="M78 -16q0 6 7 31.5t17.5 60.5t21.5 73.5l21 73.5q31 109 55.5 198t49 174t49.5 174t55 198q10 31 17.5 60.5t17.5 57.5h-27q-8 0 -17 -1t-17 -1h-19q-37 0 -37 23q0 45 37 68q18 10 43 13t54 3h14q20 68 36.5 125t26.5 98q10 39 54 70q20 16 40.5 23t36.5 12q20 4 37 6 q18 0 19 -21q-12 -37 -25 -73q-10 -33 -21.5 -69t-21.5 -71q-8 -27 -15 -51.5t-14 -48.5q16 -2 32 -2h26h22l187 8q37 2 37 -14q0 -18 -39 -39q-18 -10 -93 -31.5t-178 -21.5h-22q-39 -139 -76 -272.5t-84 -289.5l6 -2q43 59 90 121q41 51 90.5 110.5t96.5 110.5 q23 25 55.5 47.5t46.5 32.5q49 31 121 31q23 0 34 -17.5t11 -60.5q0 -16 -5 -44t-13.5 -63.5t-18.5 -75.5t-18 -79q-18 -78 -36 -137.5t-34 -124.5q-6 -18 -11 -43t-10.5 -46.5t-8.5 -36.5t-3 -20q0 -23 5 -36t1 -35q-4 -16 -8 -25.5t-16 -25.5t-32.5 -34t-42 -33t-43 -24.5 t-36.5 -9.5q-31 0 -31 39q0 18 8.5 49t14.5 54q10 35 20 71q10 31 19.5 68t19.5 67q20 70 34 120t30 122q14 59 27.5 119.5t13.5 83.5q0 14 -21 14q-18 0 -69 -45t-113.5 -121t-127 -175t-112.5 -208q-12 -27 -21 -59.5t-17 -61.5q-8 -35 -17 -69q-12 -41 -37 -76 q-12 -16 -47 -30.5t-55 -14.5q-29 0 -37 6t-10 23z" />
<glyph unicode="&#x45c;" horiz-adv-x="837" d="M51 37q0 4 7.5 35.5t27.5 97.5q18 61 35.5 121.5t34.5 120.5q31 102 55 186q10 37 21.5 73t19.5 65.5t14 51t8 29.5q2 10 3.5 16.5t1.5 16.5q0 12 -13 12q-14 0 -28.5 -6t-28.5 -12q-16 -8 -31 -19q-6 8 -8 17.5t-4 15.5q10 12 29.5 24.5t29.5 18.5q45 23 115 45.5 t135 22.5q18 0 19 -19q-4 -20 -13 -41q-6 -16 -13 -36.5t-11 -36.5q-16 -47 -32.5 -100.5t-33.5 -100.5q-18 -55 -35 -111q39 45 82 94q35 41 80 91.5t90 101.5q33 37 69 72t71.5 61.5t71.5 43t69 16.5q16 0 23.5 -9.5t11.5 -44.5v-35q0 -53 -26 -110t-67 -84 q-27 -16 -61 -23q8 18 16.5 49t8.5 56q0 55 -17 55q-12 0 -35.5 -10t-56.5 -43t-66.5 -69t-62.5 -68q-35 -37 -65 -76q10 -29 30.5 -76t46 -99t53 -105.5t52.5 -96.5q47 -78 91 -120t79 -54q2 -4 -6.5 -18.5t-25.5 -28.5t-44 -25.5t-61 -11.5q-43 0 -79 27.5t-77 93.5 q-18 31 -51 92t-86 172q-29 61 -45.5 98t-22.5 54q-6 -25 -14 -48q-6 -20 -13.5 -42.5t-11.5 -41.5q-8 -29 -16 -62.5t-15 -61.5l-16 -70q-12 -53 -24 -76q-10 -20 -23 -33q-6 -6 -21.5 -15t-33 -17.5t-35 -13.5t-27.5 -5q-25 0 -34 6t-11 23zM596 1077q0 6 13.5 31t34 57.5 t41 67.5t36.5 59q29 47 65.5 73t98.5 26q18 0 21 -6.5t3 -22.5q0 -8 -23.5 -39t-61.5 -72t-84 -86t-89 -84q-4 -4 -18.5 -12t-24.5 -8t-11 4t-1 12z" />
<glyph unicode="&#x45e;" horiz-adv-x="1021" d="M-313 -805q0 12 28 12q20 0 31.5 -1t21 -3t21.5 -3t35 -1q131 0 238.5 50.5t199.5 162.5q41 49 103.5 167t134.5 298q63 160 110 298t82 243l-6 2q-27 -35 -73 -87t-101 -110.5t-113.5 -115t-107.5 -95.5q-18 -10 -32.5 -20t-32 -18.5t-39 -13.5t-52.5 -5 q-20 0 -34.5 16.5t-14.5 63.5q0 20 10 59t27.5 90.5t38 109.5t41.5 118q14 45 25.5 78.5t22.5 67.5t21.5 72t26.5 89q8 25 16.5 59.5t8.5 59.5q0 8 -2.5 17t-12.5 9t-23.5 -5t-25.5 -9l-29 -14q-4 0 -6 11t-6 17q0 2 10.5 11.5t27.5 19.5t36.5 20.5t38.5 16.5 q45 16 76.5 24.5t53 11.5t34 2t20.5 -1q20 0 19 -19l-25 -80q-29 -78 -55 -159q-23 -70 -48.5 -150t-48.5 -147q-29 -90 -50 -154.5t-21 -93.5q0 -18 20 -21q23 0 51.5 22.5t63.5 53.5q37 33 81 80t87 99.5t81 105.5t62 98l47 152q16 47 30.5 78.5t39.5 54.5q27 25 56.5 35 t64.5 12q26 0 28 -33q0 -18 -7 -43.5t-17 -60.5q-16 -51 -44 -101.5t-52 -91.5q-23 -74 -35.5 -119t-16.5 -61q-70 -248 -135 -432q-61 -178 -134 -329.5t-167 -266.5q-43 -51 -99 -98.5t-124 -83t-146.5 -58t-164.5 -22.5q-170 -4 -170 59zM559 1153q0 8 3 21.5t7 23.5 q10 29 31 62.5t55 33.5q12 0 19.5 -13t24 -28.5t48 -29t93.5 -13.5q37 0 75.5 16.5t72.5 42t58.5 60.5t34.5 72q8 37 49 37q25 0 25 -33q0 -16 -19.5 -56t-60.5 -81q-55 -53 -108.5 -86t-103.5 -50.5t-96 -23.5t-85 -6q-49 0 -86 14t-37 37z" />
<glyph unicode="&#x45f;" horiz-adv-x="1075" d="M80 68q0 16 12 68t39 132l90 281q27 82 41 133t22.5 81t10.5 43t2 17q0 10 -2 17.5t-12 7.5t-28.5 -12.5t-29.5 -12.5q-14 0 -16 25q0 10 57 47q76 47 128 64.5t81 17.5q16 0 17 -23q0 -16 -7.5 -56t-17.5 -75l-119 -391q-8 -25 -17 -55.5t-18.5 -59t-15.5 -50t-6 -27.5 q0 -8 3 -16.5t9 -8.5q10 0 37 24.5t72 77.5q53 63 92 113.5t73.5 99t68.5 97.5t77 112q29 43 45 79t55 71q25 23 50.5 36t48.5 25q20 8 36 8h21q12 2 16 -18q0 -6 -11 -37t-27.5 -76t-34 -95t-31.5 -95q-12 -39 -21.5 -70.5t-17.5 -62.5t-17.5 -62.5t-17.5 -70.5 q-10 -39 -18 -85t-15 -87q-8 -47 -14 -95q-2 -10 -3 -26.5t-9 -32.5q-2 -6 -17 -20q-4 -4 -18 -16.5t-32.5 -25t-36 -22.5t-25.5 -10q-10 0 -21.5 5t-11.5 15v21q0 12 6 53t15.5 96.5t21.5 118t25 117.5q8 37 20 80t23 80q12 43 24 88q-39 -51 -82 -107q-37 -47 -82 -106.5 t-92 -120.5q-31 -41 -61.5 -77t-53.5 -60q-23 -25 -40 -45.5t-34.5 -38t-38 -32.5t-46.5 -34q-23 -16 -39.5 -17t-26.5 -1q-55 0 -55 82zM195 -641q39 47 59 92t32.5 93t19.5 103.5t18 123.5q10 66 52 151.5t134 179.5l16 -4q-25 -53 -36 -105t-21 -132q-8 -72 -24.5 -152 t-53.5 -151q-37 -72 -79 -119t-107 -96z" />
<glyph unicode="&#x490;" horiz-adv-x="790" d="M55 -25q0 18 5.5 40t17.5 69q35 129 57.5 212t40 150.5t35.5 135t45 163.5q18 70 43 154t47 156q25 84 51 170q6 18 13.5 52t11.5 52h-24.5t-28.5 2q-27 2 -29 23q0 18 41 37q20 10 44 16t52 12q29 4 57.5 6t53.5 2h84t94 3q53 2 104 4q4 16 9.5 34.5t9.5 34.5 q6 20 12 39q12 27 47 56.5t78 29.5q6 0 4 -15.5t-7 -40t-13.5 -55t-16.5 -61.5q-14 -51 -33.5 -68.5t-41.5 -21.5q-8 -2 -25 -2h-14q-14 -4 -29.5 -7t-34.5 -7q-35 -6 -72.5 -9.5t-70.5 -5.5q-37 -2 -76 -2l-229 -790q-18 -66 -38 -137.5t-36 -151.5q-8 -35 -13.5 -77 t-11.5 -73q-6 -41 -30 -67q-10 -12 -26.5 -27.5t-36 -30t-40 -23.5t-35.5 -9q-45 0 -45 28z" />
<glyph unicode="&#x491;" horiz-adv-x="684" d="M63 -16q0 23 15 67q23 70 41 124t41 128q16 57 26.5 97t24.5 98q12 47 24.5 95t23.5 92t18.5 80t7.5 56q-12 0 -44 -1t-48 1q-27 2 -29 23q0 18 41 37q20 10 43.5 16t52.5 12q29 4 57.5 6.5t53.5 2.5h78.5t78.5 2q41 2 84 4q4 16 9.5 34.5t9.5 34.5q6 20 12 39 q12 27 47 56.5t78 29.5q6 0 4 -15.5t-7 -40t-13.5 -55t-16.5 -61.5q-14 -51 -36.5 -70.5t-39.5 -19.5q-23 -6 -38 -2q-14 -4 -30 -7t-34 -7q-35 -6 -55.5 -8.5t-35.5 -4.5t-30 -3t-33 -3q-25 -78 -53.5 -192.5t-60.5 -241.5q-10 -35 -20.5 -74t-18.5 -72.5t-14.5 -59 t-6.5 -34.5q0 -16 3 -28.5t3 -22.5q0 -18 -9 -37.5t-54 -58.5q-8 -6 -34.5 -21.5t-67.5 -23.5q-45 0 -48 29z" />
<glyph unicode="&#x2000;" horiz-adv-x="984" />
<glyph unicode="&#x2001;" horiz-adv-x="1968" />
<glyph unicode="&#x2002;" horiz-adv-x="984" />
<glyph unicode="&#x2003;" horiz-adv-x="1968" />
<glyph unicode="&#x2004;" horiz-adv-x="656" />
<glyph unicode="&#x2005;" horiz-adv-x="492" />
<glyph unicode="&#x2006;" horiz-adv-x="328" />
<glyph unicode="&#x2007;" horiz-adv-x="328" />
<glyph unicode="&#x2008;" horiz-adv-x="246" />
<glyph unicode="&#x2009;" horiz-adv-x="393" />
<glyph unicode="&#x200a;" horiz-adv-x="109" />
<glyph unicode="&#x2010;" horiz-adv-x="620" d="M45 395q0 31 14.5 47.5t36 23.5t49 9t52.5 2h206q27 0 58 1t57.5 3t46 3t25.5 1q27 0 34 -7t7 -15q0 -12 -16.5 -24.5t-41 -21.5t-53 -17.5t-53.5 -12.5q-27 -4 -82 -6t-111 -4q-65 -2 -139 -2q-14 0 -29.5 -2t-29 -1t-22.5 6t-9 17z" />
<glyph unicode="&#x2011;" horiz-adv-x="620" d="M45 395q0 31 14.5 47.5t36 23.5t49 9t52.5 2h206q27 0 58 1t57.5 3t46 3t25.5 1q27 0 34 -7t7 -15q0 -12 -16.5 -24.5t-41 -21.5t-53 -17.5t-53.5 -12.5q-27 -4 -82 -6t-111 -4q-65 -2 -139 -2q-14 0 -29.5 -2t-29 -1t-22.5 6t-9 17z" />
<glyph unicode="&#x2012;" horiz-adv-x="620" d="M45 395q0 31 14.5 47.5t36 23.5t49 9t52.5 2h206q27 0 58 1t57.5 3t46 3t25.5 1q27 0 34 -7t7 -15q0 -12 -16.5 -24.5t-41 -21.5t-53 -17.5t-53.5 -12.5q-27 -4 -82 -6t-111 -4q-65 -2 -139 -2q-14 0 -29.5 -2t-29 -1t-22.5 6t-9 17z" />
<glyph unicode="&#x2013;" horiz-adv-x="1173" d="M123 457q0 47 41 65q45 16 110 17q35 2 65 2h54q166 4 283 4t184 4l187 8q37 2 40 -22q0 -18 -38 -39q-18 -10 -49 -19.5t-76 -17.5q-23 -4 -118 -8.5t-263 -8.5q-55 -2 -137 -2t-193 -4h-30.5t-22.5 -2q-37 0 -37 23z" />
<glyph unicode="&#x2014;" horiz-adv-x="1382" d="M123 457q0 47 41 65q45 16 110 17q47 2 87 2h73q219 4 365.5 4t224.5 4l186 8q37 2 41 -22q0 -18 -39 -39q-37 -18 -125 -37q-23 -4 -317 -13q-147 -4 -241.5 -6t-139.5 -4q-43 -2 -86 -1t-90 1h-30.5t-22.5 -2q-37 0 -37 23z" />
<glyph unicode="&#x2018;" horiz-adv-x="477" d="M89 839q1 3 1 13q0 8 14.5 20.5t36 30t45 40t41.5 50.5q25 41 35 88t10 93q0 31 -5 52t-12 40.5t-12 41t-5 50.5q0 27 15 45t32 33q31 27 46 35t31 8q29 0 44.5 -29t15.5 -123q0 -106 -44 -196.5t-100.5 -156t-107.5 -102t-66 -36.5q-16 0 -15 3z" />
<glyph unicode="&#x2019;" horiz-adv-x="477" d="M86 987q0 106 44 196.5t100.5 156t107.5 102.5t65 37q16 0 15.5 -3t-0.5 -14q0 -10 -14.5 -22.5t-36 -28.5t-45 -38.5t-41.5 -51.5q-25 -41 -35 -88t-10 -92q0 -31 5 -52.5t12 -41t12 -41t5 -50.5q0 -27 -15 -45t-32 -32q-31 -27 -46 -35t-32 -8q-29 0 -44 28.5 t-15 122.5z" />
<glyph unicode="&#x201a;" horiz-adv-x="356" d="M-44 -452q1 3 1 14q0 8 14.5 20t36 29.5t45 40t41.5 51.5q25 41 35 88t10 92q0 31 -5 52.5t-12 41t-12.5 41t-5.5 50.5q0 27 15.5 45t32.5 32q31 27 46 35t31 8q29 0 44.5 -28.5t15.5 -122.5q0 -106 -44 -196.5t-100.5 -156t-107.5 -102.5t-66 -37q-16 0 -15 3z" />
<glyph unicode="&#x201c;" horiz-adv-x="696" d="M-3 777q1 3 1 14q0 8 14.5 20t36 29.5t45 40t41.5 51.5q25 41 35 88t10 92q0 31 -5 52.5t-12 41t-12.5 40.5t-5.5 50q0 27 15.5 45.5t32.5 32.5q33 29 47 36t30 7q29 0 44.5 -28.5t15.5 -122.5q0 -106 -44 -196.5t-100.5 -156t-107.5 -102.5t-66 -37q-16 0 -15 3z M284 787.5q1 3.5 1 13.5q0 8 14 20.5t35.5 29.5t45 39.5t42.5 51.5q25 41 35 88t10 92q0 31 -5 52.5t-12.5 41t-12.5 41t-5 50.5q0 27 15.5 45t31.5 32q33 29 47.5 36t30.5 7q29 0 44 -28.5t15 -122.5q0 -106 -44 -196.5t-100 -156t-107.5 -102.5t-65.5 -37q-16 0 -15 3.5z " />
<glyph unicode="&#x201d;" horiz-adv-x="696" d="M80 934q0 106 44 196.5t100.5 156t107.5 102t65 36.5q16 0 15.5 -3t-0.5 -13t-14.5 -22.5t-36 -29t-45 -39t-42.5 -50.5q-25 -41 -35 -88t-10 -93q0 -31 5.5 -52t12.5 -40.5t12 -41t5 -50.5q0 -27 -15.5 -45t-31.5 -33q-33 -29 -47 -36t-31 -7q-29 0 -44 29t-15 123z M367 944q0 106 44 196.5t100 156t107.5 102.5t65.5 37q16 0 15 -3t-1 -14q0 -10 -14 -22.5t-35.5 -28.5t-45 -38.5t-42.5 -51.5q-25 -41 -35 -88t-10 -92q0 -31 5 -52.5t12.5 -41t12.5 -41t5 -50.5q0 -27 -15.5 -45t-31.5 -32q-33 -29 -47.5 -36t-30.5 -7q-29 0 -44 28.5 t-15 122.5z" />
<glyph unicode="&#x201e;" horiz-adv-x="729" d="M-44 -443q1 3 1 13q0 8 14.5 20.5t36 30t45 40t41.5 50.5q25 39 45.5 95.5t20.5 101.5q0 59 -15.5 98t-25.5 80q33 55 58.5 78.5t49.5 32.5q23 -14 42.5 -54.5t19.5 -99.5q0 -106 -44 -196.5t-100.5 -155t-107.5 -101t-66 -36.5q-16 0 -15 3zM237 -443q1 3 1 13 q0 8 14 20.5t35.5 30t45 40t42.5 50.5q23 39 43 95.5t20 101.5q0 59 -14 98t-27 80q33 55 58.5 78.5t52.5 32.5q20 -14 39.5 -54.5t19.5 -99.5q0 -106 -44 -196.5t-99 -155t-106.5 -101t-65.5 -36.5q-16 0 -15 3z" />
<glyph unicode="&#x2026;" horiz-adv-x="1740" d="M145 51q4 66 32 102.5t102 36.5q45 0 58 -24.5t9 -71.5q-4 -49 -33.5 -89t-93.5 -40q-43 0 -60.5 17.5t-13.5 68.5zM776 55q4 66 32 103t101 37q45 0 58.5 -25t9.5 -72q-4 -49 -34 -89t-93 -40q-43 0 -60.5 17.5t-13.5 68.5zM1370 55q4 66 32 103t101 37q45 0 58.5 -25 t9.5 -72q-4 -49 -34 -89t-93 -40q-43 0 -60.5 17.5t-13.5 68.5z" />
<glyph unicode="&#x202f;" horiz-adv-x="393" />
<glyph unicode="&#x2039;" horiz-adv-x="376" d="M5.5 499.5q-9.5 55.5 2.5 102.5q33 51 92.5 108.5t120 104.5t109.5 78t59 31q14 0 14 -17q0 -16 -44 -54t-93 -85q-47 -43 -85 -82t-58 -80q0 -41 8 -88t19.5 -88t20.5 -73t9 -44q0 -27 -6 -40t-22 -27t-23.5 -21.5l-10.5 -10.5t-6 -3h-12q-14 0 -24 16.5t-19.5 42 t-16.5 58t-15 67.5q-10 49 -19.5 104.5z" />
<glyph unicode="&#x203a;" horiz-adv-x="444" d="M-27 227q0 16 44 54t94 86q47 43 84.5 81.5t58.5 79.5q0 41 -8 87.5t-19.5 88t-20.5 73.5t-9 44q0 27 6 40t22 28q16 14 23.5 21.5l10.5 10.5t6 3h11q14 0 24.5 -16.5t20 -42t16.5 -59.5t15 -67q10 -49 19.5 -104t-2.5 -103q-33 -53 -92.5 -109t-120 -103.5t-109.5 -78 t-59 -30.5q-14 0 -15 16z" />
<glyph unicode="&#x205f;" horiz-adv-x="492" />
<glyph unicode="&#x2122;" horiz-adv-x="1556" d="M76 1520q0 23 18 32q20 8 74 9q125 0 217 2t121 4l112 4q23 2 25 -12q0 -18 -47 -29q-16 -4 -30.5 -8t-47.5 -9q-12 -2 -29.5 -1t-42.5 -1l-40 -114q-6 -20 -16.5 -57t-27.5 -91q-16 -53 -30.5 -104t-28.5 -103q-10 -39 -21.5 -81.5t-23.5 -92.5q-4 -23 -6 -49 q-8 -59 -27 -80q-12 -16 -39.5 -35.5t-42.5 -19.5q-27 0 -26 18q0 10 9 48t21.5 86.5t25.5 98.5t24 85q6 29 24.5 93.5t39 132t35.5 122.5t19 66q4 10 5.5 19t5.5 20q6 14 20 36l-156 -2h-19t-27.5 -1t-28 -1h-17.5q-23 0 -22 15zM469 729q0 29 11.5 72t35.5 96 q29 66 67 136.5t99 162.5q25 37 60.5 83t73.5 93t74 90t62 74q23 16 38.5 23.5t37.5 17.5q6 4 10 3t15 1q12 0 12 -12t-13.5 -58.5t-37.5 -154.5q-14 -68 -29.5 -144.5t-29 -147.5t-23.5 -126t-14 -82q10 12 28.5 37t36.5 52.5t35.5 52t28.5 38.5q57 84 98 143.5t70.5 103.5 t53 80t46.5 73q27 43 42 67.5t24.5 36.5t15.5 17.5t16 11.5q16 10 38 13t38 3t16 -12q0 -4 -2 -10.5t-7 -19.5t-13 -34.5t-21 -56.5q-12 -43 -23.5 -86t-23.5 -86t-25.5 -97.5t-24.5 -106.5t-20.5 -94t-11.5 -58q-4 -31 -7 -53.5t-3 -36.5q0 -6 2 -14.5t2 -14.5 q0 -18 -10 -31q-18 -29 -48 -51.5t-46 -22.5q-23 0 -23 23q0 18 1 33.5t5 37t9.5 52.5t15.5 78q6 31 18.5 87t27.5 119.5t30.5 127t27.5 110.5l-6 4q-43 -66 -123 -182.5t-184 -263.5q-51 -74 -91 -136.5t-63 -80.5q-12 -14 -22 -18.5t-27 -4.5q-16 0 -16 31q0 16 2 39.5 t6 52.5q2 10 10 54t20.5 105.5t28 135.5t29.5 143.5t27.5 130t21.5 95.5q-18 -18 -48 -53.5t-63.5 -78.5t-67.5 -92t-60 -96q-31 -53 -55.5 -110.5t-45.5 -116.5q-16 -53 -24.5 -95.5t-10.5 -74.5q-4 -6 -15 -18.5t-23.5 -24t-25.5 -20.5t-24 -9q-16 0 -16 45z" />
<glyph unicode="&#x25fc;" horiz-adv-x="1003" d="M0 0v1004h1004v-1004h-1004z" />
</font>
</defs>
</svg>
